<?xml version="1.0" encoding="utf-8"?>
<!-- Generator: Adobe Illustrator 15.0.0, SVG Export Plug-In . SVG Version: 6.00 Build 0)  -->
<!DOCTYPE svg PUBLIC "-//W3C//DTD SVG 1.1//EN" "http://www.w3.org/Graphics/SVG/1.1/DTD/svg11.dtd">
<svg version="1.1" id="Calque_1" xmlns="http://www.w3.org/2000/svg" xmlns:xlink="http://www.w3.org/1999/xlink" x="0px" y="0px"
	 width="256px" height="256px" viewBox="0 0 256 256" enable-background="new 0 0 256 256" xml:space="preserve">
<g>
	<rect x="159.152" y="7.53" fill="#222454" width="68.953" height="202.105"/>
	<rect x="26.199" y="7.53" fill="#222454" width="68.953" height="202.105"/>
	<rect x="99.016" y="7.53" fill="#222454" width="56.371" height="240.94"/>
	<rect x="26" y="212.014" fill="#222454" width="69.152" height="36.457"/>
	<rect x="26" fill="#222454" width="202.105" height="5.152"/>
	<rect x="26" y="250.848" fill="#222454" width="25.164" height="5.153"/>
	<rect x="202.939" y="250.848" fill="#222454" width="25.166" height="5.153"/>
	<rect x="50.075" y="216.77" fill="#FFFFFF" width="21.002" height="6.34"/>
	<rect x="159.152" y="212.014" fill="#222454" width="69.149" height="36.457"/>
	<rect x="183.227" y="216.77" fill="#FFFFFF" width="21.002" height="6.34"/>
	<rect x="82.272" y="98.081" fill="#FFFFFF" width="6.341" height="21.002"/>
	<rect x="106.049" y="98.081" fill="#FFFFFF" width="6.341" height="21.002"/>
	<rect x="165.491" y="98.081" fill="#FFFFFF" width="6.341" height="21.002"/>
	<line fill="none" stroke="#FFFFFF" stroke-width="2" stroke-miterlimit="10" x1="106.792" y1="30.288" x2="130.768" y2="15.427"/>
	<line fill="none" stroke="#FFFFFF" stroke-width="2" stroke-miterlimit="10" x1="112.737" y1="36.232" x2="136.711" y2="21.372"/>
	<line fill="none" stroke="#FFFFFF" stroke-width="2" stroke-miterlimit="10" x1="118.681" y1="235.96" x2="142.654" y2="221.1"/>
	<line fill="none" stroke="#FFFFFF" stroke-width="2" stroke-miterlimit="10" x1="124.625" y1="241.904" x2="148.6" y2="227.043"/>
</g>
</svg>
