<?xml version="1.0" encoding="utf-8"?>
<!-- Generator: Adobe Illustrator 15.0.0, SVG Export Plug-In . SVG Version: 6.00 Build 0)  -->
<!DOCTYPE svg PUBLIC "-//W3C//DTD SVG 1.1//EN" "http://www.w3.org/Graphics/SVG/1.1/DTD/svg11.dtd">
<svg version="1.1" id="Calque_1" xmlns="http://www.w3.org/2000/svg" xmlns:xlink="http://www.w3.org/1999/xlink" x="0px" y="0px"
	 width="256px" height="256px" viewBox="0 0 256 256" enable-background="new 0 0 256 256" xml:space="preserve">
<g>
	<path fill="#222454" d="M187.455,101.918c-1.217,32.107-27.254,57.749-59.201,57.749c-31.945,0-57.983-25.642-59.2-57.749H187.455z
		"/>
	<ellipse fill="#222454" cx="128.219" cy="101.914" rx="59.219" ry="19.455"/>
	<path fill="none" stroke="#FFFFFF" stroke-width="3" stroke-miterlimit="10" d="M91.363,117.654c0,0-1.533,6.909-1.022,7.665
		c0.511,0.755,16.289,4.46,16.356,2.697c0.118-3.091,0.512-7.823,0.512-7.823"/>
	<rect x="126.21" y="153.193" fill="#222454" width="4.089" height="102.807"/>
	
		<rect x="92.467" y="139.9" transform="matrix(-0.9662 -0.2577 0.2577 -0.9662 136.53 400.5001)" fill="#222454" width="4.089" height="102.805"/>
	
		<rect x="161.993" y="139.892" transform="matrix(-0.967 0.2547 -0.2547 -0.967 371.3797 334.5079)" fill="#222454" width="4.088" height="102.805"/>
	<ellipse fill="#222454" cx="129.659" cy="191.188" rx="36.489" ry="7.326"/>
	<path fill="#222454" d="M184.329,37.968c-9.374-11.09-30.957-18.844-56.075-18.844c-25.117,0-46.699,7.754-56.075,18.844
		c3.647-17.474,27.362-30.962,56.075-30.962S180.682,20.495,184.329,37.968z"/>
	<ellipse fill="#222454" cx="128.254" cy="50.964" rx="59.122" ry="29.646"/>
	<rect x="125.441" fill="#222454" width="5.625" height="8.081"/>
	<g>
		
			<rect x="126.372" y="90.051" transform="matrix(0.9009 0.4341 -0.4341 0.9009 51.91 -46.2316)" fill="#FFFFFF" width="1.613" height="0.98"/>
		
			<rect x="127.218" y="88.287" transform="matrix(0.9007 0.4345 -0.4345 0.9007 51.283 -46.8043)" fill="#FFFFFF" width="1.613" height="0.981"/>
		
			<rect x="129.627" y="98.152" transform="matrix(0.901 0.4339 -0.4339 0.901 55.7127 -46.8229)" fill="#FFFFFF" width="1.615" height="0.981"/>
		
			<rect x="128.42" y="93.222" transform="matrix(0.9008 0.4343 -0.4343 0.9008 53.5277 -46.8268)" fill="#FFFFFF" width="1.613" height="0.98"/>
		
			<rect x="125.521" y="91.815" transform="matrix(0.9009 0.4341 -0.4341 0.9009 52.5916 -45.6869)" fill="#FFFFFF" width="1.613" height="0.981"/>
		
			<rect x="124.329" y="86.886" transform="matrix(0.9006 0.4347 -0.4347 0.9006 50.4226 -45.7081)" fill="#FFFFFF" width="1.612" height="0.981"/>
		
			<rect x="138.861" y="93.89" transform="matrix(0.9008 0.4343 -0.4343 0.9008 54.8513 -51.2932)" fill="#FFFFFF" width="1.611" height="0.981"/>
		
			<rect x="123.466" y="88.65" transform="matrix(0.9009 0.4341 -0.4341 0.9009 51.0139 -45.1089)" fill="#FFFFFF" width="1.613" height="0.98"/>
		
			<rect x="99.566" y="101.081" transform="matrix(-0.9006 -0.4347 0.4347 -0.9006 146.6132 236.6751)" fill="#FFFFFF" width="1.612" height="0.981"/>
		
			<rect x="130.481" y="96.385" transform="matrix(0.901 0.4339 -0.4339 0.901 55.029 -47.3672)" fill="#FFFFFF" width="1.614" height="0.98"/>
		
			<rect x="133.401" y="97.788" transform="matrix(0.9006 0.4346 -0.4346 0.9006 56.0427 -48.5564)" fill="#FFFFFF" width="1.611" height="0.981"/>
		
			<rect x="131.325" y="94.622" transform="matrix(0.9008 0.4343 -0.4343 0.9008 54.4245 -47.9496)" fill="#FFFFFF" width="1.613" height="0.98"/>
		
			<rect x="132.178" y="92.856" transform="matrix(0.9008 0.4343 -0.4343 0.9008 53.7418 -48.4953)" fill="#FFFFFF" width="1.613" height="0.98"/>
		
			<rect x="116.798" y="87.618" transform="matrix(0.9008 0.4343 -0.4343 0.9008 49.9404 -42.3351)" fill="#FFFFFF" width="1.613" height="0.98"/>
		<path fill="#FFFFFF" d="M100.617,88.08l-0.253-0.122c-0.548,0.099-1.085,0.203-1.62,0.308l1.447,0.697L100.617,88.08z"/>
		
			<rect x="97.176" y="91.215" transform="matrix(-0.9009 -0.4341 0.4341 -0.9009 146.443 216.8533)" fill="#FFFFFF" width="1.613" height="0.981"/>
		<path fill="#FFFFFF" d="M110.01,87.165l1.453,0.701l0.426-0.883l-1.006-0.485c-0.193,0.02-0.387,0.039-0.579,0.059L110.01,87.165z
			"/>
		
			<rect x="96.323" y="92.981" transform="matrix(0.9006 0.4347 -0.4347 0.9006 50.2878 -32.9282)" fill="#FFFFFF" width="1.612" height="0.981"/>
		
			<rect x="98.379" y="96.148" transform="matrix(-0.9007 -0.4345 0.4345 -0.9007 146.5368 226.7726)" fill="#FFFFFF" width="1.613" height="0.981"/>
		
			<rect x="97.524" y="97.912" transform="matrix(-0.901 -0.4337 0.4337 -0.901 144.2522 229.714)" fill="#FFFFFF" width="1.613" height="0.979"/>
		<path fill="#FFFFFF" d="M115.221,87.5l0.426-0.883l-0.963-0.464c-0.213,0.016-0.419,0.037-0.63,0.054l-0.286,0.593L115.221,87.5z"
			/>
		
			<rect x="122.626" y="90.419" transform="matrix(0.9008 0.4343 -0.4343 0.9008 51.7343 -44.5875)" fill="#FFFFFF" width="1.612" height="0.981"/>
		
			<rect x="120.556" y="87.252" transform="matrix(0.9009 0.4341 -0.4341 0.9009 50.1173 -43.9832)" fill="#FFFFFF" width="1.612" height="0.98"/>
		
			<rect x="136.637" y="105.89" transform="matrix(0.9008 0.4343 -0.4343 0.9008 59.8458 -49.1383)" fill="#FFFFFF" width="1.613" height="0.981"/>
		
			<rect x="119.707" y="89.017" transform="matrix(0.9009 0.4341 -0.4341 0.9009 50.8015 -43.4418)" fill="#FFFFFF" width="1.614" height="0.979"/>
		
			<rect x="121.763" y="92.182" transform="matrix(0.9009 0.4341 -0.4341 0.9009 52.3783 -44.0196)" fill="#FFFFFF" width="1.613" height="0.981"/>
		
			<rect x="118" y="92.551" transform="matrix(0.9009 0.4341 -0.4341 0.9009 52.1658 -42.3494)" fill="#FFFFFF" width="1.613" height="0.981"/>
		
			<rect x="118.857" y="90.782" transform="matrix(0.9009 0.4341 -0.4341 0.9009 51.4824 -42.8969)" fill="#FFFFFF" width="1.613" height="0.98"/>
		
			<rect x="135.455" y="100.956" transform="matrix(0.9006 0.4346 -0.4346 0.9006 57.6235 -49.1343)" fill="#FFFFFF" width="1.611" height="0.981"/>
		
			<rect x="154.933" y="112.522" transform="matrix(0.9008 0.4343 -0.4343 0.9008 64.5404 -56.4255)" fill="#FFFFFF" width="1.612" height="0.981"/>
		<path fill="#FFFFFF" d="M153.242,116.345c0.375-0.059,0.752-0.118,1.121-0.179l-0.84-0.406L153.242,116.345z"/>
		<path fill="#FFFFFF" d="M141.861,117.667c0.591-0.046,1.174-0.098,1.756-0.15l-1.365-0.659L141.861,117.667z"/>
		<path fill="#FFFFFF" d="M146.008,116.492l-0.402,0.834c0.588-0.06,1.172-0.121,1.748-0.187L146.008,116.492z"/>
		
			<rect x="152.868" y="109.361" transform="matrix(0.9006 0.4346 -0.4346 0.9006 63.0077 -55.8673)" fill="#FFFFFF" width="1.612" height="0.981"/>
		
			<rect x="137.488" y="104.124" transform="matrix(0.9009 0.4341 -0.4341 0.9009 59.121 -49.6619)" fill="#FFFFFF" width="1.613" height="0.981"/>
		
			<rect x="154.079" y="114.29" transform="matrix(0.901 0.4339 -0.4339 0.901 65.1338 -55.8324)" fill="#FFFFFF" width="1.614" height="0.981"/>
		
			<rect x="141.598" y="110.459" transform="matrix(0.9008 0.4343 -0.4343 0.9008 62.3208 -50.8386)" fill="#FFFFFF" width="1.612" height="0.981"/>
		
			<rect x="139.056" y="115.763" transform="matrix(-0.9009 -0.4341 0.4341 -0.9009 215.3968 281.6951)" fill="#FFFFFF" width="1.613" height="0.98"/>
		
			<rect x="139.901" y="113.987" transform="matrix(0.9009 0.4341 -0.4341 0.9009 63.6416 -49.7312)" fill="#FFFFFF" width="1.613" height="0.981"/>
		
			<rect x="152.017" y="111.127" transform="matrix(0.9009 0.4341 -0.4341 0.9009 63.6016 -55.2744)" fill="#FFFFFF" width="1.613" height="0.981"/>
		
			<rect x="140.765" y="112.225" transform="matrix(0.9008 0.4343 -0.4343 0.9008 63.0068 -50.3025)" fill="#FFFFFF" width="1.613" height="0.981"/>
		
			<rect x="139.547" y="107.288" transform="matrix(0.9009 0.4341 -0.4341 0.9009 60.7001 -50.2428)" fill="#FFFFFF" width="1.614" height="0.981"/>
		
			<rect x="138.694" y="109.063" transform="matrix(0.901 0.4338 -0.4338 0.901 61.3409 -49.6743)" fill="#FFFFFF" width="1.613" height="0.981"/>
		
			<rect x="155.796" y="110.761" transform="matrix(-0.9008 -0.4343 0.4343 -0.9008 249.3428 279.4809)" fill="#FFFFFF" width="1.613" height="0.981"/>
		
			<rect x="142.098" y="101.991" transform="matrix(0.9008 0.4343 -0.4343 0.9008 58.6943 -51.8971)" fill="#FFFFFF" width="1.613" height="0.981"/>
		
			<rect x="141.253" y="103.755" transform="matrix(0.9009 0.4341 -0.4341 0.9009 59.3337 -51.3325)" fill="#FFFFFF" width="1.613" height="0.98"/>
		
			<rect x="144.161" y="105.154" transform="matrix(0.9008 0.4343 -0.4343 0.9008 60.271 -52.4782)" fill="#FFFFFF" width="1.612" height="0.98"/>
		
			<rect x="142.471" y="108.691" transform="matrix(0.9005 0.4348 -0.4348 0.9005 61.7242 -51.4357)" fill="#FFFFFF" width="1.61" height="0.981"/>
		
			<rect x="151.173" y="112.889" transform="matrix(0.9009 0.4341 -0.4341 0.9009 64.2824 -54.7333)" fill="#FFFFFF" width="1.613" height="0.981"/>
		
			<rect x="140.395" y="105.525" transform="matrix(0.9009 0.4341 -0.4341 0.9009 60.0172 -50.7846)" fill="#FFFFFF" width="1.613" height="0.981"/>
		
			<rect x="139.196" y="100.588" transform="matrix(0.9009 0.4341 -0.4341 0.9009 57.7565 -50.7547)" fill="#FFFFFF" width="1.614" height="0.98"/>
		
			<rect x="138.347" y="102.353" transform="matrix(0.9008 0.4343 -0.4343 0.9008 58.479 -50.2321)" fill="#FFFFFF" width="1.613" height="0.981"/>
		
			<rect x="148.266" y="111.488" transform="matrix(0.9009 0.4341 -0.4341 0.9009 63.3861 -53.6102)" fill="#FFFFFF" width="1.613" height="0.981"/>
		
			<rect x="149.11" y="109.727" transform="matrix(0.9008 0.4343 -0.4343 0.9008 62.7502 -54.1752)" fill="#FFFFFF" width="1.613" height="0.981"/>
		
			<rect x="145.003" y="103.391" transform="matrix(0.9008 0.4343 -0.4343 0.9008 59.5909 -53.0202)" fill="#FFFFFF" width="1.613" height="0.981"/>
		
			<rect x="149.975" y="107.952" transform="matrix(0.9009 0.4341 -0.4341 0.9009 62.0221 -54.7039)" fill="#FFFFFF" width="1.614" height="0.98"/>
		
			<rect x="147.408" y="113.26" transform="matrix(0.9008 0.4343 -0.4343 0.9008 64.1159 -53.0852)" fill="#FFFFFF" width="1.613" height="0.981"/>
		
			<rect x="146.226" y="108.325" transform="matrix(0.9006 0.4346 -0.4346 0.9006 61.8979 -53.0835)" fill="#FFFFFF" width="1.612" height="0.982"/>
		
			<rect x="142.956" y="100.221" transform="matrix(0.9009 0.4341 -0.4341 0.9009 57.9687 -52.4223)" fill="#FFFFFF" width="1.613" height="0.98"/>
		
			<rect x="157.842" y="113.92" transform="matrix(0.9009 0.4341 -0.4341 0.9009 65.3928 -57.5271)" fill="#FFFFFF" width="1.614" height="0.981"/>
		
			<rect x="156.633" y="108.991" transform="matrix(0.9009 0.4341 -0.4341 0.9009 63.1316 -57.4898)" fill="#FFFFFF" width="1.613" height="0.98"/>
		
			<rect x="158.696" y="112.167" transform="matrix(0.9006 0.4346 -0.4346 0.9006 64.8045 -58.1199)" fill="#FFFFFF" width="1.611" height="0.982"/>
		
			<rect x="153.727" y="107.59" transform="matrix(0.9009 0.4341 -0.4341 0.9009 62.2352 -56.3671)" fill="#FFFFFF" width="1.613" height="0.981"/>
		
			<rect x="159.535" y="110.403" transform="matrix(0.9011 0.4336 -0.4336 0.9011 63.9411 -58.5585)" fill="#FFFFFF" width="1.614" height="0.979"/>
		
			<rect x="152.524" y="102.657" transform="matrix(0.9009 0.4341 -0.4341 0.9009 59.9746 -56.3341)" fill="#FFFFFF" width="1.613" height="0.98"/>
		
			<rect x="155.43" y="104.057" transform="matrix(0.9009 0.4341 -0.4341 0.9009 60.8705 -57.4566)" fill="#FFFFFF" width="1.613" height="0.98"/>
		
			<rect x="154.571" y="105.828" transform="matrix(0.9008 0.4343 -0.4343 0.9008 61.5971 -56.9329)" fill="#FFFFFF" width="1.612" height="0.981"/>
		
			<rect x="131.548" y="116.492" transform="matrix(-0.9009 -0.4341 0.4341 -0.9009 200.8082 279.821)" fill="#FFFFFF" width="1.613" height="0.98"/>
		
			<rect x="130.344" y="111.557" transform="matrix(-0.9008 -0.4343 0.4343 -0.9008 200.6183 269.9373)" fill="#FFFFFF" width="1.613" height="0.981"/>
		
			<rect x="129.491" y="113.324" transform="matrix(-0.9008 -0.4343 0.4343 -0.9008 198.2304 272.9248)" fill="#FFFFFF" width="1.611" height="0.981"/>
		<path fill="#FFFFFF" d="M157.15,115.667c0.166-0.032,0.332-0.063,0.498-0.096l-0.367-0.177L157.15,115.667z"/>
		<path fill="#FFFFFF" d="M134.502,118.076c0.385-0.014,0.77-0.028,1.15-0.044l-0.916-0.442L134.502,118.076z"/>
		
			<rect x="128.64" y="115.091" transform="matrix(-0.9008 -0.4343 0.4343 -0.9008 195.8451 275.913)" fill="#FFFFFF" width="1.612" height="0.981"/>
		<path fill="#FFFFFF" d="M138.493,117.224l-0.33,0.686c0.522-0.029,1.044-0.06,1.562-0.093L138.493,117.224z"/>
		
			<rect x="142.6" y="93.524" transform="matrix(0.901 0.4338 -0.4338 0.901 54.9866 -52.9074)" fill="#FFFFFF" width="1.613" height="0.981"/>
		
			<rect x="141.75" y="95.297" transform="matrix(0.901 0.4338 -0.4338 0.901 55.6714 -52.3631)" fill="#FFFFFF" width="1.613" height="0.98"/>
		
			<rect x="100.426" y="99.319" transform="matrix(-0.9009 -0.4341 0.4341 -0.9009 149.1042 233.6681)" fill="#FFFFFF" width="1.613" height="0.98"/>
		
			<rect x="144.651" y="96.692" transform="matrix(0.9008 0.4343 -0.4343 0.9008 56.6461 -53.5322)" fill="#FFFFFF" width="1.613" height="0.98"/>
		
			<rect x="140.049" y="98.82" transform="matrix(0.9009 0.4341 -0.4341 0.9009 57.0725 -51.2994)" fill="#FFFFFF" width="1.613" height="0.98"/>
		
			<rect x="140.895" y="97.057" transform="matrix(0.9008 0.4343 -0.4343 0.9008 56.4319 -51.8642)" fill="#FFFFFF" width="1.613" height="0.981"/>
		
			<rect x="143.8" y="98.459" transform="matrix(0.9008 0.4343 -0.4343 0.9008 57.3273 -52.9862)" fill="#FFFFFF" width="1.612" height="0.98"/>
		
			<rect x="149.614" y="101.26" transform="matrix(0.901 0.4338 -0.4338 0.901 59.037 -55.1844)" fill="#FFFFFF" width="1.613" height="0.981"/>
		
			<rect x="148.762" y="103.027" transform="matrix(0.9008 0.4343 -0.4343 0.9008 59.8038 -54.6877)" fill="#FFFFFF" width="1.612" height="0.98"/>
		
			<rect x="150.814" y="106.194" transform="matrix(0.9009 0.4341 -0.4341 0.9009 61.3404 -55.241)" fill="#FFFFFF" width="1.613" height="0.98"/>
		
			<rect x="147.909" y="104.794" transform="matrix(0.9009 0.4341 -0.4341 0.9009 60.4446 -54.1191)" fill="#FFFFFF" width="1.613" height="0.98"/>
		
			<rect x="147.079" y="106.56" transform="matrix(0.9005 0.4348 -0.4348 0.9005 61.2557 -53.6515)" fill="#FFFFFF" width="1.61" height="0.98"/>
		
			<rect x="145.877" y="101.625" transform="matrix(0.9005 0.4348 -0.4348 0.9005 58.9907 -53.6197)" fill="#FFFFFF" width="1.61" height="0.981"/>
		
			<rect x="151.676" y="104.419" transform="matrix(0.901 0.4339 -0.4339 0.901 60.6148 -55.7685)" fill="#FFFFFF" width="1.615" height="0.98"/>
		
			<rect x="109.996" y="101.755" transform="matrix(-0.9009 -0.4341 0.4341 -0.9009 166.2377 242.4528)" fill="#FFFFFF" width="1.613" height="0.98"/>
		
			<rect x="108.793" y="96.821" transform="matrix(-0.9009 -0.4341 0.4341 -0.9009 166.0935 232.5517)" fill="#FFFFFF" width="1.613" height="0.98"/>
		
			<rect x="107.948" y="98.584" transform="matrix(-0.9008 -0.4343 0.4343 -0.9008 163.6837 235.5517)" fill="#FFFFFF" width="1.613" height="0.981"/>
		
			<rect x="111.204" y="106.687" transform="matrix(-0.9007 -0.4344 0.4344 -0.9007 166.3345 252.3727)" fill="#FFFFFF" width="1.612" height="0.98"/>
		
			<rect x="107.09" y="100.354" transform="matrix(-0.9009 -0.4341 0.4341 -0.9009 161.3217 238.5294)" fill="#FFFFFF" width="1.613" height="0.981"/>
		
			<rect x="112.902" y="103.156" transform="matrix(-0.9009 -0.4341 0.4341 -0.9009 171.1533 246.3781)" fill="#FFFFFF" width="1.613" height="0.98"/>
		
			<rect x="114.11" y="108.087" transform="matrix(-0.9008 -0.4343 0.4343 -0.9008 171.269 256.2895)" fill="#FFFFFF" width="1.612" height="0.981"/>
		
			<rect x="112.041" y="104.917" transform="matrix(-0.9006 -0.4346 0.4346 -0.9006 168.6735 249.3818)" fill="#FFFFFF" width="1.612" height="0.981"/>
		
			<rect x="106.242" y="102.114" transform="matrix(-0.901 -0.4337 0.4337 -0.901 159.0029 241.4841)" fill="#FFFFFF" width="1.613" height="0.98"/>
		
			<rect x="103.332" y="100.72" transform="matrix(-0.9009 -0.4341 0.4341 -0.9009 154.0193 237.5932)" fill="#FFFFFF" width="1.613" height="0.981"/>
		
			<rect x="101.27" y="97.547" transform="matrix(-0.9006 -0.4347 0.4347 -0.9006 151.3871 230.6996)" fill="#FFFFFF" width="1.612" height="0.981"/>
		
			<rect x="102.129" y="95.786" transform="matrix(-0.9009 -0.4341 0.4341 -0.9009 153.8751 227.6908)" fill="#FFFFFF" width="1.612" height="0.981"/>
		
			<rect x="104.175" y="98.948" transform="matrix(-0.9006 -0.4347 0.4347 -0.9006 156.3008 234.6252)" fill="#FFFFFF" width="1.612" height="0.981"/>
		
			<rect x="105.042" y="97.184" transform="matrix(-0.9007 -0.4345 0.4345 -0.9007 158.7497 231.635)" fill="#FFFFFF" width="1.613" height="0.981"/>
		
			<rect x="123.68" y="110.522" transform="matrix(-0.9009 -0.4341 0.4341 -0.9009 188.4432 265.0574)" fill="#FFFFFF" width="1.612" height="0.98"/>
		
			<rect x="127.772" y="116.854" transform="matrix(-0.9006 -0.4346 0.4346 -0.9006 193.3857 278.9061)" fill="#FFFFFF" width="1.612" height="0.981"/>
		
			<rect x="122.816" y="112.296" transform="matrix(-0.901 -0.4337 0.4337 -0.901 186.0945 268.0298)" fill="#FFFFFF" width="1.614" height="0.98"/>
		
			<rect x="121.979" y="114.056" transform="matrix(-0.9009 -0.4341 0.4341 -0.9009 183.6753 271.0375)" fill="#FFFFFF" width="1.613" height="0.98"/>
		
			<rect x="114.946" y="106.318" transform="matrix(-0.9006 -0.4346 0.4346 -0.9006 173.5875 253.3071)" fill="#FFFFFF" width="1.612" height="0.981"/>
		
			<rect x="125.719" y="113.689" transform="matrix(-0.9007 -0.4344 0.4344 -0.9007 190.8813 271.9883)" fill="#FFFFFF" width="1.612" height="0.981"/>
		
			<rect x="126.579" y="111.927" transform="matrix(-0.9009 -0.4341 0.4341 -0.9009 193.3455 268.986)" fill="#FFFFFF" width="1.613" height="0.98"/>
		
			<rect x="124.882" y="115.457" transform="matrix(-0.9008 -0.4343 0.4343 -0.9008 188.5438 274.9771)" fill="#FFFFFF" width="1.612" height="0.981"/>
		
			<rect x="117.01" y="109.491" transform="matrix(-0.9009 -0.4341 0.4341 -0.9009 176.2128 260.2019)" fill="#FFFFFF" width="1.613" height="0.98"/>
		
			<rect x="117.862" y="107.725" transform="matrix(-0.9009 -0.434 0.434 -0.9009 178.6178 257.2081)" fill="#FFFFFF" width="1.613" height="0.981"/>
		
			<rect x="115.813" y="104.553" transform="matrix(-0.9008 -0.4343 0.4343 -0.9008 176.0404 250.3134)" fill="#FFFFFF" width="1.612" height="0.981"/>
		
			<rect x="120.775" y="109.122" transform="matrix(-0.9008 -0.4343 0.4343 -0.9008 183.489 261.1526)" fill="#FFFFFF" width="1.613" height="0.98"/>
		
			<rect x="119.572" y="104.188" transform="matrix(-0.9008 -0.4343 0.4343 -0.9008 183.3445 251.2523)" fill="#FFFFFF" width="1.613" height="0.981"/>
		
			<rect x="118.713" y="105.958" transform="matrix(-0.9009 -0.4341 0.4341 -0.9009 180.9836 254.2265)" fill="#FFFFFF" width="1.613" height="0.981"/>
		
			<rect x="134.238" y="96.018" transform="matrix(0.9009 0.4341 -0.4341 0.9009 55.2803 -49.0546)" fill="#FFFFFF" width="1.613" height="0.981"/>
		
			<rect x="113.393" y="94.684" transform="matrix(0.9008 0.4343 -0.4343 0.9008 52.6702 -40.1543)" fill="#FFFFFF" width="1.612" height="0.98"/>
		
			<rect x="113.041" y="87.983" transform="matrix(0.9007 0.4345 -0.4345 0.9007 49.7431 -40.6752)" fill="#FFFFFF" width="1.613" height="0.981"/>
		
			<rect x="114.26" y="92.918" transform="matrix(0.9006 0.4347 -0.4347 0.9006 52.0437 -40.7313)" fill="#FFFFFF" width="1.612" height="0.981"/>
		
			<rect x="111.337" y="91.517" transform="matrix(0.9008 0.4343 -0.4343 0.9008 51.0919 -39.5762)" fill="#FFFFFF" width="1.613" height="0.981"/>
		
			<rect x="110.489" y="93.288" transform="matrix(0.901 0.4338 -0.4338 0.901 51.7045 -38.9997)" fill="#FFFFFF" width="1.613" height="0.981"/>
		
			<rect x="112.197" y="89.746" transform="matrix(0.9009 0.434 -0.434 0.9009 50.3542 -40.0993)" fill="#FFFFFF" width="1.612" height="0.981"/>
		
			<rect x="99.227" y="94.378" transform="matrix(-0.901 -0.4337 0.4337 -0.901 149.022 223.7353)" fill="#FFFFFF" width="1.613" height="0.98"/>
		
			<rect x="109.286" y="88.354" transform="matrix(0.901 0.4338 -0.4338 0.901 49.445 -38.9662)" fill="#FFFFFF" width="1.613" height="0.981"/>
		
			<rect x="100.076" y="92.618" transform="matrix(-0.9009 -0.4341 0.4341 -0.9009 151.3478 220.7791)" fill="#FFFFFF" width="1.613" height="0.981"/>
		
			<rect x="98.332" y="89.13" transform="matrix(-0.435 0.9004 -0.9004 -0.435 222.7933 40.0804)" fill="#FFFFFF" width="0.981" height="1.614"/>
		
			<rect x="100.918" y="90.848" transform="matrix(-0.9006 -0.4346 0.4346 -0.9006 153.6474 217.8085)" fill="#FFFFFF" width="1.612" height="0.981"/>
		
			<rect x="116.304" y="96.087" transform="matrix(0.9012 0.4335 -0.4335 0.9012 53.4404 -41.2206)" fill="#FFFFFF" width="1.614" height="0.98"/>
		
			<rect x="112.558" y="96.452" transform="matrix(-0.9008 -0.4342 0.4342 -0.9008 173.3917 233.493)" fill="#FFFFFF" width="1.613" height="0.981"/>
		
			<rect x="115.947" y="89.384" transform="matrix(0.9008 0.4343 -0.4343 0.9008 50.6231 -41.7903)" fill="#FFFFFF" width="1.613" height="0.981"/>
		
			<rect x="115.101" y="91.148" transform="matrix(0.9009 0.4341 -0.4341 0.9009 51.269 -41.23)" fill="#FFFFFF" width="1.613" height="0.98"/>
		
			<rect x="108.448" y="90.116" transform="matrix(-0.9008 -0.4342 0.4342 -0.9008 168.3295 219.6658)" fill="#FFFFFF" width="1.613" height="0.981"/>
		<path fill="#FFFFFF" d="M107.705,88.232l0.426-0.884l-0.91-0.438c-0.24,0.031-0.476,0.064-0.715,0.096l-0.254,0.526
			L107.705,88.232z"/>
		
			<rect x="106.744" y="93.65" transform="matrix(-0.9008 -0.4343 0.4343 -0.9008 163.5395 225.6501)" fill="#FFFFFF" width="1.613" height="0.981"/>
		
			<rect x="105.887" y="95.42" transform="matrix(-0.9009 -0.434 0.434 -0.9009 161.1939 228.6209)" fill="#FFFFFF" width="1.613" height="0.981"/>
		
			<rect x="111.699" y="98.222" transform="matrix(-0.9009 -0.4341 0.4341 -0.9009 171.0089 236.4779)" fill="#FFFFFF" width="1.613" height="0.981"/>
		
			<rect x="109.652" y="95.051" transform="matrix(-0.9008 -0.4342 0.4342 -0.9008 168.4757 229.5683)" fill="#FFFFFF" width="1.613" height="0.981"/>
		
			<rect x="110.848" y="99.989" transform="matrix(-0.9009 -0.4341 0.4341 -0.9009 168.6245 239.4656)" fill="#FFFFFF" width="1.613" height="0.981"/>
		
			<rect x="107.59" y="91.887" transform="matrix(-0.9009 -0.4341 0.4341 -0.9009 165.9476 222.6512)" fill="#FFFFFF" width="1.613" height="0.981"/>
		<path fill="#FFFFFF" d="M103.948,88.597l0.426-0.883l-0.648-0.313c-0.357,0.055-0.718,0.107-1.071,0.165l-0.159,0.33
			L103.948,88.597z"/>
		
			<rect x="101.784" y="89.083" transform="matrix(-0.9008 -0.4343 0.4343 -0.9008 156.0937 214.8151)" fill="#FFFFFF" width="1.612" height="0.981"/>
		
			<rect x="104.687" y="90.478" transform="matrix(-0.901 -0.4338 0.4338 -0.901 161.076 218.6987)" fill="#FFFFFF" width="1.613" height="0.981"/>
		
			<rect x="105.541" y="88.716" transform="matrix(0.9006 0.4347 -0.4347 0.9006 49.3502 -37.3591)" fill="#FFFFFF" width="1.612" height="0.981"/>
		
			<rect x="102.972" y="94.014" transform="matrix(-0.9008 -0.4343 0.4343 -0.9008 156.2114 224.7043)" fill="#FFFFFF" width="1.612" height="0.981"/>
		
			<rect x="103.838" y="92.251" transform="matrix(-0.9008 -0.4343 0.4343 -0.9008 158.6226 221.7274)" fill="#FFFFFF" width="1.612" height="0.981"/>
		
			<rect x="117.159" y="94.323" transform="matrix(-0.9009 -0.4341 0.4341 -0.9009 183.0802 231.4357)" fill="#FFFFFF" width="1.613" height="0.981"/>
		
			<rect x="80.79" y="102.908" transform="matrix(-0.901 -0.4337 0.4337 -0.901 110.2725 231.9556)" fill="#FFFFFF" width="1.613" height="0.98"/>
		
			<rect x="170.459" y="102.593" transform="matrix(0.9009 0.4341 -0.4341 0.9009 61.7247 -64.1259)" fill="#FFFFFF" width="1.613" height="0.981"/>
		
			<rect x="169.614" y="104.355" transform="matrix(0.9011 0.4336 -0.4336 0.9011 62.3176 -63.5277)" fill="#FFFFFF" width="1.615" height="0.981"/>
		
			<rect x="170.81" y="109.295" transform="matrix(0.9009 0.4341 -0.4341 0.9009 64.6686 -63.6139)" fill="#FFFFFF" width="1.613" height="0.98"/>
		
			<rect x="79.942" y="104.679" transform="matrix(-0.9009 -0.4341 0.4341 -0.9009 107.8399 234.9665)" fill="#FFFFFF" width="1.613" height="0.981"/>
		
			<rect x="171.311" y="100.828" transform="matrix(-0.9005 -0.4348 0.4348 -0.9005 283.0584 267.3968)" fill="#FFFFFF" width="1.611" height="0.982"/>
		
			<rect x="171.678" y="107.532" transform="matrix(-0.9006 -0.4346 0.4346 -0.9006 280.8864 280.2678)" fill="#FFFFFF" width="1.611" height="0.981"/>
		
			<rect x="79.075" y="106.441" transform="matrix(0.9009 0.4341 -0.4341 0.9009 54.3364 -24.0754)" fill="#FFFFFF" width="1.613" height="0.981"/>
		<path fill="#FFFFFF" d="M179.549,98.916l1.453,0.701l0.379-0.787c-0.037-0.056-0.063-0.112-0.102-0.167l-1.305-0.63
			L179.549,98.916z"/>
		
			<rect x="175.068" y="100.461" transform="matrix(0.9009 0.4341 -0.4341 0.9009 61.2562 -66.3381)" fill="#FFFFFF" width="1.613" height="0.981"/>
		<path fill="#FFFFFF" d="M153.998,88.776l0.425-0.883l-0.694-0.334c-0.287-0.046-0.58-0.089-0.871-0.134l-0.313,0.651
			L153.998,88.776z"/>
		<path fill="#FFFFFF" d="M77.997,97.858l0.427-0.883l-1.169-0.563c-0.216,0.18-0.419,0.362-0.612,0.544l-0.098,0.202L77.997,97.858
			z"/>
		
			<rect x="176.787" y="96.931" transform="matrix(-0.9009 -0.4341 0.4341 -0.9009 295.2929 262.2778)" fill="#FFFFFF" width="1.613" height="0.981"/>
		
			<rect x="175.912" y="98.701" transform="matrix(0.9008 0.4343 -0.4343 0.9008 60.6211 -66.9105)" fill="#FFFFFF" width="1.613" height="0.981"/>
		
			<rect x="164.148" y="108.267" transform="matrix(0.9011 0.4336 -0.4336 0.9011 63.473 -60.7711)" fill="#FFFFFF" width="1.615" height="0.98"/>
		
			<rect x="90.857" y="96.884" transform="matrix(-0.9009 -0.4341 0.4341 -0.9009 131.9718 224.8865)" fill="#FFFFFF" width="1.613" height="0.981"/>
		
			<rect x="91.709" y="95.117" transform="matrix(-0.9009 -0.4341 0.4341 -0.9009 134.3578 221.8962)" fill="#FFFFFF" width="1.613" height="0.98"/>
		
			<rect x="165" y="106.494" transform="matrix(0.9009 0.4341 -0.4341 0.9009 62.8766 -61.3693)" fill="#FFFFFF" width="1.613" height="0.98"/>
		
			<rect x="165.843" y="104.731" transform="matrix(0.9008 0.4343 -0.4343 0.9008 62.2409 -61.9385)" fill="#FFFFFF" width="1.613" height="0.98"/>
		
			<rect x="89.966" y="91.627" transform="matrix(-0.434 0.9009 -0.9009 -0.434 212.9904 51.0597)" fill="#FFFFFF" width="0.981" height="1.613"/>
		
			<rect x="90.002" y="98.642" transform="matrix(0.9009 0.4341 -0.4341 0.9009 52.0341 -29.5921)" fill="#FFFFFF" width="1.613" height="0.98"/>
		
			<rect x="166.201" y="111.426" transform="matrix(0.9009 0.4341 -0.4341 0.9009 65.1371 -61.4019)" fill="#FFFFFF" width="1.613" height="0.981"/>
		
			<rect x="84.536" y="102.543" transform="matrix(0.9009 0.4341 -0.4341 0.9009 53.1855 -26.8324)" fill="#FFFFFF" width="1.613" height="0.981"/>
		
			<rect x="86.247" y="99.016" transform="matrix(-0.9009 -0.4341 0.4341 -0.9009 122.2839 226.9369)" fill="#FFFFFF" width="1.613" height="0.98"/>
		
			<rect x="85.396" y="100.783" transform="matrix(-0.9009 -0.4341 0.4341 -0.9009 119.899 229.9264)" fill="#FFFFFF" width="1.613" height="0.98"/>
		<path fill="#FFFFFF" d="M91.824,91.461l0.426-0.884l-1.086-0.524c-0.176,0.05-0.35,0.1-0.523,0.15l-0.27,0.557L91.824,91.461z"/>
		
			<rect x="167.049" y="109.666" transform="matrix(-0.9005 -0.4348 0.4348 -0.9005 271.1145 282.339)" fill="#FFFFFF" width="1.611" height="0.981"/>
		<path fill="#FFFFFF" d="M113.895,116.25l-0.426,0.884l1.104,0.532c0.139,0.011,0.277,0.021,0.416,0.031l0.359-0.746
			L113.895,116.25z"/>
		
			<rect x="126.717" y="96.754" transform="matrix(0.9007 0.4345 -0.4345 0.9007 54.912 -45.7459)" fill="#FFFFFF" width="1.613" height="0.981"/>
		
			<rect x="132.535" y="99.551" transform="matrix(0.9009 0.4341 -0.4341 0.9009 56.6452 -47.965)" fill="#FFFFFF" width="1.613" height="0.981"/>
		
			<rect x="113.744" y="101.384" transform="matrix(-0.9006 -0.4347 0.4347 -0.9006 173.4273 243.4143)" fill="#FFFFFF" width="1.612" height="0.981"/>
		
			<rect x="132.899" y="106.257" transform="matrix(-0.9006 -0.4346 0.4346 -0.9006 207.7366 260.9921)" fill="#FFFFFF" width="1.612" height="0.981"/>
		
			<rect x="132.033" y="108.02" transform="matrix(0.9009 0.4341 -0.4341 0.9009 60.2729 -46.9086)" fill="#FFFFFF" width="1.614" height="0.98"/>
		
			<rect x="131.195" y="109.791" transform="matrix(-0.9009 -0.4341 0.4341 -0.9009 203.0458 266.9307)" fill="#FFFFFF" width="1.613" height="0.981"/>
		
			<rect x="131.679" y="101.322" transform="matrix(0.9009 0.4341 -0.4341 0.9009 57.3271 -47.4168)" fill="#FFFFFF" width="1.612" height="0.98"/>
		
			<rect x="130.838" y="103.092" transform="matrix(0.9006 0.4346 -0.4346 0.9006 58.0931 -46.9158)" fill="#FFFFFF" width="1.611" height="0.981"/>
		
			<rect x="128.277" y="108.397" transform="matrix(-0.901 -0.4339 0.4339 -0.901 198.1448 262.9955)" fill="#FFFFFF" width="1.614" height="0.981"/>
		
			<rect x="129.142" y="106.622" transform="matrix(-0.9008 -0.4343 0.4343 -0.9008 200.4774 260.0365)" fill="#FFFFFF" width="1.613" height="0.981"/>
		
			<rect x="129.986" y="104.86" transform="matrix(-0.9009 -0.4341 0.4341 -0.9009 202.8892 257.0326)" fill="#FFFFFF" width="1.613" height="0.981"/>
		
			<rect x="132.385" y="114.731" transform="matrix(-0.9011 -0.4336 0.4336 -0.9011 203.25 276.8015)" fill="#FFFFFF" width="1.615" height="0.981"/>
		
			<rect x="135.787" y="107.656" transform="matrix(-0.9006 -0.4346 0.4346 -0.9006 212.6158 264.9075)" fill="#FFFFFF" width="1.612" height="0.981"/>
		
			<rect x="134.934" y="109.423" transform="matrix(0.9008 0.4343 -0.4343 0.9008 61.2113 -48.0479)" fill="#FFFFFF" width="1.613" height="0.981"/>
		
			<rect x="134.584" y="102.722" transform="matrix(0.9008 0.4343 -0.4343 0.9008 58.2645 -48.5602)" fill="#FFFFFF" width="1.612" height="0.981"/>
		
			<rect x="144.503" y="111.859" transform="matrix(0.9006 0.4346 -0.4346 0.9006 63.262 -51.9838)" fill="#FFFFFF" width="1.612" height="0.981"/>
		
			<rect x="145.361" y="110.089" transform="matrix(0.9009 0.4341 -0.4341 0.9009 62.4907 -52.4882)" fill="#FFFFFF" width="1.613" height="0.98"/>
		<path fill="#FFFFFF" d="M149.395,116.896c0.52-0.066,1.027-0.137,1.537-0.208l-1.166-0.562L149.395,116.896z"/>
		
			<rect x="146.564" y="115.022" transform="matrix(0.9009 0.4341 -0.4341 0.9009 64.7515 -52.5209)" fill="#FFFFFF" width="1.613" height="0.981"/>
		
			<rect x="127.422" y="110.155" transform="matrix(-0.9006 -0.4347 0.4347 -0.9006 195.6109 266.0291)" fill="#FFFFFF" width="1.612" height="0.981"/>
		
			<rect x="142.807" y="115.388" transform="matrix(0.9009 0.4341 -0.4341 0.9009 64.5378 -50.8539)" fill="#FFFFFF" width="1.613" height="0.981"/>
		
			<rect x="143.652" y="113.626" transform="matrix(-0.9005 -0.4348 0.4348 -0.9005 224.9263 279.6927)" fill="#FFFFFF" width="1.61" height="0.981"/>
		
			<rect x="135.298" y="116.129" transform="matrix(-0.9009 -0.4341 0.4341 -0.9009 208.0937 280.7602)" fill="#FFFFFF" width="1.613" height="0.981"/>
		
			<rect x="136.156" y="114.358" transform="matrix(-0.9009 -0.4341 0.4341 -0.9009 210.4944 277.7654)" fill="#FFFFFF" width="1.613" height="0.981"/>
		
			<rect x="133.25" y="112.958" transform="matrix(-0.9009 -0.4341 0.4341 -0.9009 205.5777 273.8428)" fill="#FFFFFF" width="1.613" height="0.981"/>
		
			<rect x="134.098" y="111.186" transform="matrix(-0.901 -0.4338 0.4338 -0.901 208.0026 270.8223)" fill="#FFFFFF" width="1.613" height="0.981"/>
		
			<rect x="137.853" y="110.829" transform="matrix(-0.9009 -0.4341 0.4341 -0.9009 215.2516 271.7937)" fill="#FFFFFF" width="1.613" height="0.98"/>
		
			<rect x="150.324" y="114.655" transform="matrix(0.9009 0.4341 -0.4341 0.9009 64.9631 -54.1888)" fill="#FFFFFF" width="1.612" height="0.981"/>
		
			<rect x="137.009" y="112.592" transform="matrix(-0.9006 -0.4346 0.4346 -0.9006 212.794 274.8184)" fill="#FFFFFF" width="1.612" height="0.981"/>
		
			<rect x="133.731" y="104.489" transform="matrix(0.9009 0.4341 -0.4341 0.9009 58.9071 -47.9944)" fill="#FFFFFF" width="1.613" height="0.981"/>
		
			<rect x="128.779" y="99.918" transform="matrix(-0.9006 -0.4346 0.4346 -0.9006 202.6595 247.1544)" fill="#FFFFFF" width="1.611" height="0.981"/>
		
			<rect x="127.94" y="101.689" transform="matrix(-0.9008 -0.4342 0.4342 -0.9008 200.3558 250.1261)" fill="#FFFFFF" width="1.613" height="0.981"/>
		
			<rect x="127.086" y="103.455" transform="matrix(0.9006 0.4347 -0.4347 0.9006 57.899 -45.2592)" fill="#FFFFFF" width="1.612" height="0.981"/>
		
			<rect x="127.576" y="94.985" transform="matrix(0.9009 0.434 -0.434 0.9009 54.1523 -46.2552)" fill="#FFFFFF" width="1.613" height="0.98"/>
		
			<rect x="125.032" y="100.288" transform="matrix(-0.9009 -0.4341 0.4341 -0.9009 195.4564 246.1927)" fill="#FFFFFF" width="1.613" height="0.981"/>
		
			<rect x="143.301" y="106.924" transform="matrix(0.901 0.4338 -0.4338 0.901 60.8693 -51.8849)" fill="#FFFFFF" width="1.613" height="0.981"/>
		
			<rect x="125.873" y="98.516" transform="matrix(0.9009 0.4341 -0.4341 0.9009 55.5354 -45.1755)" fill="#FFFFFF" width="1.613" height="0.981"/>
		
			<rect x="119.22" y="97.486" transform="matrix(-0.9008 -0.4343 0.4343 -0.9008 185.5861 238.3613)" fill="#FFFFFF" width="1.613" height="0.981"/>
		
			<rect x="115.447" y="97.851" transform="matrix(-0.9006 -0.4346 0.4346 -0.9006 178.2191 237.4325)" fill="#FFFFFF" width="1.612" height="0.981"/>
		
			<rect x="114.605" y="99.622" transform="matrix(-0.9009 -0.434 0.434 -0.9009 175.9431 240.3923)" fill="#FFFFFF" width="1.613" height="0.981"/>
		
			<rect x="124.162" y="102.053" transform="matrix(0.9008 0.4343 -0.4343 0.9008 56.9412 -44.101)" fill="#FFFFFF" width="1.613" height="0.981"/>
		
			<rect x="116.666" y="102.787" transform="matrix(-0.9009 -0.4341 0.4341 -0.9009 178.4683 247.3103)" fill="#FFFFFF" width="1.613" height="0.981"/>
		
			<rect x="118.357" y="99.261" transform="matrix(-0.901 -0.4339 0.4339 -0.901 183.2514 241.3245)" fill="#FFFFFF" width="1.614" height="0.981"/>
		
			<rect x="117.515" y="101.015" transform="matrix(-0.901 -0.4338 0.4338 -0.901 180.89 244.2934)" fill="#FFFFFF" width="1.613" height="0.98"/>
		
			<rect x="124.669" y="93.583" transform="matrix(0.9009 0.4341 -0.4341 0.9009 53.2745 -45.1422)" fill="#FFFFFF" width="1.613" height="0.98"/>
		
			<rect x="122.475" y="105.583" transform="matrix(-0.901 -0.4338 0.4338 -0.901 188.3377 255.1284)" fill="#FFFFFF" width="1.613" height="0.98"/>
		
			<rect x="123.329" y="103.822" transform="matrix(-0.9008 -0.4343 0.4343 -0.9008 190.6454 252.1877)" fill="#FFFFFF" width="1.613" height="0.981"/>
		
			<rect x="121.62" y="107.358" transform="matrix(-0.9009 -0.4341 0.4341 -0.9009 185.9008 258.1492)" fill="#FFFFFF" width="1.613" height="0.981"/>
		
			<rect x="125.378" y="106.992" transform="matrix(-0.9009 -0.4341 0.4341 -0.9009 193.2025 259.0857)" fill="#FFFFFF" width="1.613" height="0.981"/>
		
			<rect x="124.533" y="108.755" transform="matrix(-0.9008 -0.4343 0.4343 -0.9008 190.7906 262.0871)" fill="#FFFFFF" width="1.613" height="0.981"/>
		
			<rect x="120.423" y="102.421" transform="matrix(-0.9008 -0.4343 0.4343 -0.9008 185.7298 248.2627)" fill="#FFFFFF" width="1.613" height="0.981"/>
		
			<rect x="120.053" y="95.719" transform="matrix(0.9008 0.4343 -0.4343 0.9008 53.7821 -42.9449)" fill="#FFFFFF" width="1.613" height="0.981"/>
		
			<rect x="122.115" y="98.882" transform="matrix(0.9009 0.4341 -0.4341 0.9009 55.3217 -43.5082)" fill="#FFFFFF" width="1.613" height="0.981"/>
		
			<rect x="122.966" y="97.116" transform="matrix(0.9009 0.4341 -0.4341 0.9009 54.6396 -44.0525)" fill="#FFFFFF" width="1.613" height="0.981"/>
		
			<rect x="123.811" y="95.354" transform="matrix(0.9009 0.4341 -0.4341 0.9009 53.9583 -44.5942)" fill="#FFFFFF" width="1.613" height="0.981"/>
		
			<rect x="121.256" y="100.653" transform="matrix(0.9008 0.4343 -0.4343 0.9008 56.0445 -42.9777)" fill="#FFFFFF" width="1.613" height="0.981"/>
		
			<rect x="120.908" y="93.952" transform="matrix(0.9008 0.4343 -0.4343 0.9008 53.0981 -43.4905)" fill="#FFFFFF" width="1.612" height="0.981"/>
		
			<rect x="126.237" y="105.222" transform="matrix(-0.9009 -0.4341 0.4341 -0.9009 195.6041 256.0936)" fill="#FFFFFF" width="1.613" height="0.981"/>
		<path fill="#FFFFFF" d="M83.884,93.076l-0.552-0.265c-0.395,0.175-0.771,0.355-1.145,0.536l1.271,0.613L83.884,93.076z"/>
		
			<rect x="87.806" y="110.644" transform="matrix(-0.901 -0.4337 0.4337 -0.901 120.2558 249.7045)" fill="#FFFFFF" width="1.613" height="0.981"/>
		
			<rect x="82.848" y="106.08" transform="matrix(-0.9009 -0.4341 0.4341 -0.9009 112.7543 238.8905)" fill="#FFFFFF" width="1.613" height="0.981"/>
		
			<rect x="81.989" y="107.848" transform="matrix(-0.9009 -0.4341 0.4341 -0.9009 110.3558 241.878)" fill="#FFFFFF" width="1.613" height="0.981"/>
		
			<rect x="83.693" y="104.315" transform="matrix(-0.9009 -0.4341 0.4341 -0.9009 115.1286 235.9025)" fill="#FFFFFF" width="1.613" height="0.981"/>
		
			<rect x="84.896" y="109.249" transform="matrix(-0.9009 -0.4341 0.4341 -0.9009 115.2735 245.8027)" fill="#FFFFFF" width="1.613" height="0.98"/>
		
			<rect x="86.606" y="105.714" transform="matrix(-0.9008 -0.4343 0.4343 -0.9008 120.0209 239.8347)" fill="#FFFFFF" width="1.613" height="0.981"/>
		
			<rect x="85.754" y="107.48" transform="matrix(-0.9009 -0.4341 0.4341 -0.9009 117.6715 242.8132)" fill="#FFFFFF" width="1.613" height="0.981"/>
		
			<rect x="81.632" y="101.142" transform="matrix(-0.9006 -0.4347 0.4347 -0.9006 112.5012 228.9967)" fill="#FFFFFF" width="1.612" height="0.981"/>
		
			<rect x="84.186" y="95.843" transform="matrix(-0.9006 -0.4346 0.4346 -0.9006 119.6744 220.0309)" fill="#FFFFFF" width="1.612" height="0.981"/>
		<path fill="#FFFFFF" d="M88.493,90.943l-0.104-0.05c-0.451,0.147-0.889,0.299-1.322,0.451l1,0.482L88.493,90.943z"/>
		<path fill="#FFFFFF" d="M135.461,86.371l1.452,0.701l0.426-0.883l-0.733-0.354c-0.287-0.013-0.58-0.023-0.869-0.035
			L135.461,86.371z"/>
		
			<rect x="83.347" y="97.612" transform="matrix(0.9006 0.4346 -0.4346 0.9006 50.994 -26.8229)" fill="#FFFFFF" width="1.612" height="0.981"/>
		
			<rect x="82.487" y="99.374" transform="matrix(0.9009 0.4341 -0.4341 0.9009 51.6068 -26.2573)" fill="#FFFFFF" width="1.613" height="0.98"/>
		
			<rect x="81.285" y="94.441" transform="matrix(0.9009 0.4341 -0.4341 0.9009 49.3461 -26.2244)" fill="#FFFFFF" width="1.613" height="0.979"/>
		
			<rect x="80.432" y="96.207" transform="matrix(0.9009 0.4341 -0.4341 0.9009 50.0295 -25.6796)" fill="#FFFFFF" width="1.614" height="0.98"/>
		
			<rect x="97.37" y="113.086" transform="matrix(-0.9008 -0.4343 0.4343 -0.9008 137.28 258.5222)" fill="#FFFFFF" width="1.613" height="0.98"/>
		
			<rect x="96.174" y="108.15" transform="matrix(-0.9008 -0.4343 0.4343 -0.9008 137.1494 248.6201)" fill="#FFFFFF" width="1.612" height="0.981"/>
		<path fill="#FFFFFF" d="M103.475,115.582l-0.362,0.75c0.552,0.087,1.104,0.175,1.667,0.256l0.148-0.307L103.475,115.582z"/>
		<path fill="#FFFFFF" d="M111.59,117.317l-1.453-0.7l-0.293,0.609c0.564,0.061,1.135,0.118,1.707,0.173L111.59,117.317z"/>
		
			<rect x="172.506" y="105.766" transform="matrix(0.9009 0.4341 -0.4341 0.9009 63.3051 -64.6998)" fill="#FFFFFF" width="1.613" height="0.981"/>
		
			<rect x="95.308" y="109.912" transform="matrix(-0.9006 -0.4347 0.4347 -0.9006 134.6819 251.6093)" fill="#FFFFFF" width="1.612" height="0.981"/>
		<path fill="#FFFFFF" d="M170.256,110.764l-0.425,0.883l0.79,0.381c0.337-0.127,0.678-0.253,1.001-0.383l0.087-0.181
			L170.256,110.764z"/>
		
			<rect x="138.007" y="95.656" transform="matrix(0.9008 0.4343 -0.4343 0.9008 55.5355 -50.7482)" fill="#FFFFFF" width="1.612" height="0.981"/>
		
			<rect x="91.559" y="110.284" transform="matrix(-0.9009 -0.4341 0.4341 -0.9009 127.4891 250.6636)" fill="#FFFFFF" width="1.613" height="0.981"/>
		
			<rect x="90.713" y="112.043" transform="matrix(-0.901 -0.4337 0.4337 -0.901 125.1736 253.6263)" fill="#FFFFFF" width="1.613" height="0.981"/>
		
			<rect x="88.66" y="108.881" transform="matrix(-0.9009 -0.4341 0.4341 -0.9009 122.5873 246.7376)" fill="#FFFFFF" width="1.613" height="0.981"/>
		<path fill="#FFFFFF" d="M174.218,110.497l-0.204-0.099l-0.121,0.251C174,110.599,174.111,110.548,174.218,110.497z"/>
		
			<rect x="94.47" y="111.683" transform="matrix(-0.9008 -0.4343 0.4343 -0.9008 132.3763 254.5958)" fill="#FFFFFF" width="1.612" height="0.981"/>
		
			<rect x="92.416" y="108.51" transform="matrix(-0.901 -0.4337 0.4337 -0.901 129.9437 247.6482)" fill="#FFFFFF" width="1.613" height="0.981"/>
		
			<rect x="93.605" y="113.445" transform="matrix(-0.9006 -0.4346 0.4346 -0.9006 129.9281 257.579)" fill="#FFFFFF" width="1.612" height="0.981"/>
		
			<rect x="162.592" y="96.636" transform="matrix(0.901 0.4338 -0.4338 0.901 58.3159 -61.2724)" fill="#FFFFFF" width="1.613" height="0.98"/>
		
			<rect x="161.742" y="98.391" transform="matrix(0.9009 0.4341 -0.4341 0.9009 59.0367 -60.7585)" fill="#FFFFFF" width="1.613" height="0.981"/>
		
			<rect x="163.792" y="101.563" transform="matrix(0.9009 0.4341 -0.4341 0.9009 60.6172 -61.3336)" fill="#FFFFFF" width="1.613" height="0.981"/>
		
			<rect x="160.031" y="101.931" transform="matrix(0.9008 0.4343 -0.4343 0.9008 60.4477 -59.6923)" fill="#FFFFFF" width="1.613" height="0.98"/>
		
			<rect x="160.891" y="100.158" transform="matrix(0.9008 0.4343 -0.4343 0.9008 59.7631 -60.2415)" fill="#FFFFFF" width="1.613" height="0.981"/>
		
			<rect x="158.829" y="96.996" transform="matrix(0.9008 0.4343 -0.4343 0.9008 58.1836 -59.6587)" fill="#FFFFFF" width="1.612" height="0.981"/>
		
			<rect x="164.651" y="99.788" transform="matrix(0.901 0.4339 -0.4339 0.901 59.8904 -61.8562)" fill="#FFFFFF" width="1.615" height="0.981"/>
		
			<rect x="166.719" y="102.962" transform="matrix(0.9005 0.4348 -0.4348 0.9005 61.6452 -62.5487)" fill="#FFFFFF" width="1.61" height="0.981"/>
		
			<rect x="165.504" y="98.021" transform="matrix(0.901 0.4339 -0.4339 0.901 59.2067 -62.4002)" fill="#FFFFFF" width="1.614" height="0.981"/>
		
			<rect x="168.418" y="99.43" transform="matrix(0.9006 0.4346 -0.4346 0.9006 60.2371 -63.6118)" fill="#FFFFFF" width="1.612" height="0.981"/>
		<path fill="#FFFFFF" d="M165.223,113.779l0.014,0.006c0.476-0.134,0.949-0.269,1.41-0.408l-1-0.481L165.223,113.779z"/>
		
			<rect x="168.766" y="106.126" transform="matrix(-0.901 -0.4338 0.4338 -0.901 276.1013 276.2437)" fill="#FFFFFF" width="1.613" height="0.98"/>
		
			<rect x="157.982" y="98.767" transform="matrix(0.901 0.4338 -0.4338 0.901 58.784 -59.0617)" fill="#FFFFFF" width="1.613" height="0.981"/>
		
			<rect x="167.568" y="101.196" transform="matrix(0.9005 0.4348 -0.4348 0.9005 60.9635 -63.095)" fill="#FFFFFF" width="1.611" height="0.981"/>
		
			<rect x="145.171" y="88.224" transform="matrix(0.9006 0.4346 -0.4346 0.9006 53.0576 -54.6227)" fill="#FFFFFF" width="1.612" height="0.981"/>
		
			<rect x="148.078" y="89.625" transform="matrix(0.9008 0.4343 -0.4343 0.9008 53.9152 -55.7206)" fill="#FFFFFF" width="1.612" height="0.981"/>
		
			<rect x="148.91" y="87.861" transform="matrix(0.9006 0.4346 -0.4346 0.9006 53.271 -56.2836)" fill="#FFFFFF" width="1.612" height="0.981"/>
		
			<rect x="147.213" y="91.388" transform="matrix(0.9009 0.4341 -0.4341 0.9009 54.5565 -55.1457)" fill="#FFFFFF" width="1.613" height="0.981"/>
		
			<rect x="146.362" y="93.155" transform="matrix(0.9009 0.4341 -0.4341 0.9009 55.2391 -54.6013)" fill="#FFFFFF" width="1.613" height="0.981"/>
		<path fill="#FFFFFF" d="M140.672,86.706l0.292-0.608c-0.575-0.042-1.149-0.084-1.731-0.12l-0.015,0.028L140.672,86.706z"/>
		
			<rect x="157.133" y="100.524" transform="matrix(0.9009 0.4341 -0.4341 0.9009 59.5056 -58.5462)" fill="#FFFFFF" width="1.613" height="0.98"/>
		
			<rect x="150.119" y="92.788" transform="matrix(0.9009 0.4341 -0.4341 0.9009 55.4525 -56.2684)" fill="#FFFFFF" width="1.613" height="0.981"/>
		
			<rect x="154.721" y="90.662" transform="matrix(0.9008 0.4343 -0.4343 0.9008 55.0262 -58.5042)" fill="#FFFFFF" width="1.613" height="0.981"/>
		
			<rect x="155.923" y="95.596" transform="matrix(0.9008 0.4343 -0.4343 0.9008 57.2889 -58.5368)" fill="#FFFFFF" width="1.613" height="0.981"/>
		
			<rect x="153.875" y="92.423" transform="matrix(0.9009 0.4341 -0.4341 0.9009 55.6661 -57.9351)" fill="#FFFFFF" width="1.613" height="0.981"/>
		
			<rect x="150.97" y="91.022" transform="matrix(0.9009 0.4341 -0.4341 0.9009 54.77 -56.813)" fill="#FFFFFF" width="1.613" height="0.98"/>
		
			<rect x="151.814" y="89.261" transform="matrix(0.9008 0.4343 -0.4343 0.9008 54.1296 -57.3809)" fill="#FFFFFF" width="1.613" height="0.981"/>
		
			<rect x="153.018" y="94.195" transform="matrix(0.9008 0.4343 -0.4343 0.9008 56.392 -57.414)" fill="#FFFFFF" width="1.613" height="0.982"/>
		
			<rect x="167.904" y="107.893" transform="matrix(0.9009 0.4341 -0.4341 0.9009 63.7723 -62.4915)" fill="#FFFFFF" width="1.613" height="0.98"/>
		<path fill="#FFFFFF" d="M98.264,115.247l-1.452-0.701l-0.271,0.562c0.535,0.116,1.074,0.232,1.625,0.343L98.264,115.247z"/>
		<path fill="#FFFFFF" d="M87.242,112.11l-0.18,0.372c0.502,0.177,1.014,0.35,1.54,0.52l0.093-0.191L87.242,112.11z"/>
		<path fill="#FFFFFF" d="M174.865,108.632l-0.426,0.883l0.879,0.424c0.332-0.177,0.654-0.354,0.965-0.534l0.035-0.073
			L174.865,108.632z"/>
		
			<rect x="177.123" y="103.629" transform="matrix(0.9008 0.4343 -0.4343 0.9008 62.8817 -66.9473)" fill="#FFFFFF" width="1.613" height="0.981"/>
		
			<rect x="178.834" y="100.106" transform="matrix(-0.9009 -0.4341 0.4341 -0.9009 297.8058 269.2003)" fill="#FFFFFF" width="1.613" height="0.981"/>
		
			<rect x="177.983" y="101.872" transform="matrix(-0.9009 -0.4341 0.4341 -0.9009 295.4205 272.1878)" fill="#FFFFFF" width="1.613" height="0.981"/>
		<path fill="#FFFFFF" d="M84.336,110.71l-0.293,0.608c0.484,0.205,0.984,0.407,1.499,0.605l0.247-0.513L84.336,110.71z"/>
		<path fill="#FFFFFF" d="M76.957,107.153c0.033,0.029,0.065,0.059,0.099,0.087l0.016-0.033L76.957,107.153z"/>
		
			<rect x="74.981" y="100.111" transform="matrix(0.9006 0.4347 -0.4347 0.9006 51.265 -22.9422)" fill="#FFFFFF" width="1.612" height="0.981"/>
		
			<rect x="75.825" y="98.34" transform="matrix(0.9009 0.434 -0.434 0.9009 50.4813 -23.4647)" fill="#FFFFFF" width="1.613" height="0.98"/>
		<path fill="#FFFFFF" d="M81.43,109.309l-0.305,0.632c0.462,0.244,0.943,0.483,1.443,0.719l0.314-0.651L81.43,109.309z"/>
		
			<rect x="76.177" y="105.047" transform="matrix(-0.9009 -0.4341 0.4341 -0.9009 100.5232 234.03)" fill="#FFFFFF" width="1.612" height="0.981"/>
		<path fill="#FFFFFF" d="M78.525,107.908l-0.172,0.356c0.422,0.3,0.884,0.593,1.363,0.884l0.261-0.54L78.525,107.908z"/>
		<path fill="#FFFFFF" d="M178.948,96.449l0.081-0.168c-0.404-0.329-0.854-0.651-1.324-0.97l-0.211,0.438L178.948,96.449z"/>
		<path fill="#FFFFFF" d="M167.4,90.688c-0.371-0.117-0.74-0.233-1.123-0.347l1.047,0.504L167.4,90.688z"/>
		<path fill="#FFFFFF" d="M176.041,95.048l0.289-0.597c-0.451-0.262-0.923-0.52-1.418-0.773l-0.324,0.67L176.041,95.048z"/>
		<path fill="#FFFFFF" d="M180.325,104.733l-0.425,0.883l0.758,0.366c0.226-0.263,0.428-0.528,0.609-0.795L180.325,104.733z"/>
		<path fill="#FFFFFF" d="M75.018,104.041l-0.588-0.284c0.098,0.26,0.213,0.519,0.352,0.775L75.018,104.041z"/>
		<path fill="#FFFFFF" d="M179.951,106.729l-0.479-0.23l-0.425,0.884l0.111,0.054C179.439,107.203,179.707,106.968,179.951,106.729z
			"/>
		<path fill="#FFFFFF" d="M182.314,101.338l-0.285-0.138l-0.426,0.883l0.717,0.346c0.018-0.171,0.043-0.342,0.043-0.515
			C182.363,101.721,182.337,101.529,182.314,101.338z"/>
		<path fill="#FFFFFF" d="M181.178,102.966l-0.426,0.884l1.012,0.488c0.149-0.302,0.266-0.608,0.359-0.916L181.178,102.966z"/>
		<path fill="#FFFFFF" d="M75.443,103.158l0.426-0.883l-1.453-0.701l-0.316,0.655c0.007,0.098,0.014,0.195,0.025,0.293
			L75.443,103.158z"/>
		
			<rect x="77.024" y="103.274" transform="matrix(0.9008 0.4343 -0.4343 0.9008 52.7918 -23.5054)" fill="#FFFFFF" width="1.612" height="0.981"/>
		<path fill="#FFFFFF" d="M170.229,92.247l0.244-0.503c-0.496-0.186-1.007-0.368-1.527-0.547l-0.17,0.35L170.229,92.247z"/>
		<path fill="#FFFFFF" d="M173.135,93.647l0.324-0.671c-0.477-0.217-0.971-0.432-1.48-0.642l-0.295,0.613L173.135,93.647z"/>
		<path fill="#FFFFFF" d="M157.754,88.411l0.059-0.122c-0.17-0.034-0.346-0.067-0.52-0.1L157.754,88.411z"/>
		<path fill="#FFFFFF" d="M160.66,89.811l0.402-0.833c-0.531-0.122-1.074-0.24-1.619-0.356l-0.236,0.488L160.66,89.811z"/>
		<path fill="#FFFFFF" d="M79.275,95.208L79.05,95.1c-0.323,0.21-0.636,0.423-0.931,0.639l0.73,0.352L79.275,95.208z"/>
		
			<rect x="176.279" y="105.405" transform="matrix(-0.9009 -0.4341 0.4341 -0.9009 290.6491 278.1655)" fill="#FFFFFF" width="1.613" height="0.981"/>
		
			<rect x="169.252" y="97.665" transform="matrix(0.9006 0.4346 -0.4346 0.9006 59.5514 -64.1481)" fill="#FFFFFF" width="1.611" height="0.981"/>
		
			<rect x="168.053" y="92.727" transform="matrix(0.9009 0.4341 -0.4341 0.9009 57.2035 -64.0596)" fill="#FFFFFF" width="1.613" height="0.979"/>
		
			<rect x="164.29" y="93.097" transform="matrix(0.9008 0.4343 -0.4343 0.9008 57.034 -62.4185)" fill="#FFFFFF" width="1.613" height="0.981"/>
		
			<rect x="170.117" y="95.902" transform="matrix(0.9004 0.435 -0.435 0.9004 58.9574 -64.7592)" fill="#FFFFFF" width="1.611" height="0.981"/>
		
			<rect x="165.147" y="91.335" transform="matrix(0.901 0.4338 -0.4338 0.901 56.2693 -62.9058)" fill="#FFFFFF" width="1.613" height="0.981"/>
		
			<rect x="167.207" y="94.488" transform="matrix(0.9011 0.4336 -0.4336 0.9011 57.8009 -63.4603)" fill="#FFFFFF" width="1.615" height="0.98"/>
		
			<rect x="166.343" y="96.264" transform="matrix(0.9008 0.4343 -0.4343 0.9008 58.6131 -62.9962)" fill="#FFFFFF" width="1.613" height="0.981"/>
		
			<rect x="170.965" y="94.122" transform="matrix(0.9009 0.4341 -0.4341 0.9009 58.0995 -65.1865)" fill="#FFFFFF" width="1.614" height="0.98"/>
		
			<rect x="175.436" y="107.165" transform="matrix(-0.9009 -0.4341 0.4341 -0.9009 288.2823 281.1446)" fill="#FFFFFF" width="1.613" height="0.981"/>
		
			<rect x="172.162" y="99.06" transform="matrix(0.9009 0.4341 -0.4341 0.9009 60.3602 -65.2153)" fill="#FFFFFF" width="1.613" height="0.981"/>
		
			<rect x="174.232" y="102.232" transform="matrix(-0.9008 -0.4343 0.4343 -0.9008 288.09 271.2753)" fill="#FFFFFF" width="1.613" height="0.981"/>
		
			<rect x="173.375" y="103.993" transform="matrix(-0.901 -0.4338 0.4338 -0.901 285.788 274.1888)" fill="#FFFFFF" width="1.613" height="0.981"/>
		
			<rect x="173.028" y="97.297" transform="matrix(0.9006 0.4346 -0.4346 0.9006 59.7683 -65.8268)" fill="#FFFFFF" width="1.612" height="0.981"/>
		
			<rect x="173.861" y="95.533" transform="matrix(0.9009 0.4341 -0.4341 0.9009 58.9956 -66.3008)" fill="#FFFFFF" width="1.612" height="0.98"/>
		<path fill="#FFFFFF" d="M151.188,87.176c-0.233-0.033-0.474-0.064-0.709-0.096l0.613,0.296L151.188,87.176z"/>
		
			<rect x="77.873" y="101.507" transform="matrix(0.9008 0.4343 -0.4343 0.9008 52.1099 -24.0501)" fill="#FFFFFF" width="1.613" height="0.981"/>
		<path fill="#FFFFFF" d="M145.881,87.041l1.453,0.7l0.426-0.883l-0.33-0.16c-0.436-0.049-0.873-0.097-1.313-0.144L145.881,87.041z"
			/>
		
			<rect x="156.777" y="93.828" transform="matrix(0.9006 0.4346 -0.4346 0.9006 56.6444 -59.1084)" fill="#FFFFFF" width="1.611" height="0.981"/>
		
			<rect x="155.582" y="88.897" transform="matrix(0.9012 0.4334 -0.4334 0.9012 54.1863 -58.9444)" fill="#FFFFFF" width="1.615" height="0.979"/>
		
			<rect x="78.725" y="99.741" transform="matrix(0.9008 0.4343 -0.4343 0.9008 51.4274 -24.5954)" fill="#FFFFFF" width="1.613" height="0.981"/>
		
			<rect x="163.438" y="94.865" transform="matrix(0.9008 0.4343 -0.4343 0.9008 57.7169 -61.873)" fill="#FFFFFF" width="1.613" height="0.981"/>
		
			<rect x="79.585" y="97.981" transform="matrix(-0.9009 -0.4341 0.4341 -0.9009 110.0692 222.0781)" fill="#FFFFFF" width="1.613" height="0.98"/>
		
			<rect x="161.391" y="91.691" transform="matrix(0.9009 0.4341 -0.4341 0.9009 56.0934 -61.2701)" fill="#FFFFFF" width="1.613" height="0.981"/>
		
			<rect x="162.236" y="89.93" transform="matrix(0.9008 0.4343 -0.4343 0.9008 55.4529 -61.8398)" fill="#FFFFFF" width="1.612" height="0.981"/>
		
			<rect x="160.532" y="93.464" transform="matrix(0.9008 0.4343 -0.4343 0.9008 56.8201 -60.75)" fill="#FFFFFF" width="1.613" height="0.981"/>
		
			<rect x="158.485" y="90.291" transform="matrix(0.9009 0.4341 -0.4341 0.9009 55.1974 -60.1476)" fill="#FFFFFF" width="1.613" height="0.98"/>
		
			<rect x="159.688" y="95.224" transform="matrix(0.9009 0.4341 -0.4341 0.9009 57.4585 -60.1805)" fill="#FFFFFF" width="1.613" height="0.981"/>
		
			<rect x="157.647" y="92.06" transform="matrix(0.9006 0.4346 -0.4346 0.9006 55.9624 -59.6617)" fill="#FFFFFF" width="1.611" height="0.981"/>
		
			<rect x="89.512" y="107.115" transform="matrix(-0.9008 -0.4343 0.4343 -0.9008 124.9365 243.7598)" fill="#FFFFFF" width="1.613" height="0.981"/>
		
			<rect x="113.259" y="109.854" transform="matrix(-0.9009 -0.4341 0.4341 -0.9009 168.9248 259.2643)" fill="#FFFFFF" width="1.612" height="0.981"/>
		
			<rect x="112.391" y="111.617" transform="matrix(-0.9006 -0.4346 0.4346 -0.9006 166.4283 262.2679)" fill="#FFFFFF" width="1.612" height="0.981"/>
		
			<rect x="111.549" y="113.389" transform="matrix(-0.9009 -0.4341 0.4341 -0.9009 164.1399 265.2423)" fill="#FFFFFF" width="1.613" height="0.98"/>
		
			<rect x="116.166" y="111.254" transform="matrix(-0.9007 -0.4345 0.4345 -0.9007 173.7801 263.2112)" fill="#FFFFFF" width="1.613" height="0.981"/>
		
			<rect x="114.462" y="114.788" transform="matrix(-0.9008 -0.4343 0.4343 -0.9008 169.0276 269.1802)" fill="#FFFFFF" width="1.612" height="0.981"/>
		
			<rect x="117.369" y="116.188" transform="matrix(-0.9008 -0.4343 0.4343 -0.9008 173.9445 273.1039)" fill="#FFFFFF" width="1.613" height="0.98"/>
		
			<rect x="115.307" y="113.024" transform="matrix(-0.9009 -0.4341 0.4341 -0.9009 171.4422 266.1784)" fill="#FFFFFF" width="1.613" height="0.98"/>
		
			<rect x="110.343" y="108.459" transform="matrix(-0.901 -0.4339 0.4339 -0.901 164.0266 255.3328)" fill="#FFFFFF" width="1.615" height="0.98"/>
		
			<rect x="105.394" y="103.884" transform="matrix(-0.9009 -0.4341 0.4341 -0.9009 156.565 244.5027)" fill="#FFFFFF" width="1.613" height="0.98"/>
		
			<rect x="158.338" y="105.457" transform="matrix(0.9009 0.4341 -0.4341 0.9009 61.7647 -58.5791)" fill="#FFFFFF" width="1.612" height="0.98"/>
		
			<rect x="104.535" y="105.654" transform="matrix(-0.9009 -0.4341 0.4341 -0.9009 154.1642 247.4935)" fill="#FFFFFF" width="1.613" height="0.98"/>
		
			<rect x="107.448" y="107.052" transform="matrix(-0.9007 -0.4344 0.4344 -0.9007 159.0363 251.4365)" fill="#FFFFFF" width="1.612" height="0.981"/>
		
			<rect x="108.3" y="105.285" transform="matrix(-0.9009 -0.4341 0.4341 -0.9009 161.4813 248.4272)" fill="#FFFFFF" width="1.613" height="0.98"/>
		
			<rect x="103.691" y="107.418" transform="matrix(-0.9009 -0.4341 0.4341 -0.9009 151.7941 250.4806)" fill="#FFFFFF" width="1.613" height="0.981"/>
		
			<rect x="109.145" y="103.522" transform="matrix(-0.9009 -0.4341 0.4341 -0.9009 163.8535 245.4424)" fill="#FFFFFF" width="1.614" height="0.98"/>
		
			<rect x="162.959" y="103.33" transform="matrix(0.9005 0.4348 -0.4348 0.9005 61.4328 -60.8785)" fill="#FFFFFF" width="1.611" height="0.98"/>
		
			<rect x="163.289" y="110.03" transform="matrix(0.9006 0.4346 -0.4346 0.9006 64.3338 -60.3293)" fill="#FFFFFF" width="1.612" height="0.98"/>
		
			<rect x="162.109" y="105.095" transform="matrix(0.9005 0.4348 -0.4348 0.9005 62.1143 -60.3323)" fill="#FFFFFF" width="1.61" height="0.981"/>
		
			<rect x="162.458" y="111.798" transform="matrix(-0.9008 -0.4343 0.4343 -0.9008 261.556 284.3411)" fill="#FFFFFF" width="1.612" height="0.98"/>
		
			<rect x="161.256" y="106.863" transform="matrix(0.9005 0.4348 -0.4348 0.9005 62.7996 -59.7865)" fill="#FFFFFF" width="1.611" height="0.981"/>
		
			<rect x="159.186" y="103.691" transform="matrix(0.9008 0.4343 -0.4343 0.9008 61.1285 -59.1503)" fill="#FFFFFF" width="1.613" height="0.981"/>
		
			<rect x="160.383" y="108.629" transform="matrix(0.9008 0.4343 -0.4343 0.9008 63.3923 -59.1801)" fill="#FFFFFF" width="1.613" height="0.981"/>
		<path fill="#FFFFFF" d="M161.891,113.262l-0.428,0.883l0.85,0.409c0.285-0.07,0.566-0.141,0.849-0.212l0.183-0.38L161.891,113.262
			z"/>
		
			<rect x="118.213" y="114.425" transform="matrix(-0.9009 -0.4341 0.4341 -0.9009 176.3579 270.1032)" fill="#FFFFFF" width="1.613" height="0.98"/>
		
			<rect x="121.125" y="115.823" transform="matrix(-0.9008 -0.4343 0.4343 -0.9008 181.2442 274.0405)" fill="#FFFFFF" width="1.612" height="0.98"/>
		
			<rect x="119.072" y="112.655" transform="matrix(-0.9009 -0.4341 0.4341 -0.9009 178.759 267.113)" fill="#FFFFFF" width="1.613" height="0.98"/>
		
			<rect x="119.916" y="110.891" transform="matrix(-0.9009 -0.4341 0.4341 -0.9009 181.1291 264.1264)" fill="#FFFFFF" width="1.613" height="0.98"/>
		<path fill="#FFFFFF" d="M124.316,116.92l-0.427,0.883l0.717,0.346c0.3,0.006,0.597,0.015,0.898,0.02l0.264-0.548L124.316,116.92z"
			/>
		<path fill="#FFFFFF" d="M130.979,117.955l-0.103,0.213c0.176-0.002,0.349-0.007,0.524-0.01L130.979,117.955z"/>
		
			<rect x="106.598" y="108.819" transform="matrix(-0.9008 -0.4342 0.4342 -0.9008 156.692 254.4107)" fill="#FFFFFF" width="1.613" height="0.98"/>
		<path fill="#FFFFFF" d="M96.748,88.675c-0.385,0.083-0.771,0.166-1.15,0.251l0.836,0.402L96.748,88.675z"/>
		
			<rect x="130.127" y="89.693" transform="matrix(0.9009 0.4341 -0.4341 0.9009 52.1271 -47.8969)" fill="#FFFFFF" width="1.613" height="0.981"/>
		
			<rect x="128.069" y="86.522" transform="matrix(0.9007 0.4345 -0.4345 0.9007 50.6007 -47.3495)" fill="#FFFFFF" width="1.613" height="0.981"/>
		<path fill="#FFFFFF" d="M125.039,85.702l1.453,0.701l0.363-0.752c-0.603,0.004-1.204,0.009-1.801,0.02L125.039,85.702z"/>
		
			<rect x="130.992" y="87.922" transform="matrix(0.9006 0.4346 -0.4346 0.9006 51.5158 -48.4899)" fill="#FFFFFF" width="1.611" height="0.981"/>
		<path fill="#FFFFFF" d="M117.525,86.434l1.453,0.7l0.426-0.883l-0.733-0.353c-0.304,0.016-0.608,0.031-0.911,0.049L117.525,86.434
			z"/>
		<path fill="#FFFFFF" d="M122.735,86.768l0.426-0.883l-0.341-0.164c-0.469,0.014-0.931,0.033-1.395,0.051l-0.144,0.295
			L122.735,86.768z"/>
		
			<rect x="129.272" y="91.455" transform="matrix(0.9009 0.4341 -0.4341 0.9009 52.8071 -47.3511)" fill="#FFFFFF" width="1.613" height="0.981"/>
		
			<rect x="136.286" y="99.189" transform="matrix(0.9006 0.4346 -0.4346 0.9006 56.9399 -49.6719)" fill="#FFFFFF" width="1.612" height="0.981"/>
		
			<rect x="137.147" y="97.419" transform="matrix(0.9009 0.4341 -0.4341 0.9009 56.1752 -50.1771)" fill="#FFFFFF" width="1.612" height="0.981"/>
		
			<rect x="102.487" y="102.484" transform="matrix(-0.9009 -0.4341 0.4341 -0.9009 151.6476 240.5809)" fill="#FFFFFF" width="1.613" height="0.981"/>
		
			<rect x="133.881" y="89.323" transform="matrix(0.9008 0.4343 -0.4343 0.9008 52.3765 -49.5856)" fill="#FFFFFF" width="1.613" height="0.981"/>
		
			<rect x="133.035" y="91.085" transform="matrix(0.9009 0.4341 -0.4341 0.9009 53.0195 -49.0214)" fill="#FFFFFF" width="1.613" height="0.98"/>
		
			<rect x="131.828" y="86.155" transform="matrix(0.9006 0.4346 -0.4346 0.9006 50.8312 -49.0287)" fill="#FFFFFF" width="1.611" height="0.981"/>
		
			<rect x="135.083" y="94.257" transform="matrix(0.9008 0.4343 -0.4343 0.9008 54.6386 -49.6181)" fill="#FFFFFF" width="1.613" height="0.98"/>
		
			<rect x="98.723" y="102.852" transform="matrix(-0.9009 -0.4341 0.4341 -0.9009 144.333 239.6449)" fill="#FFFFFF" width="1.613" height="0.98"/>
		
			<rect x="97.873" y="104.62" transform="matrix(-0.9009 -0.4341 0.4341 -0.9009 141.9495 242.636)" fill="#FFFFFF" width="1.614" height="0.98"/>
		
			<rect x="99.932" y="107.784" transform="matrix(-0.9008 -0.4343 0.4343 -0.9008 144.4522 249.5566)" fill="#FFFFFF" width="1.613" height="0.981"/>
		
			<rect x="96.67" y="99.686" transform="matrix(-0.9009 -0.4341 0.4341 -0.9009 141.8044 232.7347)" fill="#FFFFFF" width="1.614" height="0.98"/>
		
			<rect x="100.783" y="106.018" transform="matrix(-0.9008 -0.4343 0.4343 -0.9008 146.8371 246.5689)" fill="#FFFFFF" width="1.613" height="0.981"/>
		
			<rect x="101.632" y="104.246" transform="matrix(-0.901 -0.4337 0.4337 -0.901 149.3146 243.5379)" fill="#FFFFFF" width="1.613" height="0.98"/>
		
			<rect x="94.27" y="89.814" transform="matrix(-0.9009 -0.4341 0.4341 -0.9009 141.5272 212.929)" fill="#FFFFFF" width="1.613" height="0.981"/>
		
			<rect x="92.877" y="93.032" transform="matrix(0.4344 -0.9007 0.9007 0.4344 -31.7143 137.1688)" fill="#FFFFFF" width="0.981" height="1.613"/>
		
			<rect x="93.409" y="91.575" transform="matrix(0.9009 0.4341 -0.4341 0.9009 49.3043 -31.7713)" fill="#FFFFFF" width="1.613" height="0.981"/>
		
			<rect x="92.918" y="100.049" transform="matrix(-0.9008 -0.4342 0.4342 -0.9008 134.4984 231.8009)" fill="#FFFFFF" width="1.613" height="0.98"/>
		
			<rect x="94.619" y="96.511" transform="matrix(-0.901 -0.4338 0.4338 -0.901 139.3202 225.7971)" fill="#FFFFFF" width="1.613" height="0.979"/>
		
			<rect x="95.472" y="94.749" transform="matrix(-0.9008 -0.4343 0.4343 -0.9008 141.6354 222.8424)" fill="#FFFFFF" width="1.612" height="0.981"/>
		
			<rect x="93.756" y="98.279" transform="matrix(-0.9006 -0.4347 0.4347 -0.9006 136.7877 228.8244)" fill="#FFFFFF" width="1.612" height="0.981"/>
		
			<rect x="89.154" y="100.416" transform="matrix(-0.9009 -0.4341 0.4341 -0.9009 127.2006 230.8595)" fill="#FFFFFF" width="1.613" height="0.98"/>
		
			<rect x="94.971" y="103.216" transform="matrix(-0.9008 -0.4343 0.4343 -0.9008 137.0067 238.7183)" fill="#FFFFFF" width="1.612" height="0.98"/>
		
			<rect x="94.12" y="104.982" transform="matrix(-0.9008 -0.4343 0.4343 -0.9008 134.6218 241.7066)" fill="#FFFFFF" width="1.612" height="0.981"/>
		
			<rect x="157.499" y="107.228" transform="matrix(0.9006 0.4346 -0.4346 0.9006 62.541 -58.0914)" fill="#FFFFFF" width="1.612" height="0.981"/>
		
			<rect x="98.229" y="111.317" transform="matrix(-0.9009 -0.4341 0.4341 -0.9009 139.7199 255.5221)" fill="#FFFFFF" width="1.613" height="0.981"/>
		
			<rect x="92.061" y="101.817" transform="matrix(-0.9009 -0.4341 0.4341 -0.9009 132.1181 234.7852)" fill="#FFFFFF" width="1.613" height="0.98"/>
		
			<rect x="95.817" y="101.453" transform="matrix(-0.9009 -0.4341 0.4341 -0.9009 139.4175 235.7223)" fill="#FFFFFF" width="1.612" height="0.98"/>
		
			<rect x="97.015" y="106.387" transform="matrix(-0.901 -0.4339 0.4339 -0.901 139.5882 245.6124)" fill="#FFFFFF" width="1.614" height="0.98"/>
		<path fill="#FFFFFF" d="M122.012,117.987l-1.453-0.701l-0.35,0.724c0.582,0.026,1.17,0.047,1.759,0.067L122.012,117.987z"/>
		
			<rect x="87.45" y="103.95" transform="matrix(-0.9009 -0.4341 0.4341 -0.9009 122.4284 236.839)" fill="#FFFFFF" width="1.613" height="0.981"/>
		
			<rect x="88.309" y="102.181" transform="matrix(-0.9008 -0.4343 0.4343 -0.9008 124.7921 233.8591)" fill="#FFFFFF" width="1.613" height="0.981"/>
		
			<rect x="85.892" y="92.308" transform="matrix(0.901 0.4339 -0.4339 0.901 48.8452 -28.4259)" fill="#FFFFFF" width="1.614" height="0.981"/>
		
			<rect x="85.05" y="94.078" transform="matrix(0.9006 0.4347 -0.4347 0.9006 49.6437 -27.919)" fill="#FFFFFF" width="1.612" height="0.981"/>
		
			<rect x="99.073" y="109.553" transform="matrix(-0.9009 -0.434 0.434 -0.9009 142.1086 252.5304)" fill="#FFFFFF" width="1.613" height="0.981"/>
		
			<rect x="90.357" y="105.35" transform="matrix(-0.9009 -0.4341 0.4341 -0.9009 127.3449 240.7625)" fill="#FFFFFF" width="1.613" height="0.981"/>
		
			<rect x="91.215" y="103.582" transform="matrix(-0.9009 -0.4341 0.4341 -0.9009 129.7445 237.7724)" fill="#FFFFFF" width="1.613" height="0.98"/>
		
			<rect x="108.648" y="111.981" transform="matrix(-0.901 -0.4338 0.4338 -0.901 159.2765 261.2929)" fill="#FFFFFF" width="1.613" height="0.98"/>
		
			<rect x="107.784" y="113.749" transform="matrix(-0.9006 -0.4347 0.4347 -0.9006 156.7251 264.3238)" fill="#FFFFFF" width="1.612" height="0.981"/>
		
			<rect x="109.496" y="110.223" transform="matrix(-0.9008 -0.4343 0.4343 -0.9008 161.5714 258.3454)" fill="#FFFFFF" width="1.613" height="0.98"/>
		
			<rect x="110.699" y="115.155" transform="matrix(-0.901 -0.4339 0.4339 -0.901 161.7974 268.2172)" fill="#FFFFFF" width="1.614" height="0.981"/>
		
			<rect x="100.277" y="114.488" transform="matrix(-0.9009 -0.4341 0.4341 -0.9009 142.2369 262.4377)" fill="#FFFFFF" width="1.613" height="0.981"/>
		<path fill="#FFFFFF" d="M116.721,117.817c0.166,0.011,0.328,0.024,0.494,0.034l-0.414-0.2L116.721,117.817z"/>
		
			<rect x="106.941" y="115.522" transform="matrix(-0.9009 -0.4341 0.4341 -0.9009 154.4552 267.2953)" fill="#FFFFFF" width="1.613" height="0.98"/>
		
			<rect x="101.987" y="110.952" transform="matrix(-0.9008 -0.4343 0.4343 -0.9008 146.9825 256.4713)" fill="#FFFFFF" width="1.613" height="0.981"/>
		
			<rect x="101.136" y="112.718" transform="matrix(-0.9009 -0.4341 0.4341 -0.9009 144.6362 259.4466)" fill="#FFFFFF" width="1.613" height="0.981"/>
		
			<rect x="102.832" y="109.187" transform="matrix(-0.9009 -0.4341 0.4341 -0.9009 149.3935 253.4705)" fill="#FFFFFF" width="1.613" height="0.98"/>
		
			<rect x="104.893" y="112.353" transform="matrix(-0.9008 -0.4343 0.4343 -0.9008 151.8977 260.3961)" fill="#FFFFFF" width="1.613" height="0.981"/>
		
			<rect x="105.743" y="110.586" transform="matrix(-0.9009 -0.4341 0.4341 -0.9009 154.3211 257.3923)" fill="#FFFFFF" width="1.612" height="0.98"/>
		
			<rect x="104.04" y="114.113" transform="matrix(-0.901 -0.4338 0.4338 -0.901 149.5911 263.3462)" fill="#FFFFFF" width="1.613" height="0.981"/>
		
			<rect x="93.268" y="106.749" transform="matrix(-0.9008 -0.4343 0.4343 -0.9008 132.2347 244.6953)" fill="#FFFFFF" width="1.612" height="0.981"/>
		
			<rect x="147.562" y="98.09" transform="matrix(0.9009 0.4341 -0.4341 0.9009 57.5016 -54.6341)" fill="#FFFFFF" width="1.614" height="0.979"/>
		
			<rect x="148.416" y="96.323" transform="matrix(0.9009 0.4341 -0.4341 0.9009 56.8176 -55.1786)" fill="#FFFFFF" width="1.613" height="0.979"/>
		
			<rect x="150.477" y="99.498" transform="matrix(0.9005 0.4348 -0.4348 0.9005 58.5247 -55.8325)" fill="#FFFFFF" width="1.611" height="0.98"/>
		
			<rect x="149.265" y="94.555" transform="matrix(0.9007 0.4343 -0.4343 0.9007 56.1773 -55.7491)" fill="#FFFFFF" width="1.614" height="0.981"/>
		
			<rect x="143.449" y="91.759" transform="matrix(0.9008 0.4343 -0.4343 0.9008 54.3843 -53.4997)" fill="#FFFFFF" width="1.613" height="0.981"/>
		
			<rect x="145.51" y="94.921" transform="matrix(0.9009 0.4341 -0.4341 0.9009 55.9214 -54.0562)" fill="#FFFFFF" width="1.613" height="0.981"/>
		
			<rect x="87.096" y="97.242" transform="matrix(0.9009 0.4341 -0.4341 0.9009 51.138 -28.4694)" fill="#FFFFFF" width="1.613" height="0.98"/>
		
			<rect x="144.308" y="89.988" transform="matrix(0.9009 0.4341 -0.4341 0.9009 53.6606 -54.0234)" fill="#FFFFFF" width="1.613" height="0.981"/>
		
			<rect x="154.222" y="99.128" transform="matrix(0.9006 0.4346 -0.4346 0.9006 58.6934 -57.4715)" fill="#FFFFFF" width="1.611" height="0.98"/>
		
			<rect x="155.087" y="97.365" transform="matrix(0.9005 0.4348 -0.4348 0.9005 58.0545 -58.0481)" fill="#FFFFFF" width="1.61" height="0.981"/>
		
			<rect x="156.274" y="102.296" transform="matrix(0.9009 0.4341 -0.4341 0.9009 60.1894 -57.9976)" fill="#FFFFFF" width="1.613" height="0.98"/>
		
			<rect x="151.317" y="97.727" transform="matrix(0.9008 0.4343 -0.4343 0.9008 57.7556 -56.3237)" fill="#FFFFFF" width="1.612" height="0.98"/>
		
			<rect x="153.381" y="100.885" transform="matrix(0.901 0.4339 -0.4339 0.901 59.2489 -56.857)" fill="#FFFFFF" width="1.614" height="0.981"/>
		
			<rect x="152.167" y="95.961" transform="matrix(0.9006 0.4346 -0.4346 0.9006 57.1148 -56.8941)" fill="#FFFFFF" width="1.612" height="0.981"/>
		
			<rect x="146.713" y="99.854" transform="matrix(0.9009 0.4341 -0.4341 0.9009 58.1821 -54.0894)" fill="#FFFFFF" width="1.613" height="0.981"/>
		<path fill="#FFFFFF" d="M92.705,89.636c-0.033,0.008-0.066,0.017-0.098,0.025l0.068,0.033L92.705,89.636z"/>
		<path fill="#FFFFFF" d="M130.434,85.657c-0.328-0.004-0.658-0.005-0.986-0.007l0.804,0.387L130.434,85.657z"/>
		
			<rect x="134.737" y="87.561" transform="matrix(0.901 0.4338 -0.4338 0.901 51.6208 -50.0865)" fill="#FFFFFF" width="1.613" height="0.981"/>
		
			<rect x="135.942" y="92.486" transform="matrix(0.9009 0.4341 -0.4341 0.9009 53.9155 -50.1441)" fill="#FFFFFF" width="1.613" height="0.98"/>
		
			<rect x="88.808" y="93.713" transform="matrix(-0.9009 -0.4341 0.4341 -0.9009 129.4535 217.9706)" fill="#FFFFFF" width="1.613" height="0.981"/>
		
			<rect x="142.246" y="86.825" transform="matrix(0.9009 0.4341 -0.4341 0.9009 52.0834 -53.442)" fill="#FFFFFF" width="1.613" height="0.981"/>
		
			<rect x="87.948" y="95.474" transform="matrix(0.9009 0.4341 -0.4341 0.9009 50.4555 -29.0145)" fill="#FFFFFF" width="1.613" height="0.981"/>
		
			<rect x="136.785" y="90.724" transform="matrix(0.9008 0.4343 -0.4343 0.9008 53.2729 -50.708)" fill="#FFFFFF" width="1.613" height="0.98"/>
		
			<rect x="139.711" y="92.123" transform="matrix(0.9006 0.4346 -0.4346 0.9006 54.2094 -51.8626)" fill="#FFFFFF" width="1.612" height="0.981"/>
		
			<rect x="141.401" y="88.587" transform="matrix(0.9009 0.4341 -0.4341 0.9009 52.7644 -52.9007)" fill="#FFFFFF" width="1.613" height="0.981"/>
		
			<rect x="140.543" y="90.358" transform="matrix(0.9008 0.4343 -0.4343 0.9008 53.4875 -52.3766)" fill="#FFFFFF" width="1.613" height="0.981"/>
		
			<rect x="138.488" y="87.191" transform="matrix(0.9008 0.4343 -0.4343 0.9008 51.9076 -51.7984)" fill="#FFFFFF" width="1.613" height="0.98"/>
		
			<rect x="137.649" y="88.948" transform="matrix(0.901 0.4339 -0.4339 0.901 52.5124 -51.2134)" fill="#FFFFFF" width="1.614" height="0.981"/>
	</g>
	<path fill="#FFFFFF" d="M123.484,75.291c-1.977,0.168-3.982,0.242-6.033,0.242c-24.234,0-43.887-10.846-43.887-24.235
		c0-6.737,4.971-12.822,12.989-17.215c-4.257,4.057-6.685,8.775-6.685,13.81C79.869,61.943,98.881,73.557,123.484,75.291z"/>
</g>
</svg>
