<?xml version="1.0" encoding="utf-8"?>
<!-- Generator: Adobe Illustrator 15.0.0, SVG Export Plug-In . SVG Version: 6.00 Build 0)  -->
<!DOCTYPE svg PUBLIC "-//W3C//DTD SVG 1.1//EN" "http://www.w3.org/Graphics/SVG/1.1/DTD/svg11.dtd">
<svg version="1.1" id="Calque_1" xmlns="http://www.w3.org/2000/svg" xmlns:xlink="http://www.w3.org/1999/xlink" x="0px" y="0px"
	 width="256px" height="256px" viewBox="0 0 256 256" enable-background="new 0 0 256 256" xml:space="preserve">
<g>
	<rect x="49.814" fill="#222454" width="158.5" height="8.068"/>
	<rect x="50.679" y="11.042" fill="#222454" width="156.772" height="244.958"/>
	<rect x="58.171" y="17.959" fill="#FFFFFF" width="36.887" height="69.165"/>
	<rect x="58.171" y="95.769" fill="#FFFFFF" width="36.887" height="69.167"/>
	<rect x="110.621" y="17.959" fill="#FFFFFF" width="36.886" height="69.165"/>
	<rect x="110.621" y="95.769" fill="#FFFFFF" width="36.886" height="69.167"/>
	<rect x="160.768" y="17.959" fill="#FFFFFF" width="36.885" height="69.165"/>
	<rect x="160.768" y="95.769" fill="#FFFFFF" width="36.885" height="69.167"/>
	<rect x="58.171" y="171.852" fill="#FFFFFF" width="36.887" height="69.164"/>
	<rect x="160.768" y="171.852" fill="#FFFFFF" width="36.885" height="69.164"/>
	<rect x="105.433" y="177.037" fill="#FFFFFF" width="46.686" height="17.867"/>
	<rect x="105.433" y="199.805" fill="#FFFFFF" width="46.686" height="17.867"/>
	<rect x="105.433" y="223.146" fill="#FFFFFF" width="46.686" height="17.867"/>
	<path fill="#222454" d="M129.318,235.775c4.277,0,7.748-2.754,7.748-6.151h-15.496C121.571,233.021,125.04,235.775,129.318,235.775
		z"/>
	<path fill="#222454" d="M129.318,211.814c4.277,0,7.748-2.756,7.748-6.152h-15.496C121.571,209.059,125.04,211.814,129.318,211.814
		z"/>
	<path fill="#222454" d="M129.318,189.047c4.277,0,7.748-2.754,7.748-6.152h-15.496C121.571,186.293,125.04,189.047,129.318,189.047
		z"/>
	<path fill="#222454" d="M100.822,121.706c0,0.636-0.516,1.153-1.153,1.153l0,0c-0.636,0-1.151-0.517-1.151-1.153v-15.563
		c0-0.637,0.516-1.153,1.151-1.153l0,0c0.637,0,1.153,0.516,1.153,1.153V121.706z"/>
	<path fill="#222454" d="M107.739,121.706c0,0.636-0.517,1.153-1.153,1.153l0,0c-0.636,0-1.153-0.517-1.153-1.153v-15.563
		c0-0.637,0.517-1.153,1.153-1.153l0,0c0.636,0,1.153,0.516,1.153,1.153V121.706z"/>
	<path fill="#222454" d="M158.46,121.706c0,0.636-0.517,1.153-1.151,1.153l0,0c-0.639,0-1.154-0.517-1.154-1.153v-15.563
		c0-0.637,0.517-1.153,1.154-1.153l0,0c0.635,0,1.151,0.516,1.151,1.153V121.706z"/>
	<rect x="58.171" y="245.05" fill="#FFFFFF" width="139.481" height="7.57"/>
</g>
</svg>
