<?xml version="1.0" encoding="utf-8"?>
<!-- Generator: Adobe Illustrator 15.0.0, SVG Export Plug-In . SVG Version: 6.00 Build 0)  -->
<!DOCTYPE svg PUBLIC "-//W3C//DTD SVG 1.1//EN" "http://www.w3.org/Graphics/SVG/1.1/DTD/svg11.dtd">
<svg version="1.1" id="Calque_1" xmlns="http://www.w3.org/2000/svg" xmlns:xlink="http://www.w3.org/1999/xlink" x="0px" y="0px"
	 width="256px" height="256px" viewBox="0 0 256 256" enable-background="new 0 0 256 256" xml:space="preserve">
<g>
	<rect x="96.124" fill="#222454" width="62.599" height="8.07"/>
	<rect x="96.125" y="11.042" fill="#222454" width="62.598" height="244.958"/>
	<rect x="108.98" y="17.959" fill="#FFFFFF" width="36.886" height="69.165"/>
	<rect x="108.98" y="95.77" fill="#FFFFFF" width="36.886" height="69.164"/>
	<rect x="103.792" y="177.038" fill="#FFFFFF" width="46.687" height="17.867"/>
	<rect x="103.792" y="199.803" fill="#FFFFFF" width="46.687" height="17.868"/>
	<rect x="103.792" y="223.146" fill="#FFFFFF" width="46.687" height="17.867"/>
	<path fill="#222454" d="M127.678,235.775c4.276,0,7.747-2.754,7.747-6.15H119.93C119.93,233.021,123.398,235.775,127.678,235.775z"
		/>
	<path fill="#222454" d="M127.678,211.814c4.276,0,7.747-2.756,7.747-6.152H119.93C119.93,209.061,123.398,211.814,127.678,211.814z
		"/>
	<path fill="#222454" d="M127.678,189.048c4.276,0,7.747-2.755,7.747-6.151H119.93C119.93,186.293,123.398,189.048,127.678,189.048z
		"/>
	<rect x="103.792" y="245.051" fill="#FFFFFF" width="46.687" height="7.569"/>
</g>
</svg>
