<?xml version="1.0" encoding="utf-8"?>
<!-- Generator: Adobe Illustrator 15.0.0, SVG Export Plug-In . SVG Version: 6.00 Build 0)  -->
<!DOCTYPE svg PUBLIC "-//W3C//DTD SVG 1.1//EN" "http://www.w3.org/Graphics/SVG/1.1/DTD/svg11.dtd">
<svg version="1.1" id="Calque_1" xmlns="http://www.w3.org/2000/svg" xmlns:xlink="http://www.w3.org/1999/xlink" x="0px" y="0px"
	 width="256px" height="256px" viewBox="0 0 256 256" enable-background="new 0 0 256 256" xml:space="preserve">
<g>
	<rect x="65.943" fill="#222454" width="108.645" height="8.069"/>
	<rect x="67.096" y="11.043" fill="#222454" width="106.626" height="244.957"/>
	<rect x="76.895" y="17.959" fill="#FFFFFF" width="36.884" height="69.165"/>
	<rect x="76.895" y="95.77" fill="#FFFFFF" width="36.884" height="69.166"/>
	<rect x="127.04" y="17.959" fill="#FFFFFF" width="36.887" height="69.165"/>
	<rect x="127.04" y="95.77" fill="#FFFFFF" width="36.887" height="69.166"/>
	<rect x="71.706" y="177.038" fill="#FFFFFF" width="46.688" height="17.867"/>
	<rect x="71.706" y="199.803" fill="#FFFFFF" width="46.688" height="17.868"/>
	<rect x="71.706" y="223.148" fill="#FFFFFF" width="46.688" height="17.865"/>
	<path fill="#222454" d="M95.593,235.775c4.276,0,7.748-2.754,7.748-6.149H87.846C87.846,233.021,91.314,235.775,95.593,235.775z"/>
	<path fill="#222454" d="M95.593,211.814c4.276,0,7.748-2.756,7.748-6.151H87.846C87.846,209.061,91.314,211.814,95.593,211.814z"/>
	<path fill="#222454" d="M95.593,189.046c4.276,0,7.748-2.754,7.748-6.151H87.846C87.846,186.292,91.314,189.046,95.593,189.046z"/>
	<path fill="#FFFFFF" d="M118.012,100.706c0,0.636-0.517,1.152-1.153,1.152l0,0c-0.636,0-1.153-0.516-1.153-1.152V85.145
		c0-0.637,0.518-1.153,1.153-1.153l0,0c0.636,0,1.153,0.516,1.153,1.153V100.706z"/>
	<path fill="#FFFFFF" d="M124.732,100.706c0,0.636-0.516,1.152-1.152,1.152l0,0c-0.637,0-1.153-0.516-1.153-1.152V85.145
		c0-0.637,0.517-1.153,1.153-1.153l0,0c0.636,0,1.152,0.516,1.152,1.153V100.706z"/>
	<rect x="71.706" y="245.051" fill="#FFFFFF" width="97.198" height="7.569"/>
	<rect x="122.217" y="177.038" fill="#FFFFFF" width="46.688" height="17.867"/>
	<rect x="122.217" y="199.803" fill="#FFFFFF" width="46.688" height="17.868"/>
	<rect x="122.217" y="223.148" fill="#FFFFFF" width="46.688" height="17.865"/>
	<path fill="#222454" d="M146.104,235.775c4.275,0,7.748-2.754,7.748-6.149h-15.494
		C138.355,233.021,141.825,235.775,146.104,235.775z"/>
	<path fill="#222454" d="M146.104,211.814c4.275,0,7.748-2.756,7.748-6.151h-15.494
		C138.355,209.061,141.825,211.814,146.104,211.814z"/>
	<path fill="#222454" d="M146.104,189.046c4.275,0,7.748-2.754,7.748-6.151h-15.494
		C138.355,186.292,141.825,189.046,146.104,189.046z"/>
</g>
</svg>
