<?xml version="1.0" encoding="utf-8"?>
<!-- Generator: Adobe Illustrator 15.0.0, SVG Export Plug-In . SVG Version: 6.00 Build 0)  -->
<!DOCTYPE svg PUBLIC "-//W3C//DTD SVG 1.1//EN" "http://www.w3.org/Graphics/SVG/1.1/DTD/svg11.dtd">
<svg version="1.1" id="Calque_1" xmlns="http://www.w3.org/2000/svg" xmlns:xlink="http://www.w3.org/1999/xlink" x="0px" y="0px"
	 width="256px" height="256px" viewBox="0 0 256 256" enable-background="new 0 0 256 256" xml:space="preserve">
<g>
	<rect y="87.407" fill="#222454" width="256" height="27.186"/>
	<rect y="103.266" fill="#222454" width="36.245" height="129.134"/>
	<rect x="219.755" y="103.266" fill="#222454" width="36.245" height="129.134"/>
	<g>
		<g>
			<path fill="#222454" d="M164.725,111.439c0,3.804-3.088,8.271-7.01,9.59c-18.851,6.149-39.292,6.149-58.144,0
				c-3.921-1.319-7.013-5.786-7.013-9.59c0-23.462,0-46.924,0-70.386c0-3.802,3.091-8.27,7.013-9.589
				c18.852-6.149,39.293-6.149,58.144,0c3.922,1.319,7.01,5.787,7.01,9.589C164.725,64.515,164.725,87.977,164.725,111.439z"/>
			<path fill="#FCFCFC" d="M128.643,126.406c-9.99,0-19.849-1.565-29.311-4.65c-2.026-0.682-3.927-2.153-5.359-4.144
				c-1.385-1.928-2.179-4.177-2.179-6.174V41.053c0-1.995,0.794-4.245,2.179-6.172c1.432-1.991,3.333-3.462,5.354-4.142
				c9.467-3.088,19.326-4.652,29.315-4.652c9.986,0,19.851,1.564,29.313,4.649c2.027,0.683,3.928,2.153,5.359,4.145
				c1.386,1.927,2.178,4.177,2.178,6.172v70.386c0,1.997-0.792,4.246-2.178,6.174c-1.435,1.991-3.332,3.462-5.354,4.141
				C148.492,124.841,138.631,126.406,128.643,126.406z M128.643,27.618c-9.829,0-19.529,1.539-28.833,4.574
				c-3.512,1.182-6.484,5.24-6.484,8.861v70.386c0,3.622,2.972,7.681,6.492,8.864c9.297,3.034,18.998,4.572,28.829,4.572
				c9.828,0,19.527-1.539,28.836-4.576c3.513-1.18,6.479-5.239,6.479-8.86V41.053c0-3.621-2.969-7.68-6.486-8.863
				C148.172,29.157,138.471,27.618,128.643,27.618z"/>
		</g>
		<path fill="#222454" d="M186.092,172.314c0,3.857-3.238,6.985-7.232,6.985H78.428c-3.995,0-7.233-3.128-7.233-6.985v-11.7
			c0-3.858,3.239-6.986,7.233-6.986h100.429c3.994,0,7.231,3.128,7.231,6.986L186.092,172.314L186.092,172.314z"/>
		<g>
			<g>
				<path fill="#222454" d="M82.023,172.949c-2.793,1.213-5.59,2.428-8.384,3.64c-6.932-16.071-6.932-34.305,0-50.377
					c2.794,1.213,5.591,2.427,8.384,3.64C76.095,143.604,76.095,159.199,82.023,172.949z"/>
				<ellipse fill="#222454" cx="78.37" cy="123.434" rx="8.223" ry="8.253"/>
			</g>
			<g>
				<path fill="#222454" d="M175.262,172.949c2.795,1.213,5.592,2.428,8.385,3.64c6.935-16.071,6.935-34.305,0-50.377
					c-2.793,1.213-5.59,2.427-8.385,3.64C181.191,143.604,181.191,159.199,175.262,172.949z"/>
				<ellipse fill="#222454" cx="178.917" cy="123.434" rx="8.224" ry="8.253"/>
			</g>
		</g>
		<g>
			<rect x="118.196" y="160.725" fill="#222454" width="20.892" height="5.342"/>
			<rect x="118.196" y="152.473" fill="#222454" width="20.892" height="5.342"/>
			<rect x="118.196" y="144.22" fill="#222454" width="20.892" height="5.343"/>
			<rect x="118.196" y="195.566" fill="#222454" width="20.892" height="4.25"/>
			<rect x="118.196" y="135.968" fill="#222454" width="20.892" height="5.341"/>
			<rect x="118.196" y="178.059" fill="#222454" width="20.892" height="5.618"/>
			<rect x="118.196" y="202.729" fill="#222454" width="20.892" height="5.141"/>
			<rect x="118.196" y="124.426" fill="#222454" width="20.892" height="8.629"/>
			<rect x="118.196" y="168.977" fill="#222454" width="20.892" height="6.172"/>
			<rect x="118.196" y="186.587" fill="#222454" width="20.892" height="6.07"/>
		</g>
		<path fill="#222454" d="M167.573,225.652c-0.048,0-0.093,0.006-0.14,0.008l-4.879-10.512v-0.541H131.45v-7.362h-4.417v7.362
			H93.926v0.541l-4.89,10.537c-3.45,0.328-6.145,3.137-6.145,6.555c0,3.64,3.055,6.588,6.822,6.588s6.822-2.948,6.822-6.588
			c0-2.323-1.25-4.363-3.135-5.536l3.458-7.445h30.178v6.685c-2.786,0.828-4.815,3.334-4.815,6.3c0,3.64,3.054,6.588,6.822,6.588
			c3.77,0,6.824-2.948,6.824-6.588c0-2.818-1.838-5.22-4.415-6.157v-6.824h28.175l3.648,7.866c-1.541,1.208-2.526,3.05-2.526,5.115
			c0,3.64,3.054,6.588,6.823,6.588c3.767,0,6.822-2.948,6.822-6.588C174.396,228.602,171.34,225.652,167.573,225.652z"/>
	</g>
</g>
</svg>
