<?xml version="1.0" encoding="utf-8"?>
<!-- Generator: Adobe Illustrator 15.0.0, SVG Export Plug-In . SVG Version: 6.00 Build 0)  -->
<!DOCTYPE svg PUBLIC "-//W3C//DTD SVG 1.1//EN" "http://www.w3.org/Graphics/SVG/1.1/DTD/svg11.dtd">
<svg version="1.1" id="Calque_1" xmlns="http://www.w3.org/2000/svg" xmlns:xlink="http://www.w3.org/1999/xlink" x="0px" y="0px"
	 width="256px" height="256px" viewBox="0 0 256 256" enable-background="new 0 0 256 256" xml:space="preserve">
<g>
	<rect x="24.304" y="62.733" fill="#222454" width="207.393" height="43.747"/>
	<polygon fill="#222454" points="255.99,137.083 254.538,134.217 231.695,108.586 24.304,108.586 0,137.104 162.988,137.104 
		162.988,178.936 255.99,178.936 255.99,137.104 256,137.104 	"/>
	<rect x="7.454" y="153.629" fill="#222454" width="6.479" height="11.018"/>
	<rect x="169.154" y="175.342" fill="#222454" width="6.479" height="11.018"/>
	<rect x="244.334" y="175.342" fill="#222454" width="6.48" height="11.018"/>
	<rect y="139.371" fill="#222454" width="160.417" height="18.471"/>
</g>
<rect x="63.5" y="65.294" fill="#FFFFFF" width="1.063" height="38.625"/>
<rect x="60.409" y="110.658" transform="matrix(-0.9737 -0.2278 0.2278 -0.9737 92.2865 256.3995)" fill="#FFFFFF" width="1.063" height="24.432"/>
<rect x="104.829" y="111.044" transform="matrix(-0.9955 -0.0951 0.0951 -0.9955 198.5525 255.3577)" fill="#FFFFFF" width="1.063" height="23.807"/>
<rect x="106.5" y="65.294" fill="#FFFFFF" width="1.063" height="38.625"/>
<rect x="149.5" y="65.294" fill="#FFFFFF" width="1.063" height="38.625"/>
<rect x="149.5" y="111.294" fill="#FFFFFF" width="1.063" height="23.599"/>
<rect x="192.5" y="65.294" fill="#FFFFFF" width="1.063" height="38.625"/>
</svg>
