<?xml version="1.0" encoding="utf-8"?>
<!-- Generator: Adobe Illustrator 15.0.0, SVG Export Plug-In . SVG Version: 6.00 Build 0)  -->
<!DOCTYPE svg PUBLIC "-//W3C//DTD SVG 1.1//EN" "http://www.w3.org/Graphics/SVG/1.1/DTD/svg11.dtd">
<svg version="1.1" id="Calque_1" xmlns="http://www.w3.org/2000/svg" xmlns:xlink="http://www.w3.org/1999/xlink" x="0px" y="0px"
	 width="256px" height="256px" viewBox="0 0 256 256" enable-background="new 0 0 256 256" xml:space="preserve">
<g>
	<rect y="150.447" fill="#222454" width="255.716" height="12.088"/>
	<rect x="0.932" y="165.032" fill="#222454" width="4.649" height="15.808"/>
	<rect x="251.352" y="164.566" fill="#222454" width="4.648" height="15.808"/>
	<path fill="#222454" d="M87.872,145.977c0,1.186-0.957,2.146-2.144,2.146H3.544c-1.188,0-2.147-0.961-2.147-2.146v-18.956
		c0-1.185,0.96-2.146,2.147-2.146h82.184c1.187,0,2.144,0.96,2.144,2.146V145.977z"/>
	<path fill="#222454" d="M254.316,145.977c0,1.186-0.957,2.146-2.146,2.146h-82.185c-1.187,0-2.146-0.961-2.146-2.146v-18.956
		c0-1.185,0.96-2.146,2.146-2.146h82.185c1.188,0,2.146,0.96,2.146,2.146V145.977L254.316,145.977z"/>
	<path fill="#222454" d="M165.051,145.977c0,1.186-0.818,2.146-1.835,2.146H92.962c-1.013,0-1.834-0.961-1.834-2.146v-18.956
		c0-1.185,0.821-2.146,1.834-2.146h70.253c1.016,0,1.835,0.96,1.835,2.146L165.051,145.977L165.051,145.977z"/>
	<g>
		<path fill="#222454" d="M165.193,116.363c0,2.133-0.82,3.862-1.832,3.862H93.106c-1.015,0-1.836-1.729-1.836-3.862V82.244
			c0-2.133,0.821-3.862,1.836-3.862h70.255c1.012,0,1.832,1.729,1.832,3.862V116.363L165.193,116.363z"/>
		<path fill="#222454" d="M89.411,116.363c0,2.133-0.771,3.862-1.718,3.862H21.855c-0.95,0-1.719-1.729-1.719-3.862V82.244
			c0-2.133,0.769-3.862,1.719-3.862h65.837c0.948,0,1.718,1.729,1.718,3.862L89.411,116.363L89.411,116.363z"/>
		<path fill="#222454" d="M235.863,116.363c0,2.133-0.77,3.862-1.719,3.862h-65.836c-0.949,0-1.72-1.729-1.72-3.862V82.244
			c0-2.133,0.771-3.862,1.72-3.862h65.836c0.949,0,1.719,1.729,1.719,3.862V116.363L235.863,116.363z"/>
	</g>
	<path fill="#222454" d="M17.113,120.06c0,1.185-1.167,2.145-2.605,2.145H3.912c-1.438,0-2.605-0.96-2.605-2.145V96.92
		c0-1.185,1.167-2.146,2.605-2.146h10.596c1.438,0,2.605,0.961,2.605,2.146V120.06z"/>
	<path fill="#222454" d="M254.693,120.06c0,1.185-1.166,2.145-2.604,2.145h-10.598c-1.438,0-2.604-0.96-2.604-2.145V96.92
		c0-1.185,1.166-2.146,2.604-2.146h10.598c1.438,0,2.604,0.961,2.604,2.146V120.06L254.693,120.06z"/>
</g>
</svg>
