<?xml version="1.0" encoding="utf-8"?>
<!-- Generator: Adobe Illustrator 15.0.0, SVG Export Plug-In . SVG Version: 6.00 Build 0)  -->
<!DOCTYPE svg PUBLIC "-//W3C//DTD SVG 1.1//EN" "http://www.w3.org/Graphics/SVG/1.1/DTD/svg11.dtd">
<svg version="1.1" id="Calque_1" xmlns="http://www.w3.org/2000/svg" xmlns:xlink="http://www.w3.org/1999/xlink" x="0px" y="0px"
	 width="256px" height="256px" viewBox="0 0 256 256" enable-background="new 0 0 256 256" xml:space="preserve">
<path fill="#222454" d="M251.729,33.332c-0.253-0.754-0.884-1.318-1.662-1.485l-95.442-20.794c-0.775-0.171-1.577,0.078-2.122,0.651
	l-29.857,31.38L88.665,12.147c-0.707-0.643-1.741-0.773-2.581-0.332L7.196,53.29c-0.636,0.333-1.076,0.95-1.185,1.656
	c-0.111,0.709,0.118,1.427,0.622,1.94l32.344,32.911l-0.022,135.629c0,1.08,0.763,2.009,1.821,2.221l98.333,19.651
	c0.146,0.03,0.295,0.044,0.441,0.044c0.521,0,1.03-0.177,1.438-0.514c0.524-0.429,0.829-1.072,0.829-1.751v-130.27
	c0-1.082-0.767-2.014-1.829-2.223l-14.144-2.782V50.278l92.226,22.294l-68.482,38.925c-0.707,0.402-1.145,1.154-1.145,1.968v128.908
	c0,0.802,0.422,1.544,1.112,1.951c0.356,0.208,0.754,0.313,1.152,0.313c0.377,0,0.753-0.093,1.094-0.279l71.242-39.221
	c0.725-0.4,1.172-1.16,1.172-1.985l0.035-135.697l27.062-31.929C251.824,34.918,251.984,34.087,251.729,33.332 M119.909,108.631
	L45.777,94.038l74.132-42.412V108.631z M204.836,163.466c-0.071,0.721-0.487,1.358-1.118,1.712l-5.959,3.349l-0.093,23.54
	c-0.004,0.795-0.434,1.526-1.129,1.916l-11.396,6.396c-0.333,0.188-0.706,0.282-1.08,0.282c-0.387,0-0.773-0.102-1.12-0.304
	c-0.676-0.398-1.091-1.127-1.089-1.912l0.087-21.036l-3.883,2.178c-0.85,0.476-1.912,0.343-2.612-0.333
	c-0.699-0.674-0.877-1.729-0.437-2.596l12.903-25.276c0.309-0.603,0.874-1.029,1.538-1.162c0.663-0.132,1.349,0.046,1.862,0.486
	l12.757,10.868C204.62,162.04,204.907,162.749,204.836,163.466"/>
</svg>
