<?xml version="1.0" encoding="utf-8"?>
<!-- Generator: Adobe Illustrator 15.0.0, SVG Export Plug-In . SVG Version: 6.00 Build 0)  -->
<!DOCTYPE svg PUBLIC "-//W3C//DTD SVG 1.1//EN" "http://www.w3.org/Graphics/SVG/1.1/DTD/svg11.dtd">
<svg version="1.1" id="Calque_1" xmlns="http://www.w3.org/2000/svg" xmlns:xlink="http://www.w3.org/1999/xlink" x="0px" y="0px"
	 width="256px" height="256px" viewBox="0 0 256 256" enable-background="new 0 0 256 256" xml:space="preserve">
<path fill="#222454" d="M243.685,70.753c-0.196-1.129-0.943-2.086-1.987-2.556l-85.162-38.332c-1.238-0.557-2.693-0.338-3.711,0.565
	l-25.059,22.179l-25.058-22.179c-1.018-0.903-2.471-1.123-3.711-0.565L13.833,68.197c-1.046,0.47-1.791,1.427-1.987,2.556
	c-0.2,1.127,0.176,2.282,0.996,3.08l26.902,26.096l-15.168,26.779c-0.939,1.661-0.359,3.766,1.297,4.711l14.74,8.411v34.41
	c0,1.232,0.66,2.373,1.726,2.992l83.695,48.42c0.535,0.308,1.133,0.464,1.732,0.464c0.569,0,1.142-0.146,1.658-0.43
	c0,0.002-0.004,0.007-0.004,0.009l83.771-48.463c1.07-0.619,1.727-1.76,1.727-2.992v-34.41l14.742-8.411
	c1.655-0.945,2.234-3.05,1.295-4.711l-15.167-26.779l26.9-26.096C243.509,73.035,243.885,71.88,243.685,70.753 M158.663,124.446
	l-27.441-15.894V62.839l72.816,36.607L158.663,124.446z M51.492,99.446l72.815-36.607v45.713l-27.44,15.894L51.492,99.446z
	 M21.314,72.414L99.795,37.09l21.854,19.342L44.715,95.111L21.314,72.414z M32.294,127.119l13.103-23.134l77.179,42.52
	l-17.123,22.367L32.294,127.119z M124.307,216.66l-76.779-44.415v-28.466l57.118,32.6c0.539,0.306,1.127,0.453,1.713,0.453
	c1.045,0,2.072-0.474,2.748-1.355l15.2-19.852V216.66z M127.765,141.469l-23.826-13.125l23.826-13.801l23.827,13.801
	L127.765,141.469z M208,172.245l-76.778,44.415v-61.035l15.202,19.852c0.676,0.882,1.699,1.355,2.748,1.355
	c0.582,0,1.173-0.147,1.709-0.453l57.119-32.6V172.245z M223.238,127.119l-73.16,41.753l-17.124-22.367l77.181-42.52
	L223.238,127.119z M210.816,95.111l-76.936-38.679l21.853-19.342l78.481,35.324L210.816,95.111z"/>
</svg>
