<?xml version="1.0" encoding="utf-8"?>
<!-- Generator: Adobe Illustrator 15.0.0, SVG Export Plug-In . SVG Version: 6.00 Build 0)  -->
<!DOCTYPE svg PUBLIC "-//W3C//DTD SVG 1.1//EN" "http://www.w3.org/Graphics/SVG/1.1/DTD/svg11.dtd">
<svg version="1.1" id="Calque_1" xmlns="http://www.w3.org/2000/svg" xmlns:xlink="http://www.w3.org/1999/xlink" x="0px" y="0px"
	 width="256px" height="256px" viewBox="0 0 256 256" enable-background="new 0 0 256 256" xml:space="preserve">
<g>
	<polygon fill="#222454" points="182.628,256.001 182.628,256.001 182.628,148.105 197.708,148.105 197.708,256.001 	"/>
	<polygon fill="#222454" points="81.579,201.124 81.579,201.124 81.579,187.441 181.229,187.441 181.229,201.124 	"/>
	<polygon fill="#222454" points="81.579,169.874 81.579,169.874 81.579,149.195 181.229,149.195 181.229,169.874 	"/>
	<path fill="#222454" d="M93.236,133.177L93.236,133.177c8.183-2.792,23.189-5.078,45.008-6.837
		c21.818-1.76,38.143-1.219,48.972,1.631c10.831,2.849,16.246,9.304,16.246,19.354H80.955
		C80.955,140.689,85.046,135.98,93.236,133.177z"/>
	<path fill="#222454" d="M54.524,25.749C49.131,10.616,48.56,2.116,52.81,0.252c7.672-1.866,13.17,6.633,16.486,25.497
		c7.25,35.553,10.885,69.858,10.885,102.921v127.331H64.942l0.308-126.706C65.25,95.915,61.677,61.408,54.524,25.749z"/>
</g>
</svg>
