<?xml version="1.0" encoding="utf-8"?>
<!-- Generator: Adobe Illustrator 15.0.0, SVG Export Plug-In . SVG Version: 6.00 Build 0)  -->
<!DOCTYPE svg PUBLIC "-//W3C//DTD SVG 1.1//EN" "http://www.w3.org/Graphics/SVG/1.1/DTD/svg11.dtd">
<svg version="1.1" id="Calque_1" xmlns="http://www.w3.org/2000/svg" xmlns:xlink="http://www.w3.org/1999/xlink" x="0px" y="0px"
	 width="256px" height="256px" viewBox="0 0 256 256" enable-background="new 0 0 256 256" xml:space="preserve">
<g>
	<path fill="#222454" d="M77.159,65.133c2.272,6.501-0.109,13.245-5.323,15.063l-3.826,1.335c-5.207,1.818-11.271-1.979-13.536-8.48
		L34.857,16.853C32.59,10.351,34.974,3.608,40.186,1.79l3.827-1.335c5.207-1.817,11.269,1.979,13.536,8.481L77.159,65.133z"/>
	<g>
		<path fill="#222454" d="M48.463,32.682l7.833,37.611L204.395,256h13.315L60.997,32.682C60.997,32.682,53.163,25.63,48.463,32.682z
			"/>
		<polygon fill="#222454" points="143.227,124.752 172.214,124.752 72.704,256 61.731,256 		"/>
		<path fill="#222454" d="M220.626,117.463c0,6.148-4.979,11.13-11.13,11.13H84.657c-6.151,0-11.132-4.982-11.132-11.13v-2.405
			c0-6.147,4.981-11.132,11.132-11.132h124.839c6.15,0,11.13,4.984,11.13,11.132V117.463z"/>
	</g>
	<path fill="#FFFFFF" d="M139.43,154.591c0,1.75-1.422,3.17-3.17,3.17c-1.753,0-3.174-1.42-3.174-3.17
		c0-1.752,1.421-3.172,3.174-3.172C138.008,151.419,139.43,152.839,139.43,154.591z"/>
	<path fill="#FFFFFF" d="M60.671,42.1c0,1.751-1.417,3.17-3.169,3.17c-1.747,0-3.168-1.419-3.168-3.17
		c0-1.752,1.421-3.171,3.168-3.171C59.254,38.928,60.671,40.348,60.671,42.1z"/>
	<circle fill="#FFFFFF" cx="63.846" cy="69.328" r="3.174"/>
	<path fill="#FFFFFF" d="M63.844,53.828c0,1.751-1.421,3.17-3.173,3.17c-1.748,0-3.169-1.419-3.169-3.17
		c0-1.752,1.421-3.172,3.169-3.172C62.423,50.655,63.844,52.076,63.844,53.828z"/>
</g>
</svg>
