<?xml version="1.0" encoding="utf-8"?>
<!-- Generator: Adobe Illustrator 15.0.0, SVG Export Plug-In . SVG Version: 6.00 Build 0)  -->
<!DOCTYPE svg PUBLIC "-//W3C//DTD SVG 1.1//EN" "http://www.w3.org/Graphics/SVG/1.1/DTD/svg11.dtd">
<svg version="1.1" id="Calque_1" xmlns="http://www.w3.org/2000/svg" xmlns:xlink="http://www.w3.org/1999/xlink" x="0px" y="0px"
	 width="256px" height="256px" viewBox="0 0 256 256" enable-background="new 0 0 256 256" xml:space="preserve">
<g>
	<g>
		<rect x="0.049" y="59.834" fill="#222454" width="81.356" height="141.016"/>
		<circle fill="none" stroke="#FFFFFF" stroke-width="5" stroke-miterlimit="10" cx="40.727" cy="100.315" r="23.865"/>
		<circle fill="#FFFFFF" cx="40.727" cy="100.315" r="6.87"/>
		<circle fill="none" stroke="#FFFFFF" stroke-width="2" stroke-miterlimit="10" cx="40.727" cy="176.247" r="16.271"/>
		<circle fill="#FFFFFF" cx="40.727" cy="176.247" r="12.113"/>
	</g>
	<g>
		<rect x="174.693" y="59.834" fill="#222454" width="81.354" height="141.016"/>
		<circle fill="none" stroke="#FFFFFF" stroke-width="5" stroke-miterlimit="10" cx="215.371" cy="100.315" r="23.864"/>
		<circle fill="#FFFFFF" cx="215.371" cy="100.315" r="6.871"/>
		<circle fill="none" stroke="#FFFFFF" stroke-width="2" stroke-miterlimit="10" cx="215.371" cy="176.247" r="16.271"/>
		<circle fill="#FFFFFF" cx="215.371" cy="176.247" r="12.112"/>
	</g>
	<g>
		<rect x="90.625" y="102.862" fill="#222454" width="74.848" height="97.99"/>
		<rect x="99.574" y="111.163" fill="#FFFFFF" width="57.221" height="26.41"/>
		<rect x="99.574" y="188.361" fill="#FFFFFF" width="57.221" height="4.533"/>
		<circle fill="#FFFFFF" cx="147.717" cy="155.254" r="8.458"/>
		<circle fill="#FFFFFF" cx="105.412" cy="155.254" r="5.716"/>
		<rect x="99.988" y="169.573" fill="#FFFFFF" width="4.159" height="4.159"/>
		<rect x="107.582" y="169.573" fill="#FFFFFF" width="4.159" height="4.159"/>
		<rect x="115.175" y="169.573" fill="#FFFFFF" width="4.159" height="4.159"/>
		<rect x="122.768" y="169.573" fill="#FFFFFF" width="4.159" height="4.159"/>
		<rect x="130.361" y="169.573" fill="#FFFFFF" width="4.158" height="4.159"/>
		<rect x="137.954" y="169.573" fill="#FFFFFF" width="4.159" height="4.159"/>
		<rect x="145.548" y="169.573" fill="#FFFFFF" width="4.159" height="4.159"/>
		<rect x="153.141" y="169.573" fill="#FFFFFF" width="4.159" height="4.159"/>
		<rect x="99.988" y="178.251" fill="#FFFFFF" width="4.159" height="4.159"/>
		<rect x="107.582" y="178.251" fill="#FFFFFF" width="4.159" height="4.159"/>
		<rect x="115.175" y="178.251" fill="#FFFFFF" width="4.159" height="4.159"/>
		<rect x="122.768" y="178.251" fill="#FFFFFF" width="4.159" height="4.159"/>
		<rect x="130.361" y="178.251" fill="#FFFFFF" width="4.158" height="4.159"/>
		<rect x="137.954" y="178.251" fill="#FFFFFF" width="4.159" height="4.159"/>
		<rect x="145.548" y="178.251" fill="#FFFFFF" width="4.159" height="4.159"/>
		<rect x="153.141" y="178.251" fill="#FFFFFF" width="4.159" height="4.159"/>
	</g>
</g>
</svg>
