<?xml version="1.0" encoding="utf-8"?>
<!-- Generator: Adobe Illustrator 15.0.0, SVG Export Plug-In . SVG Version: 6.00 Build 0)  -->
<!DOCTYPE svg PUBLIC "-//W3C//DTD SVG 1.1//EN" "http://www.w3.org/Graphics/SVG/1.1/DTD/svg11.dtd">
<svg version="1.1" id="Calque_1" xmlns="http://www.w3.org/2000/svg" xmlns:xlink="http://www.w3.org/1999/xlink" x="0px" y="0px"
	 width="256px" height="256px" viewBox="0 0 256 256" enable-background="new 0 0 256 256" xml:space="preserve">
<path fill="#222454" d="M162.273,26.721c0.018,0.017,0.033,0.031,0.05,0.049c-0.023,0.001-0.044,0.001-0.066,0.003
	c-0.704,2.041-2.644,3.513-4.919,3.518c-2.875,0.005-5.223-2.334-5.23-5.208c-0.004-2.875,2.336-5.222,5.209-5.228
	c0.181-0.001,0.355,0.009,0.529,0.024c0,0,0,0-0.002,0c0.002,0,0.002,0,0.004,0c2.625,0.263,4.692,2.487,4.698,5.183
	C162.547,25.644,162.451,26.201,162.273,26.721L162.273,26.721z M129.164,118.684L129.164,118.684l18.932-0.037l6.369-38.691
	l-50.753,0.101l6.522,38.665L129.164,118.684L129.164,118.684z M158.779,77.757l-59.392,0.115l-0.024-11.847l59.393-0.118
	L158.779,77.757L158.779,77.757L158.779,77.757z M130.84,63.77L130.84,63.77c0.002-1.642,0.131-3.318,0.594-4.978
	c1.604-5.751,6.508-11.317,10.857-14.721l3.936-3.08c0.832-0.655,2.731-2.174,4.215-3.53c-0.131,0.533-0.243,1.084-0.338,1.646
	c-1.039,6.199,0.604,11.673,3.656,12.185c3.059,0.515,6.398-4.126,7.438-10.325c0.218-1.282,0.317-2.533,0.313-3.713
	c0.539,0.869,1.168,1.737,1.881,2.584c4.049,4.813,9.28,7.107,11.649,5.115c2.373-1.995,1.001-7.547-3.041-12.358
	c-1.015-1.206-2.108-2.254-3.206-3.116c1.225,0.19,2.548,0.278,3.92,0.242c6.282-0.162,11.346-2.819,11.266-5.916
	c-0.078-3.094-5.271-5.489-11.555-5.331c-1.992,0.052-3.867,0.356-5.488,0.842c1.147-1.03,2.271-2.3,3.281-3.762
	c3.565-5.179,4.398-10.831,1.848-12.59c-2.551-1.762-7.541,1.028-11.108,6.2c-1.024,1.484-1.821,3.007-2.377,4.464
	c-0.157-1.398-0.476-2.891-0.972-4.4c-1.963-5.971-5.961-10.055-8.906-9.087c-2.946,0.965-3.741,6.627-1.782,12.6
	c0.464,1.411,1.043,2.713,1.69,3.872c-1.008-0.593-2.122-1.136-3.322-1.597c-5.869-2.252-11.563-1.733-12.671,1.161
	c-1.111,2.89,2.771,7.089,8.637,9.342c1.646,0.63,3.277,1.044,4.794,1.248c-1.294,0.47-2.638,1.112-3.958,1.924
	c-5.356,3.287-8.409,8.121-6.788,10.761c1.486,2.422,6.395,2.178,11.334-0.411l-10.361,7.374
	c-6.493,4.619-9.094,10.892-10.063,17.365L130.84,63.77L130.84,63.77z M123.76,63.783L123.76,63.783l0.016-13.697
	c0-0.008,0-0.011,0-0.019c-1.119,0.924-2.29,1.746-3.468,2.424l-0.709,11.301L123.76,63.783L123.76,63.783z M113.419,54.453
	c2.028,0.215,4.467-0.567,6.888-1.961l0.014-0.21c0.096-1.808,0.278-4.064-0.242-5.831c-1.102-3.758-3.673-7.18-6.206-10.08
	l-3.126-3.581c-1.927-2.207-3.787-4.742-5.752-7.025l14.013,13.198c3.478,3.273,4.773,6.464,4.769,11.105
	c3.912-3.223,7.146-7.665,7.543-11.396c0.738-6.992-18.573-11.325-31.112-19.52C102.045,28.067,102.849,53.334,113.419,54.453
	L113.419,54.453z"/>
<rect x="34.667" y="122.974" fill="#222454" width="188.149" height="123.04"/>
<rect x="194.057" y="248.811" fill="#222454" width="29.162" height="7.189"/>
<rect x="34.668" y="248.811" fill="#222454" width="29.162" height="7.189"/>
<rect x="43.356" y="131.764" fill="#FFFFFF" width="170.773" height="48.336"/>
<rect x="43.356" y="189.287" fill="#FFFFFF" width="170.773" height="48.338"/>
<rect x="117.757" y="137.156" fill="#222454" width="21.972" height="7.391"/>
<rect x="117.757" y="194.68" fill="#222454" width="21.972" height="7.391"/>
</svg>
