<?xml version="1.0" encoding="utf-8"?>
<!-- Generator: Adobe Illustrator 15.0.0, SVG Export Plug-In . SVG Version: 6.00 Build 0)  -->
<!DOCTYPE svg PUBLIC "-//W3C//DTD SVG 1.1//EN" "http://www.w3.org/Graphics/SVG/1.1/DTD/svg11.dtd">
<svg version="1.1" id="Calque_1" xmlns="http://www.w3.org/2000/svg" xmlns:xlink="http://www.w3.org/1999/xlink" x="0px" y="0px"
	 width="256px" height="256px" viewBox="0 0 256 256" enable-background="new 0 0 256 256" xml:space="preserve">
<g>
	<rect x="18.133" y="97.591" fill="#222454" width="220.993" height="140.375"/>
	<rect x="77.006" y="64" fill="#222454" width="103.955" height="30.409"/>
	<rect x="17.957" y="240.795" fill="#222454" width="6.365" height="15.205"/>
	<rect x="233.294" y="240.795" fill="#222454" width="6.364" height="15.205"/>
	<g>
		<rect x="26.089" y="105.371" fill="#FFFFFF" width="50.917" height="24.043"/>
		<circle fill="#222454" cx="51.548" cy="117.392" r="3.006"/>
	</g>
	<g>
		<rect x="80.189" y="66.83" fill="#222454" width="45.082" height="24.043"/>
		<circle fill="#222454" cx="102.466" cy="78.851" r="3.006"/>
	</g>
	<g>
		<rect x="132.167" y="66.83" fill="#222454" width="45.082" height="24.043"/>
		<circle fill="#222454" cx="154.441" cy="78.851" r="3.006"/>
	</g>
	<g>
		<rect x="26.089" y="206.145" fill="#FFFFFF" width="50.917" height="24.043"/>
		<circle fill="#222454" cx="51.548" cy="218.165" r="3.006"/>
	</g>
	<g>
		<rect x="26.089" y="172.553" fill="#FFFFFF" width="50.917" height="24.043"/>
		<circle fill="#222454" cx="51.548" cy="184.574" r="3.006"/>
	</g>
	<g>
		<rect x="26.089" y="138.962" fill="#FFFFFF" width="50.917" height="24.044"/>
		<circle fill="#222454" cx="51.548" cy="150.983" r="3.006"/>
	</g>
	<g>
		<rect x="180.961" y="105.371" fill="#FFFFFF" width="50.918" height="24.043"/>
		<circle fill="#222454" cx="206.42" cy="117.392" r="3.006"/>
	</g>
	<g>
		<rect x="180.961" y="206.145" fill="#FFFFFF" width="50.918" height="24.043"/>
		<circle fill="#222454" cx="206.42" cy="218.165" r="3.006"/>
	</g>
	<g>
		<rect x="180.961" y="172.553" fill="#FFFFFF" width="50.918" height="24.043"/>
		<circle fill="#222454" cx="206.42" cy="184.574" r="3.006"/>
	</g>
	<g>
		<rect x="180.961" y="138.962" fill="#FFFFFF" width="50.918" height="24.044"/>
		<circle fill="#222454" cx="206.42" cy="150.983" r="3.006"/>
	</g>
	<rect x="102.113" fill="#222454" width="52.595" height="61.79"/>
	<rect x="105.384" y="3.843" fill="#FFFFFF" width="46.052" height="54.104"/>
	<line fill="none" stroke="#1D1D1B" stroke-width="2" stroke-miterlimit="10" x1="119.879" y1="6.497" x2="108.476" y2="15.381"/>
	<line fill="none" stroke="#1D1D1B" stroke-width="2" stroke-miterlimit="10" x1="123.062" y1="9.68" x2="111.658" y2="18.563"/>
</g>
</svg>
