<?xml version="1.0" encoding="utf-8"?>
<!-- Generator: Adobe Illustrator 15.0.0, SVG Export Plug-In . SVG Version: 6.00 Build 0)  -->
<!DOCTYPE svg PUBLIC "-//W3C//DTD SVG 1.1//EN" "http://www.w3.org/Graphics/SVG/1.1/DTD/svg11.dtd">
<svg version="1.1" id="Calque_1" xmlns="http://www.w3.org/2000/svg" xmlns:xlink="http://www.w3.org/1999/xlink" x="0px" y="0px"
	 width="256px" height="256px" viewBox="0 0 256 256" enable-background="new 0 0 256 256" xml:space="preserve">
<g>
	<rect y="33.635" fill="#222454" width="256" height="178.865"/>
	<rect y="26.707" fill="#222454" width="256" height="4.821"/>
	<rect y="214.324" fill="#222454" width="256" height="12.025"/>
	<rect x="12.111" y="153.623" fill="#FFFFFF" width="232.897" height="47.697"/>
	<rect x="12.111" y="97.728" fill="#FFFFFF" width="232.897" height="47.698"/>
	<g>
		<rect x="12.204" y="40.715" fill="#FFFFFF" width="73.409" height="47.697"/>
		<rect x="38.847" y="61.396" fill="#222454" width="20.122" height="6.335"/>
	</g>
	<g>
		<rect x="92.134" y="40.715" fill="#FFFFFF" width="73.41" height="47.697"/>
		<rect x="118.777" y="61.396" fill="#222454" width="20.122" height="6.335"/>
	</g>
	<g>
		<rect x="172.064" y="40.715" fill="#FFFFFF" width="73.408" height="47.697"/>
		<rect x="198.707" y="61.396" fill="#222454" width="20.123" height="6.335"/>
	</g>
	<rect x="38.847" y="118.409" fill="#222454" width="20.122" height="6.335"/>
	<rect x="198.707" y="118.409" fill="#222454" width="20.123" height="6.335"/>
	<rect x="38.847" y="174.305" fill="#222454" width="20.122" height="6.336"/>
	<rect x="198.707" y="174.305" fill="#222454" width="20.123" height="6.336"/>
</g>
</svg>
