<?xml version="1.0" encoding="utf-8"?>
<!-- Generator: Adobe Illustrator 15.0.0, SVG Export Plug-In . SVG Version: 6.00 Build 0)  -->
<!DOCTYPE svg PUBLIC "-//W3C//DTD SVG 1.1//EN" "http://www.w3.org/Graphics/SVG/1.1/DTD/svg11.dtd">
<svg version="1.1" id="Calque_1" xmlns="http://www.w3.org/2000/svg" xmlns:xlink="http://www.w3.org/1999/xlink" x="0px" y="0px"
	 width="256px" height="256px" viewBox="0 0 256 256" enable-background="new 0 0 256 256" xml:space="preserve">
<g>
	<g id="XMLID_70_">
		<path fill="#222454" d="M110.238,222.76H53.813c-5.558,0-10.08-4.521-10.08-10.084v-1.773c0-5.557,4.522-10.078,10.08-10.078
			h4.942C58.19,188.238,55.459,95.985,94.899,54.169c12.833-13.609,28.859-20.509,47.63-20.509l0.248-0.001
			c3.166,0,30.605,0.626,36.354,21.929L203.91,48.2c0.797-0.238,1.619-0.358,2.447-0.358c3.785,0,7.18,2.528,8.262,6.144l0.42,1.417
			c1.357,4.543-1.238,9.346-5.787,10.707l-56.508,16.85c-0.795,0.237-1.623,0.357-2.445,0.357c-3.785,0-7.182-2.527-8.262-6.146
			l-0.422-1.415c-1.355-4.547,1.244-9.35,5.789-10.707l24.41-7.279c-4.211-16-26.346-16.473-28.91-16.473l-0.266,0.002
			c-16.664,0.002-30.845,6.094-42.173,18.107c-37.152,39.38-34.543,130.123-34.064,141.416h43.836c5.558,0,10.08,4.521,10.08,10.078
			v1.773C120.317,218.238,115.795,222.76,110.238,222.76z M53.813,203.27c-4.206,0-7.633,3.424-7.633,7.633v1.773
			c0,4.209,3.428,7.643,7.633,7.643h56.425c4.21,0,7.633-3.434,7.633-7.643v-1.773c0-4.209-3.423-7.633-7.633-7.633H64.082
			l-0.068-1.152C63.951,201.104,58.516,100.31,98.68,57.73c11.816-12.523,26.594-18.875,43.926-18.877l0.299-0.002
			c2.826,0,27.701,0.548,31.559,19.521l0.223,1.098l-26.58,7.927c-3.256,0.971-5.115,4.408-4.146,7.661l0.424,1.415
			c0.941,3.152,4.477,5.085,7.66,4.142l56.508-16.85c3.256-0.973,5.113-4.41,4.141-7.663l-0.42-1.417
			c-0.939-3.15-4.48-5.092-7.66-4.139l-27.275,8.132l-0.285-1.286c-4.563-20.69-31.248-21.286-34.273-21.286h-0.244
			c-18.074,0-33.498,6.643-45.852,19.741C55.92,99.064,61.03,197.793,61.265,201.977l0.072,1.293H53.813z"/>
	</g>
</g>
</svg>
