<?xml version="1.0" encoding="utf-8"?>
<!-- Generator: Adobe Illustrator 15.0.0, SVG Export Plug-In . SVG Version: 6.00 Build 0)  -->
<!DOCTYPE svg PUBLIC "-//W3C//DTD SVG 1.1//EN" "http://www.w3.org/Graphics/SVG/1.1/DTD/svg11.dtd">
<svg version="1.1" id="Calque_1" xmlns="http://www.w3.org/2000/svg" xmlns:xlink="http://www.w3.org/1999/xlink" x="0px" y="0px"
	 width="256px" height="256px" viewBox="0 0 256 256" enable-background="new 0 0 256 256" xml:space="preserve">
<path fill="#FFFFFF" stroke="#222454" stroke-width="7" d="M244.5,210.5c0,6.627-5.373,12-12,12h-207c-6.627,0-12-5.373-12-12v-98
	c0-6.627,5.373-12,12-12h207c6.627,0,12,5.373,12,12V210.5z"/>
<line fill="none" stroke="#222454" stroke-width="7" x1="99.5" y1="100.5" x2="99.5" y2="222.5"/>
<line fill="none" stroke="#222454" stroke-width="7" x1="99.5" y1="155.5" x2="244.5" y2="155.5"/>
<line fill="none" stroke="#222454" stroke-width="7" x1="143.5" y1="100.5" x2="143.5" y2="45.5"/>
<path fill="none" stroke="#222454" stroke-width="7" d="M143.5,45.5c0-14.371-14.313-26-32-26"/>
<path fill="none" stroke="#222454" stroke-width="7" d="M114.927,19.968c-14.18-2.335-27.98,9.897-30.855,27.35"/>
<line fill="none" stroke="#222454" stroke-width="7" x1="146.167" y1="99.167" x2="168" y2="77.333"/>
<line fill="none" stroke="#222454" stroke-width="7" x1="141.833" y1="99.167" x2="122.833" y2="80.167"/>
<line fill="none" stroke="#222454" stroke-width="7" x1="157.084" y1="67.167" x2="176.833" y2="88.25"/>
<line fill="none" stroke="#222454" stroke-width="7" x1="111.872" y1="89.572" x2="133.795" y2="70.761"/>
<line fill="none" stroke="#222454" stroke-width="7" x1="37.5" y1="161.5" x2="71.5" y2="161.5"/>
<line fill="none" stroke="#222454" stroke-width="7" x1="149.959" y1="128.834" x2="183.959" y2="128.834"/>
<line fill="none" stroke="#222454" stroke-width="7" x1="149.959" y1="193.5" x2="183.959" y2="193.5"/>
</svg>
