<?xml version="1.0" encoding="utf-8"?>
<!-- Generator: Adobe Illustrator 15.0.0, SVG Export Plug-In . SVG Version: 6.00 Build 0)  -->
<!DOCTYPE svg PUBLIC "-//W3C//DTD SVG 1.1//EN" "http://www.w3.org/Graphics/SVG/1.1/DTD/svg11.dtd">
<svg version="1.1" id="Calque_1" xmlns="http://www.w3.org/2000/svg" xmlns:xlink="http://www.w3.org/1999/xlink" x="0px" y="0px"
	 width="256px" height="256px" viewBox="0 0 256 256" enable-background="new 0 0 256 256" xml:space="preserve">
<g>
	<g>
		<defs>
			<rect id="SVGID_1_" x="34.685" y="35.476" width="193.288" height="200.667"/>
		</defs>
		<clipPath id="SVGID_2_">
			<use xlink:href="#SVGID_1_"  overflow="visible"/>
		</clipPath>
		<path clip-path="url(#SVGID_2_)" fill="#222454" d="M225.893,193.512c0.06-0.197,0.088-0.411,0.039-0.652
			c-6.791-32.351-14.117-65.079-23.604-96.956c0.341-0.282,0.291-0.897-0.257-0.887h-0.018c-2.637-8.815-5.463-17.554-8.468-26.215
			c-0.004-0.032-0.022-0.056-0.028-0.087c-0.4-1.16-0.773-2.334-1.181-3.491c6.039-0.095,12.088-0.162,18.123-0.288
			c0.549-0.011,0.921-0.271,1.153-0.623c8.215,0.078,14.9-6.443,14.415-15.083c-0.415-7.417-7.789-15.121-15.562-13.546
			c0,0-0.024-0.007-0.042-0.007c-50.904,0.911-101.743,0.815-152.662,1.184l-0.865-0.653c-0.453-0.344-1.061-0.2-1.525,0
			c-11.501,4.959-10.826,24.717,0.883,28.528c0.122,0.351,0.432,0.632,0.924,0.643c4.479,0.102,8.967,0.133,13.448,0.204
			c-14.502,41.649-24.71,85.188-34.415,128.18c-0.078,0.103-0.162,0.199-0.179,0.361c-0.057,0.443-0.131,0.873-0.201,1.305
			c-0.074,0.324-0.147,0.65-0.221,0.973c-0.025,0.117-0.008,0.219-0.008,0.324c-0.762,3.957-1.778,7.483,0.145,11.576
			c1.69,3.603,4.984,6.492,8.833,7.557c6.175,1.709,14.573-2.221,16.222-8.686c0.331-0.12,0.601-0.384,0.682-0.854
			c0.222-1.302,0.472-2.596,0.699-3.893c0.18-0.18,0.211-0.418,0.116-0.66c2.768-15.59,5.962-31.034,9.439-46.395
			c15.089,8.783,33.076,11.428,49.235,17.807c0.495,17.22,1.205,34.401,2.175,51.467c0.011,0.172,0.053,0.326,0.116,0.457
			c-3.103,6.334,5.962,10.133,10.937,10.664c6.277,0.676,12.633-3.645,11.156-10.342c0.014-0.084,0.049-0.158,0.049-0.256
			c-0.127-17.297-0.014-34.658,0.084-52.035c9.234-3.615,18.437-7.246,27.857-10.36c4.387-1.447,13.213-2.706,17.613-5.937
			c3.47,14.285,7.312,28.426,11.986,42.215c-0.01,0.05-0.027,0.107-0.027,0.146c-0.151,2.073,2.288,5.378,3.469,6.833
			c1.62,1.996,3.727,3.66,6.141,4.59C223.218,214.725,232.529,202.758,225.893,193.512L225.893,193.512z M70.897,143.708
			c-2.973-0.019-5.919-0.11-8.907-0.588c-0.949-0.155-1.384,1.248-0.407,1.473c2.917,0.661,5.926,1.052,8.921,0.978
			c-0.476,2.215-0.957,4.426-1.417,6.645c-2.999,0.244-5.961,0.438-9.005,0.186c-1.009-0.085-0.974,1.44,0,1.557
			c2.847,0.341,5.772,0.472,8.626,0.115c-0.57,2.771-1.143,5.537-1.69,8.308c-3.203,0.067-6.454,0.675-9.611,1.114
			c-0.5,0.069-0.383,0.913,0.12,0.881c3.054-0.189,6.214-0.26,9.248-0.773c-0.397,2.015-0.808,4.029-1.195,6.044
			c-1.536,0.073-3.079,0.428-4.619,0.52c-1.979,0.116-3.944,0.034-5.919-0.077c-0.812-0.046-1.023,1.322-0.197,1.444
			c3.069,0.454,7.112,0.864,10.374,0.011c-0.521,2.734-1.055,5.469-1.562,8.203c-3.659,1.213-7.055,2.029-10.985,1.457
			c-0.671-0.1-0.983,0.912-0.288,1.044c3.585,0.667,7.568,0.601,10.97-0.854c-0.576,3.139-1.164,6.277-1.723,9.416
			c-3.887,0.096-7.688,0.721-11.63,0.461c-0.708-0.05-0.682,1.008,0,1.082c3.553,0.4,7.711,0.756,11.354,0.021
			c-0.523,2.938-1.058,5.881-1.567,8.815c-4.064-0.147-8.082,0.06-12.184-0.533c-0.618-0.093-0.906,0.829-0.264,0.962
			c3.804,0.784,8.127,1.559,12.146,1.291c-0.085,0.492-0.177,0.986-0.26,1.476c-0.036,0.046-0.088,0.054-0.116,0.105
			c-0.37,0.696-0.767,1.392-1.189,2.067c-0.098-0.084-0.225-0.145-0.369-0.155c-1.796-0.153-3.638,0.482-5.427,0.657
			c-1.827,0.183-3.656,0.197-5.491,0.105c-0.871-0.045-0.843,1.26,0,1.343c3.048,0.302,7.344,0.721,10.363-0.569
			c-3.065,4.285-7.389,7.305-13.21,4.528c-6.632-3.168-6.105-8.806-6.155-14.657c0.229-0.148,0.418-0.373,0.5-0.726
			c10.039-44.258,22.968-87.584,34.349-131.472c6.513,0.098,13.03,0.165,19.551,0.225c-0.584,1.7-1.139,3.416-1.695,5.128h-0.007
			c-4.816,0.168-9.445,0.946-14.292,0.653c-1.252-0.077-1.219,1.814,0,1.927c4.411,0.408,9.29,0.604,13.638-0.581
			c-0.797,2.493-1.575,4.995-2.34,7.501c-3.618-0.646-7.674-0.341-11.301-0.306c-1.114,0.011-1.09,1.631,0,1.712
			c3.444,0.253,7.233,0.749,10.738,0.45c-0.468,1.543-0.949,3.076-1.407,4.623c-3.915,0.628-7.431,1.307-11.574,0.575
			c-1.062-0.186-1.533,1.403-0.45,1.638c3.501,0.767,7.646,1.143,11.305,0.253c-0.64,2.197-1.314,4.38-1.93,6.583
			c-1.743,0.418-3.374,0.953-5.244,1.001c-2.123,0.057-4.147-0.365-6.134-1.075c-0.812-0.288-1.391,1.051-0.594,1.41
			c3.294,1.49,7.744,2.221,11.351,0.952c-0.77,2.795-1.536,5.589-2.271,8.397c-3.231,0.137-6.384,0.542-9.659,0.278
			c-1.125-0.092-1.079,1.595,0,1.726c2.906,0.351,6.161,0.552,9.146-0.007c-0.731,2.812-1.469,5.621-2.168,8.443
			c-3.245,1.23-6.313,1.743-9.976,0.528c-0.973-0.321-1.342,1.16-0.418,1.514c2.992,1.15,6.626,1.427,9.786,0.44
			c-0.577,2.344-1.178,4.686-1.729,7.037c-0.868,0.256-1.74,0.509-2.64,0.647c-2.077,0.312-4.109,0.154-6.196,0.07
			c-0.707-0.028-0.83,1.033-0.162,1.219c2.397,0.676,5.642,0.83,8.486,0.223c-0.45,1.938-0.935,3.862-1.375,5.801
			c-2.172,0.47-4.33,0.598-6.678,0.006c-1.005-0.254-1.426,1.27-0.429,1.558c2.13,0.612,4.437,0.833,6.647,0.517
			C71.931,139.022,71.404,141.363,70.897,143.708L70.897,143.708z M120.287,128.167c-0.042,0-0.077-0.015-0.123-0.011
			c-5.702,0.738-11.199,2.734-16.651,4.517c-2.893,0.945-5.779,1.926-8.636,2.977c-0.51,0.187-4.419,1.99-6.563,3.118
			c-3.811-1.276-7.614-2.538-11.396-3.789c0.246-0.344,0.183-0.791-0.103-1.068c1.034-4.257,2.109-8.502,3.157-12.756
			c8.946-2.492,17.838-5.167,26.711-7.909c3.596-1.111,10.214-1.769,13.67-4.46C120.318,115.246,120.255,121.7,120.287,128.167
			L120.287,128.167z M120.529,150.598c-9.333-3.913-19.002-7.344-28.685-10.627c2.394-0.843,4.818-2.119,6.214-2.572
			c7.343-2.377,15.119-4.025,22.244-6.978C120.343,137.146,120.417,143.873,120.529,150.598L120.529,150.598z M72.121,153.832
			c0.039-0.185,0.083-0.367,0.126-0.553c0.316-0.223,0.387-0.623,0.221-0.939c0.545-2.375,1.118-4.745,1.678-7.117
			c0.147-0.029,0.299-0.029,0.45-0.057c0.788-0.158,0.615-1.297-0.106-1.406c0.577-2.443,1.14-4.889,1.723-7.328
			c14.208,6.498,29.294,12.738,44.371,16.703c0.105,5.877,0.201,11.755,0.362,17.627C105.355,163.385,87.935,160.818,72.121,153.832
			L72.121,153.832z M120.364,105.172c-0.173,0.06-0.341,0.155-0.496,0.309c-3.898,4-16.612,5.79-21.79,7.459
			c-5.866,1.892-11.706,3.867-17.525,5.884c4.369-17.642,8.847-35.262,13.286-52.968c9.065,0.078,18.135,0.123,27.21,0.113
			C120.648,78.985,120.462,92.068,120.364,105.172L120.364,105.172z M124.642,225.672c0.422-0.109,0.777-0.443,0.777-1.027
			c-0.074-52.781-0.847-105.907-2.451-158.672c6.345-0.011,12.69-0.096,19.035-0.137c-0.081,1.761-0.112,3.528-0.173,5.292
			c-0.031-0.014-0.042-0.044-0.077-0.052c-4.295-0.794-8.812-0.333-13.04,0.653c-1.002,0.236-0.56,1.67,0.418,1.516
			c4.172-0.664,8.207-0.604,12.412-0.598c0.098,0,0.157-0.07,0.242-0.102c-0.092,2.7-0.204,5.392-0.268,8.091
			c-3.082,0.19-6.063,0.636-9.199,0.373c-0.854-0.074-1.064,1.389-0.203,1.511c2.991,0.433,6.358,0.668,9.367-0.105
			c-0.06,2.721-0.123,5.438-0.168,8.159c-2.311,0.752-4.475,1.208-7.094,0.548c-0.837-0.211-1.188,1.051-0.355,1.294
			c2.313,0.678,5.083,0.801,7.424-0.064c-0.035,2.229-0.088,4.451-0.109,6.678c-3.645,0.38-7.23,1.217-10.812,1.983
			c-1.083,0.228-0.608,1.817,0.453,1.639c3.459-0.588,6.952-1.108,10.341-2.039c-0.027,3.125-0.091,6.246-0.098,9.371
			c-2.714,0.133-5.516,0.749-8.131,1.114c-0.752,0.109-0.58,1.392,0.18,1.333c2.572-0.193,5.336-0.19,7.951-0.604
			c-0.004,2.548-0.014,5.093-0.004,7.642c-2.879,0.773-5.589,1.354-8.742,0.959c-0.949-0.115-1.178,1.522-0.225,1.685
			c2.872,0.491,6.129,0.548,8.978-0.415c0.015,3.096,0.021,6.19,0.05,9.286c-2.826-0.154-5.793,0.531-8.401,1.436
			c-0.911,0.315-0.548,1.648,0.397,1.447c2.664-0.573,5.35-0.707,8.021-1.072c0.035,3.41,0.056,6.82,0.105,10.229
			c-2.434,0.245-4.861,0.663-7.266,0.981c-0.896,0.119-0.943,1.523,0,1.439c2.41-0.215,4.867-0.341,7.289-0.625
			c0.053,3.553,0.092,7.107,0.155,10.662c-2.457,0.291-4.847,0.59-7.421,0.337c-0.809-0.077-1.008,1.312-0.193,1.43
			c2.398,0.354,5.119,0.58,7.649,0.208c0.06,3.328,0.123,6.656,0.187,9.986c-2.904-0.293-6.021,0.017-8.749,0.766
			c-0.735,0.201-0.619,1.48,0.183,1.375c2.949-0.387,5.705-0.408,8.602-0.355c0.045,2.394,0.095,4.787,0.141,7.178
			c-3.186,0.482-6.264,0.864-9.498,0.548c-0.657-0.062-0.822,1.069-0.158,1.165c3.213,0.47,6.531,0.551,9.684-0.286
			c0.063,3.206,0.131,6.411,0.19,9.614c-1.547,0.046-3.079,0.372-4.633,0.453c-1.702,0.088-3.389,0.039-5.087-0.102
			c-0.861-0.074-0.829,1.227,0,1.324c3.023,0.367,6.732,0.707,9.751-0.172c0.116,6.18,0.229,12.359,0.316,18.532
			c-3.36,0.492-6.626,0.832-10.07,0.548c-0.794-0.063-0.767,1.139,0,1.227c3.308,0.39,6.784,0.429,10.095-0.199
			c0.035,2.545,0.084,5.093,0.113,7.633c-0.088-0.016-0.152-0.063-0.257-0.049c-3.11,0.438-5.94,1.02-9.104,0.669
			c-0.618-0.071-0.77,0.99-0.15,1.093c3.058,0.498,6.594,0.688,9.525-0.499c0.021,2.115,0.06,4.239,0.074,6.354
			c-3.16,0.365-6.193,0.906-9.459,0.721c-0.65-0.035-0.633,0.938,0,0.998c2.949,0.281,6.396,0.395,9.427-0.305
			C144.119,236.168,125.703,234.723,124.642,225.672L124.642,225.672z M57.685,63.325c-3.259-2.664-6.299-5.585-7.263-9.904
			c-0.896-4.011,0.887-13.692,6.352-14.342c0.127,0.053,0.264,0.092,0.422,0.099c50.718,1.595,102.664,3.939,153.269-0.563
			c0.323-0.029,0.569-0.154,0.78-0.313c3.389,0.73,6.612,1.862,8.854,4.038c-12.907-0.576-26.19,0.608-39.069,1.319
			c-0.848,0.045-0.861,1.326,0,1.329c13.305,0.052,27.076,0.597,40.313-0.791c0.081-0.007,0.113-0.07,0.184-0.092
			c0.854,1.374,1.431,3.026,1.55,5.125c0.158,2.749-0.619,5.199-1.989,7.231c-0.127-0.173-0.316-0.307-0.591-0.332
			c-14.938-1.363-30.355-1.199-45.351-0.914c-0.676,0.014-0.661,0.995,0,1.044c14.822,1.062,30.074,2.021,44.936,1.477
			c-2.187,2.453-5.339,4.087-8.805,4.488c-0.211-0.138-0.457-0.243-0.78-0.243C159.648,61.536,108.508,61.589,57.685,63.325
			L57.685,63.325z M143.789,65.825c8.955-0.063,17.912-0.162,26.861-0.267c4.408,17.787,8.155,35.931,12.007,54.076
			c-12.397-4.063-24.794-8.151-37.319-11.807C145.078,93.794,144.621,79.784,143.789,65.825L143.789,65.825z M145.381,109.822
			c12.334,4.531,24.826,8.647,37.294,12.788c0.232,0.077,0.443,0.088,0.637,0.06c0.925,4.352,1.849,8.699,2.802,13.044
			c-1.947,0.51-3.938,1.034-5.944,1.572c0.088-0.489-0.123-1.021-0.784-1.233c-11.097-3.604-22.594-6.178-33.801-9.53
			C145.546,120.954,145.476,115.387,145.381,109.822L145.381,109.822z M177.448,138.016c-10.865,2.951-22.19,6.422-31.812,11.586
			c0.018-7.051,0.012-14.102-0.031-21.15C155.831,132.399,166.65,136.203,177.448,138.016L177.448,138.016z M183.586,156.453
			c-4.672,1.691-9.477,3.016-14.173,4.65c-8.142,2.84-16.147,6.137-23.87,9.979c0.038-6.517,0.07-13.037,0.088-19.558
			c13.434-5.062,27.596-8.179,41.048-13.255c1.139,5.143,2.313,10.277,3.529,15.393
			C187.958,154.266,185.685,155.693,183.586,156.453L183.586,156.453z M217.611,209.207c-3.47,0.161-6.454-1.449-8.854-3.811
			c-0.225-0.226-1.789-2.135-3.107-3.916c0.134-0.215,0.193-0.488,0.112-0.816c-10.601-44.738-18.753-91.46-33.351-135.125
			c6.134-0.074,12.254-0.196,18.38-0.292c0.236,0.946,0.485,1.884,0.725,2.827c-3.505,0.07-7.059,0.502-10.521,0.924
			c-0.857,0.102-0.914,1.403,0,1.385c3.624-0.081,7.339-0.172,10.953-0.636c0.748,2.921,1.493,5.842,2.249,8.76
			c-2.956,0.797-5.743,1.381-8.963,0.987c-0.71-0.087-0.886,1.146-0.169,1.263c3.072,0.491,6.556,0.459,9.522-0.731
			c0.538,2.07,1.062,4.145,1.596,6.214c-2.25-0.066-4.507-0.014-6.76,0.029c-0.815,0.013-0.815,1.254,0,1.272
			c2.366,0.042,4.735,0.105,7.101,0.021c0.679,2.611,1.332,5.233,2.015,7.842c-0.777,0.12-1.558,0.229-2.342,0.277
			c-1.976,0.116-3.95,0.067-5.923-0.087c-0.513-0.039-0.643,0.839-0.123,0.914c2.693,0.379,5.853,0.686,8.756,0.309
			c1.529,5.846,3.055,11.688,4.591,17.53c-3.849,0.19-7.627,0.718-11.543,0.493c-0.714-0.042-0.675,0.998,0,1.083
			c3.758,0.467,8.102,0.766,11.94-0.061c0.696,2.651,1.392,5.308,2.088,7.962c-3.23-0.274-6.703,0.098-9.839,0.207
			c-0.86,0.033-0.864,1.311,0,1.344c3.283,0.115,6.932,0.509,10.285,0.154c0.65,2.478,1.305,4.953,1.947,7.428
			c-2.563,1.375-4.949,2.334-8.031,2.077c-0.65-0.053-0.813,1.059-0.155,1.149c2.879,0.398,6.145,0.01,8.595-1.662
			c0.928,3.564,1.862,7.129,2.784,10.699c-3.498,0.475-6.806,0.992-10.377,0.678c-0.77-0.066-0.741,1.094,0,1.186
			c3.466,0.432,7.325,0.513,10.714-0.553c0.779,3.048,1.578,6.088,2.348,9.137c-3.853,1.27-7.181,1.813-11.143,0.231
			c-0.537-0.214-0.913,0.682-0.394,0.942c3.558,1.771,8.32,2.232,11.878,0.164c0.737,2.946,1.508,5.878,2.235,8.828
			c-4.158,1.096-7.754,1.866-12.116,1.067c-0.534-0.098-0.771,0.687-0.229,0.826c3.996,1.036,8.829,1.118,12.637-0.728
			c0.783,3.188,1.609,6.363,2.372,9.557c-4.165,0.281-8.2,0.76-12.422,0.496c-0.629-0.039-0.608,0.906,0,0.971
			c4.13,0.439,8.615,0.691,12.749-0.092c0.475,2,0.967,4,1.431,6.004h-0.007c-3.779,1.473-7.604,2.141-11.649,1.603
			c-0.457-0.063-0.569,0.734-0.108,0.812c4.116,0.704,8.2,0.338,11.989-1.443c0.661,2.854,1.34,5.705,1.976,8.565
			c-3.515,0.44-6.918,0.752-10.499,0.453c-0.534-0.046-0.517,0.767,0,0.829c3.666,0.438,7.515,0.514,11.163-0.203
			c0.387,1.17,0.784,2.313,1.065,3.48c-3.606,0.936-6.728,1.926-10.556,1.656c-0.78-0.055-0.752,1.117,0,1.198
			c3.487,0.386,7.617,0.192,10.806-1.497c0.098,0.709,0.15,1.433,0.095,2.191C225.207,205.881,221.909,209.006,217.611,209.207
			L217.611,209.207z M217.611,209.207"/>
	</g>
	<path fill="#1D1D1B" d="M221.341,49.016c-14.254-0.489-28.56,0.096-42.834-0.389c-0.633-0.022-0.612,0.917,0,0.974
		c14.07,1.296,28.728,2.403,42.834,1.173C222.455,50.679,222.486,49.058,221.341,49.016L221.341,49.016z M221.341,49.016"/>
	<path fill="#1D1D1B" d="M141.616,196.605c-3.163,0.369-6.089,0.939-9.294,0.611c-0.534-0.057-0.66,0.848-0.13,0.938
		c3.097,0.538,6.598,0.771,9.578-0.401C142.326,197.537,142.33,196.521,141.616,196.605L141.616,196.605z M141.616,196.605"/>
</g>
</svg>
