<?xml version="1.0" encoding="utf-8"?>
<!-- Generator: Adobe Illustrator 15.0.0, SVG Export Plug-In . SVG Version: 6.00 Build 0)  -->
<!DOCTYPE svg PUBLIC "-//W3C//DTD SVG 1.1//EN" "http://www.w3.org/Graphics/SVG/1.1/DTD/svg11.dtd">
<svg version="1.1" id="Calque_1" xmlns="http://www.w3.org/2000/svg" xmlns:xlink="http://www.w3.org/1999/xlink" x="0px" y="0px"
	 width="256px" height="256px" viewBox="0 0 256 256" enable-background="new 0 0 256 256" xml:space="preserve">
<path fill="#222454" d="M213.26,51.561h-16.563v53.789v0.003c0,5.083-2.164,9.706-5.65,13.052h-0.011
	c-0.106,0.104-0.22,0.207-0.324,0.309l20.97,23.647c0.278,0.201,0.551,0.414,0.805,0.643c3.006-17.462,9.057-31.902,16.045-48.585
	c0.658-1.569,1.328-3.166,1.998-4.783c2.302-5.527,4.65-10.79,7.791-15.508c2.705-4.056,5.968-7.667,10.236-10.633
	c-1.488-0.975-3.24-1.797-5.313-2.453L213.26,51.561L213.26,51.561z M229.167,210.948L229.167,210.948h0.021v11.377h-23.701v-11.377
	h0.027v-0.007H128H50.496v0.007h0.021v11.377H26.811l-0.007-11.384h-8.636C14.32,182.775,6.021,139.012,2.413,106.05
	C0.531,88.885-2.513,74.94,3.779,66.848c4.195,2.697,7.341,6.098,9.917,9.963c2.915,4.376,5.146,9.396,7.354,14.689
	c0.672,1.621,1.338,3.214,2,4.787c7.932,18.939,14.635,34.943,16.874,55.641v12.861v0.007c0.003,2.881,1.186,5.503,3.088,7.401
	v0.011c1.899,1.901,4.528,3.089,7.419,3.089h155.137h0.007c2.879,0,5.506-1.188,7.405-3.085h0.008
	c1.902-1.901,3.084-4.532,3.088-7.423l0,0v-12.24h0.005c2.17-21,8.935-37.133,16.944-56.262c0.658-1.572,1.324-3.166,2-4.787
	c2.205-5.292,4.439-10.313,7.353-14.689c2.567-3.852,5.692-7.242,9.87-9.933c6.254,8.095,3.223,22.026,1.343,39.172
	c-3.61,32.961-11.909,76.726-15.759,104.892h-8.664L229.167,210.948L229.167,210.948z M191.624,51.561L191.624,51.561v53.789v0.003
	c0,3.737-1.597,7.141-4.165,9.607l0.003,0.004c-2.567,2.466-6.106,3.992-10.001,3.995h-0.006H78.552h-0.003
	c-3.89,0-7.433-1.532-10.004-4.001l-0.004,0.007c-2.561-2.47-4.155-5.867-4.158-9.607v-0.007v-53.79h0.068V41.526
	c0-6.342,4.8-11.526,10.667-11.526H128h52.885c5.867,0,10.664,5.184,10.664,11.526v10.035H191.624L191.624,51.561z M59.308,51.561
	L59.308,51.561H42.74l-29.982,9.481c-2.052,0.652-3.798,1.464-5.28,2.429c4.291,2.969,7.563,6.59,10.273,10.656
	c3.143,4.719,5.49,9.981,7.793,15.508c0.669,1.617,1.338,3.213,1.997,4.783c6.801,16.235,12.719,30.353,15.796,47.193l21.072-23.763
	c-3.163-3.295-5.099-7.688-5.103-12.491v-0.007V51.561H59.308z M186.715,121.534L186.715,121.534l16.719,18.847H50.917
	l17.274-19.475c2.996,1.851,6.553,2.928,10.358,2.928h0.003h98.903h0.006C180.813,123.834,183.966,122.995,186.715,121.534
	L186.715,121.534z M44.802,151.792L44.802,151.792c0.007,0.085,0.017,0.173,0.027,0.261l-0.027,0.004v12.732v0.007
	c0,1.545,0.632,2.952,1.651,3.972l0.003-0.004c1.022,1.021,2.429,1.657,3.974,1.657h155.138h0.006c1.547,0,2.953-0.636,3.976-1.649
	l-0.011-0.004c1.027-1.022,1.663-2.434,1.663-3.979l0,0v-13.9v-0.007c0-1.55-0.636-2.959-1.656-3.979
	c-1.019-1.016-2.425-1.646-3.974-1.646h-0.004H50.431h-0.007c-1.545,0-2.955,0.633-3.974,1.658
	c-1.019,1.012-1.648,2.422-1.648,3.975l0,0V151.792z"/>
</svg>
