<?xml version="1.0" encoding="utf-8"?>
<!-- Generator: Adobe Illustrator 15.0.0, SVG Export Plug-In . SVG Version: 6.00 Build 0)  -->
<!DOCTYPE svg PUBLIC "-//W3C//DTD SVG 1.1//EN" "http://www.w3.org/Graphics/SVG/1.1/DTD/svg11.dtd">
<svg version="1.1" id="Calque_1" xmlns="http://www.w3.org/2000/svg" xmlns:xlink="http://www.w3.org/1999/xlink" x="0px" y="0px"
	 width="256px" height="256px" viewBox="0 0 256 256" enable-background="new 0 0 256 256" xml:space="preserve">
<g>
	<polygon fill="#222454" points="44,256.001 44,256.001 44,239.621 218.667,239.621 218.667,256.001 	"/>
	<path fill="#222454" d="M124.974,235.016L124.974,235.016V0h93.693v235.016H124.974L124.974,235.016z"/>
	<path fill="#222454" d="M44,235.016L44,235.016V0h76.05v235.016H44L44,235.016z"/>
	<path fill="#FFFFFF" d="M131.333,125.869L131.333,125.869c0,9.123,1.215,13.523,3.653,13.199c2.332,0.324,3.5-4.131,3.5-13.354
		v-35.94V53.843c0-9.438-1.168-13.938-3.5-13.514c-2.438-0.532-3.653,4.022-3.653,13.668v35.94V125.869z"/>
	<path fill="#FFFFFF" d="M106.166,125.869L106.166,125.869c0,9.123,1.215,13.523,3.653,13.199c2.332,0.324,3.5-4.131,3.5-13.354
		v-35.94V53.843c0-9.438-1.169-13.938-3.5-13.514c-2.438-0.532-3.653,4.022-3.653,13.668v35.94V125.869z"/>
	<rect x="54.396" y="68.364" fill="#FFFFFF" width="41.581" height="53.521"/>
	<rect x="56.447" y="70.552" fill="#222454" width="37.341" height="17.371"/>
</g>
</svg>
