<?xml version="1.0" encoding="utf-8"?>
<!-- Generator: Adobe Illustrator 15.0.0, SVG Export Plug-In . SVG Version: 6.00 Build 0)  -->
<!DOCTYPE svg PUBLIC "-//W3C//DTD SVG 1.1//EN" "http://www.w3.org/Graphics/SVG/1.1/DTD/svg11.dtd">
<svg version="1.1" id="Calque_1" xmlns="http://www.w3.org/2000/svg" xmlns:xlink="http://www.w3.org/1999/xlink" x="0px" y="0px"
	 width="256px" height="256px" viewBox="0 0 256 256" enable-background="new 0 0 256 256" xml:space="preserve">
<g>
	<path fill="#222454" d="M9.323,249.912L9.323,249.912V69.923h235.591v179.989H9.323L9.323,249.912z M198.796,164.414
		L198.796,164.414v-54.475H58.014v54.475H198.796L198.796,164.414z M91.126,101.745L91.126,101.745h35.996h37.276
		c8.895,0,13.022-1.447,12.379-4.339c0.535-2.364-4.184-3.483-14.145-3.373h-35.676H90.636c-9.422-0.11-13.815,1.009-13.169,3.373
		C76.93,100.298,81.478,101.745,91.126,101.745z"/>
	<path fill="#222454" d="M9.323,50.481L9.323,50.481V5h235.591v45.481H9.323L9.323,50.481z M37.926,29.612L37.926,29.612
		c1.5,1.448,3.272,2.17,5.309,2.17c2.14,0,3.958-0.746,5.458-2.246c1.501-1.5,2.255-3.273,2.255-5.311
		c0-2.139-0.754-3.957-2.255-5.459c-1.5-1.5-3.318-2.253-5.458-2.253c-2.036,0-3.809,0.753-5.309,2.253
		c-1.494,1.502-2.248,3.32-2.248,5.459C35.678,26.371,36.432,28.167,37.926,29.612L37.926,29.612z M104.458,47.083L104.458,47.083
		v-5.781H38.406v5.781H104.458L104.458,47.083z M65.571,30.017L65.571,30.017c1.501,1.493,3.265,2.249,5.303,2.249
		c2.036,0,3.802-0.756,5.303-2.249c1.5-1.5,2.246-3.317,2.246-5.466c0-2.036-0.747-3.801-2.246-5.301
		c-1.501-1.501-3.267-2.255-5.303-2.255c-2.038,0-3.802,0.754-5.303,2.255c-1.5,1.5-2.254,3.266-2.254,5.301
		C63.317,26.699,64.07,28.517,65.571,30.017L65.571,30.017z M94.818,30.017L94.818,30.017c1.501,1.493,3.266,2.249,5.303,2.249
		c2.036,0,3.801-0.756,5.302-2.249c1.5-1.5,2.255-3.317,2.255-5.466c0-2.036-0.755-3.801-2.255-5.301
		c-1.501-1.501-3.266-2.255-5.302-2.255c-2.038,0-3.802,0.754-5.303,2.255c-1.5,1.5-2.254,3.266-2.254,5.301
		C92.564,26.699,93.319,28.517,94.818,30.017L94.818,30.017z M122.216,29.612L122.216,29.612c1.446,1.448,3.241,2.17,5.389,2.17
		c2.036,0,3.799-0.746,5.299-2.246c1.504-1.5,2.248-3.273,2.248-5.311c0-2.139-0.744-3.957-2.248-5.459
		c-1.5-1.5-3.266-2.253-5.299-2.253c-2.148,0-3.943,0.753-5.389,2.253c-1.445,1.502-2.169,3.32-2.169,5.459
		C120.046,26.371,120.771,28.167,122.216,29.612L122.216,29.612z M218.076,47.404L218.076,47.404v-5.783H151.87v5.783H218.076
		L218.076,47.404z M197.907,29.612L197.907,29.612c1.448,1.448,3.243,2.17,5.381,2.17c2.146,0,3.974-0.746,5.465-2.246
		c1.502-1.5,2.256-3.273,2.256-5.311c0-2.139-0.754-3.957-2.256-5.459c-1.492-1.5-3.317-2.253-5.465-2.253
		c-2.138,0-3.933,0.753-5.381,2.253c-1.445,1.502-2.167,3.32-2.167,5.459C195.74,26.371,196.462,28.167,197.907,29.612z"/>
	<rect y="54.994" fill="#222454" width="256" height="10.932"/>
</g>
</svg>
