<?xml version="1.0" encoding="utf-8"?>
<!-- Generator: Adobe Illustrator 15.0.0, SVG Export Plug-In . SVG Version: 6.00 Build 0)  -->
<!DOCTYPE svg PUBLIC "-//W3C//DTD SVG 1.1//EN" "http://www.w3.org/Graphics/SVG/1.1/DTD/svg11.dtd">
<svg version="1.1" id="Calque_1" xmlns="http://www.w3.org/2000/svg" xmlns:xlink="http://www.w3.org/1999/xlink" x="0px" y="0px"
	 width="256px" height="256px" viewBox="0 0 256 256" enable-background="new 0 0 256 256" xml:space="preserve">
<g>
	<polygon fill="#222454" points="60,256.001 60,256.001 60,239.621 218.37,239.621 218.37,256.001 	"/>
	<path fill="#222454" d="M60,235.016L60,235.016V74.571h158.37v160.445H60L60,235.016z M67.793,171.404L67.793,171.404
		c0,9.123,1.215,13.523,3.653,13.199c2.331,0.324,3.5-4.131,3.5-13.354v-35.938V99.378c0-9.438-1.17-13.938-3.5-13.514
		c-2.438-0.532-3.653,4.021-3.653,13.667v35.939V171.404z"/>
	<path fill="#222454" d="M60,72.501V0h158.37v72.501H60L60,72.501z M67.793,57.717L67.793,57.717c0,5.092,1.215,7.576,3.653,7.477
		c2.331,0.1,3.5-2.44,3.5-7.64V37.2V16.854c0-5.3-1.17-7.9-3.5-7.793c-2.438-0.214-3.653,2.385-3.653,7.793V37.2V57.717z"/>
</g>
</svg>
