<?xml version="1.0" encoding="utf-8"?>
<!-- Generator: Adobe Illustrator 15.0.0, SVG Export Plug-In . SVG Version: 6.00 Build 0)  -->
<!DOCTYPE svg PUBLIC "-//W3C//DTD SVG 1.1//EN" "http://www.w3.org/Graphics/SVG/1.1/DTD/svg11.dtd">
<svg version="1.1" id="Calque_1" xmlns="http://www.w3.org/2000/svg" xmlns:xlink="http://www.w3.org/1999/xlink" x="0px" y="0px"
	 width="256px" height="256px" viewBox="0 0 256 256" enable-background="new 0 0 256 256" xml:space="preserve">
<g>
	<rect x="31.152" fill="#222454" width="195.048" height="256.001"/>
	<g>
		<path fill="#FFFFFF" d="M128.677,212.52c-37.867,0-68.674-30.805-68.674-68.67c0-37.868,30.807-68.675,68.674-68.675
			c37.866,0,68.671,30.807,68.671,68.675C197.348,181.715,166.543,212.52,128.677,212.52z M128.677,87.365
			c-31.146,0-56.483,25.338-56.483,56.482c0,31.144,25.337,56.48,56.483,56.48c31.144,0,56.48-25.338,56.48-56.48
			C185.157,112.703,159.818,87.365,128.677,87.365z"/>
	</g>
	<path fill="#FFFFFF" d="M178.857,143.85c0,16.029-7.17,30.377-18.469,40.032v-80.067
		C171.688,113.47,178.857,127.818,178.857,143.85z"/>
	<polygon fill="#FFFFFF" points="31.152,226.743 31.152,232.839 184.548,232.839 184.548,256.001 190.645,256.001 190.645,232.839 
		226.2,232.839 226.2,226.743 	"/>
	<polygon fill="#FFFFFF" points="226.2,17.778 226.2,11.683 31.152,11.683 31.152,17.778 91.089,17.778 91.089,56.076 
		31.152,56.076 31.152,62.171 226.2,62.171 226.2,56.076 97.184,56.076 97.184,17.778 	"/>
	<rect x="37.265" y="35.048" fill="#FFFFFF" width="48.152" height="14.628"/>
	<rect x="148.809" y="26.515" fill="#FFFFFF" width="35.353" height="9.193"/>
	<circle fill="#222454" cx="118.026" cy="36.927" r="9.143"/>
	<circle fill="#FFFFFF" cx="118.026" cy="36.927" r="9.143"/>
	<circle fill="#FFFFFF" cx="152.363" cy="44.139" r="3.556"/>
	<circle fill="#FFFFFF" cx="180.402" cy="44.139" r="3.556"/>
	<circle fill="#FFFFFF" cx="165.773" cy="44.139" r="3.556"/>
	<circle fill="#FFFFFF" cx="218.09" cy="25.804" r="4.063"/>
</g>
</svg>
