<?xml version="1.0" encoding="utf-8"?>
<!-- Generator: Adobe Illustrator 15.0.0, SVG Export Plug-In . SVG Version: 6.00 Build 0)  -->
<!DOCTYPE svg PUBLIC "-//W3C//DTD SVG 1.1//EN" "http://www.w3.org/Graphics/SVG/1.1/DTD/svg11.dtd">
<svg version="1.1" id="Calque_1" xmlns="http://www.w3.org/2000/svg" xmlns:xlink="http://www.w3.org/1999/xlink" x="0px" y="0px"
	 width="256px" height="256px" viewBox="0 0 256 256" enable-background="new 0 0 256 256" xml:space="preserve">
<g>
	<path fill="#222454" d="M161.85,128.329h-12.988c0.205-1.843,0.314-3.734,0.314-5.667c0-14.661-6.146-27.103-14.699-31.562
		c1.053-2.208,1.703-5.169,1.703-8.435c0-6.419-2.494-11.688-5.673-12.274V0h-6.005v70.394c-3.172,0.606-5.654,5.869-5.654,12.271
		c0,3.266,0.648,6.227,1.701,8.435c-8.544,4.462-14.699,16.901-14.699,31.562c0,1.933,0.11,3.824,0.316,5.667H93.187v9.998h68.663
		V128.329z"/>
	<path fill="#222454" d="M94.516,211.986c0,0-10.995,39.664,29.664,43.998c0,0,0.614,0.024,1.661,0.011
		c1.029,0.015,1.65-0.011,1.65-0.011c40.669-4.334,29.663-43.998,29.663-43.998c-1.385-5.772-7.889-18.579-11.748-25.906h67.197
		l-51.236-45.416h-34.515h-0.148H92.181L40.943,186.08h65.333C102.405,193.407,95.902,206.214,94.516,211.986z"/>
</g>
</svg>
