<?xml version="1.0" encoding="utf-8"?>
<!-- Generator: Adobe Illustrator 15.0.0, SVG Export Plug-In . SVG Version: 6.00 Build 0)  -->
<!DOCTYPE svg PUBLIC "-//W3C//DTD SVG 1.1//EN" "http://www.w3.org/Graphics/SVG/1.1/DTD/svg11.dtd">
<svg version="1.1" id="Calque_1" xmlns="http://www.w3.org/2000/svg" xmlns:xlink="http://www.w3.org/1999/xlink" x="0px" y="0px"
	 width="256px" height="256px" viewBox="0 0 256 256" enable-background="new 0 0 256 256" xml:space="preserve">
<path fill="#222454" d="M256,249.6c0,3.535-2.865,6.4-6.4,6.4H6.4c-3.534,0-6.4-2.865-6.4-6.4V6.4C0,2.865,2.866,0,6.4,0h243.2
	c3.535,0,6.4,2.865,6.4,6.4V249.6z"/>
<circle fill="#FFFFFF" cx="25.6" cy="25.601" r="1.28"/>
<circle fill="#FFFFFF" cx="51.199" cy="25.601" r="1.28"/>
<circle fill="#FFFFFF" cx="76.8" cy="25.601" r="1.28"/>
<circle fill="#FFFFFF" cx="102.4" cy="25.601" r="1.28"/>
<circle fill="#FFFFFF" cx="25.6" cy="51.201" r="1.28"/>
<circle fill="#FFFFFF" cx="51.199" cy="51.201" r="1.28"/>
<circle fill="#FFFFFF" cx="76.8" cy="51.201" r="1.28"/>
<circle fill="#FFFFFF" cx="102.4" cy="51.201" r="1.28"/>
<circle fill="#FFFFFF" cx="25.6" cy="76.801" r="1.28"/>
<circle fill="#FFFFFF" cx="51.199" cy="76.801" r="1.28"/>
<circle fill="#FFFFFF" cx="76.8" cy="76.801" r="1.28"/>
<circle fill="#FFFFFF" cx="102.4" cy="76.801" r="1.28"/>
<circle fill="#FFFFFF" cx="25.6" cy="102.401" r="1.28"/>
<circle fill="#FFFFFF" cx="51.199" cy="102.401" r="1.28"/>
<circle fill="#FFFFFF" cx="76.8" cy="102.401" r="1.28"/>
<circle fill="#FFFFFF" cx="102.4" cy="102.401" r="1.28"/>
<circle fill="#FFFFFF" cx="25.6" cy="128" r="1.28"/>
<circle fill="#FFFFFF" cx="51.199" cy="128" r="1.28"/>
<circle fill="#FFFFFF" cx="76.8" cy="128" r="1.28"/>
<circle fill="#FFFFFF" cx="102.4" cy="128" r="1.28"/>
<circle fill="#FFFFFF" cx="25.6" cy="153.602" r="1.28"/>
<circle fill="#FFFFFF" cx="51.199" cy="153.602" r="1.28"/>
<circle fill="#FFFFFF" cx="76.8" cy="153.602" r="1.28"/>
<circle fill="#FFFFFF" cx="102.4" cy="153.602" r="1.28"/>
<circle fill="#FFFFFF" cx="25.6" cy="179.201" r="1.28"/>
<circle fill="#FFFFFF" cx="51.199" cy="179.201" r="1.28"/>
<circle fill="#FFFFFF" cx="76.8" cy="179.201" r="1.28"/>
<circle fill="#FFFFFF" cx="102.4" cy="179.201" r="1.28"/>
<circle fill="#FFFFFF" cx="25.6" cy="204.801" r="1.28"/>
<circle fill="#FFFFFF" cx="51.199" cy="204.801" r="1.28"/>
<circle fill="#FFFFFF" cx="76.8" cy="204.801" r="1.28"/>
<circle fill="#FFFFFF" cx="102.4" cy="204.801" r="1.28"/>
<circle fill="#FFFFFF" cx="25.6" cy="230.4" r="1.28"/>
<circle fill="#FFFFFF" cx="51.199" cy="230.4" r="1.28"/>
<circle fill="#FFFFFF" cx="76.8" cy="230.4" r="1.28"/>
<circle fill="#FFFFFF" cx="102.4" cy="230.4" r="1.28"/>
<circle fill="#FFFFFF" cx="128" cy="25.601" r="1.28"/>
<circle fill="#FFFFFF" cx="153.6" cy="25.601" r="1.28"/>
<circle fill="#FFFFFF" cx="128" cy="51.201" r="1.28"/>
<circle fill="#FFFFFF" cx="153.6" cy="51.201" r="1.28"/>
<circle fill="#FFFFFF" cx="128" cy="76.801" r="1.28"/>
<circle fill="#FFFFFF" cx="153.6" cy="76.801" r="1.28"/>
<circle fill="#FFFFFF" cx="128" cy="102.401" r="1.28"/>
<circle fill="#FFFFFF" cx="153.6" cy="102.401" r="1.28"/>
<circle fill="#FFFFFF" cx="128" cy="128" r="1.28"/>
<circle fill="#FFFFFF" cx="153.6" cy="128" r="1.28"/>
<circle fill="#FFFFFF" cx="128" cy="153.602" r="1.28"/>
<circle fill="#FFFFFF" cx="153.6" cy="153.602" r="1.28"/>
<circle fill="#FFFFFF" cx="128" cy="179.201" r="1.28"/>
<circle fill="#FFFFFF" cx="153.6" cy="179.201" r="1.28"/>
<circle fill="#FFFFFF" cx="128" cy="204.801" r="1.28"/>
<circle fill="#FFFFFF" cx="153.6" cy="204.801" r="1.28"/>
<circle fill="#FFFFFF" cx="128" cy="230.4" r="1.28"/>
<circle fill="#FFFFFF" cx="153.6" cy="230.4" r="1.28"/>
<circle fill="#FFFFFF" cx="179.2" cy="25.601" r="1.28"/>
<circle fill="#FFFFFF" cx="204.8" cy="25.601" r="1.28"/>
<circle fill="#FFFFFF" cx="179.2" cy="51.201" r="1.28"/>
<circle fill="#FFFFFF" cx="204.8" cy="51.201" r="1.28"/>
<circle fill="#FFFFFF" cx="179.2" cy="76.801" r="1.28"/>
<circle fill="#FFFFFF" cx="204.8" cy="76.801" r="1.28"/>
<circle fill="#FFFFFF" cx="179.2" cy="102.401" r="1.28"/>
<circle fill="#FFFFFF" cx="204.8" cy="102.401" r="1.28"/>
<circle fill="#FFFFFF" cx="179.2" cy="128" r="1.28"/>
<circle fill="#FFFFFF" cx="204.8" cy="128" r="1.28"/>
<circle fill="#FFFFFF" cx="179.2" cy="153.602" r="1.28"/>
<circle fill="#FFFFFF" cx="204.8" cy="153.602" r="1.28"/>
<circle fill="#FFFFFF" cx="179.2" cy="179.201" r="1.28"/>
<circle fill="#FFFFFF" cx="204.8" cy="179.201" r="1.28"/>
<circle fill="#FFFFFF" cx="179.2" cy="204.801" r="1.28"/>
<circle fill="#FFFFFF" cx="204.8" cy="204.801" r="1.28"/>
<circle fill="#FFFFFF" cx="179.2" cy="230.4" r="1.28"/>
<circle fill="#FFFFFF" cx="204.8" cy="230.4" r="1.28"/>
<circle fill="#FFFFFF" cx="230.4" cy="25.601" r="1.28"/>
<circle fill="#FFFFFF" cx="230.4" cy="51.201" r="1.28"/>
<circle fill="#FFFFFF" cx="230.4" cy="76.801" r="1.28"/>
<circle fill="#FFFFFF" cx="230.4" cy="102.401" r="1.28"/>
<circle fill="#FFFFFF" cx="230.4" cy="128" r="1.28"/>
<circle fill="#FFFFFF" cx="230.4" cy="153.602" r="1.28"/>
<circle fill="#FFFFFF" cx="230.4" cy="179.201" r="1.28"/>
<circle fill="#FFFFFF" cx="230.4" cy="204.801" r="1.28"/>
<circle fill="#FFFFFF" cx="230.4" cy="230.4" r="1.28"/>
<polygon fill="#FFFFFF" points="256,223.449 256,242.01 241.996,256 223.438,256 "/>
</svg>
