<?xml version="1.0" encoding="utf-8"?>
<!-- Generator: Adobe Illustrator 15.0.0, SVG Export Plug-In . SVG Version: 6.00 Build 0)  -->
<!DOCTYPE svg PUBLIC "-//W3C//DTD SVG 1.1//EN" "http://www.w3.org/Graphics/SVG/1.1/DTD/svg11.dtd">
<svg version="1.1" id="Calque_1" xmlns="http://www.w3.org/2000/svg" xmlns:xlink="http://www.w3.org/1999/xlink" x="0px" y="0px"
	 width="256px" height="256px" viewBox="0 0 256 256" enable-background="new 0 0 256 256" xml:space="preserve">
<path fill="#222454" d="M191.414,6.738v242.526c0,3.719-3.02,6.736-6.737,6.736H76.888c-3.718,0-6.737-3.018-6.737-6.736V6.738
	c0-3.718,3.019-6.737,6.737-6.737h107.789C188.396,0.001,191.414,3.02,191.414,6.738z"/>
<circle fill="#FFFFFF" cx="89.912" cy="20.211" r="1.347"/>
<circle fill="#FFFFFF" cx="116.859" cy="20.211" r="1.347"/>
<circle fill="#FFFFFF" cx="143.807" cy="20.211" r="1.347"/>
<circle fill="#FFFFFF" cx="170.753" cy="20.211" r="1.347"/>
<circle fill="#FFFFFF" cx="89.912" cy="47.159" r="1.347"/>
<circle fill="#FFFFFF" cx="116.859" cy="47.159" r="1.347"/>
<circle fill="#FFFFFF" cx="143.807" cy="47.159" r="1.347"/>
<circle fill="#FFFFFF" cx="170.753" cy="47.159" r="1.347"/>
<circle fill="#FFFFFF" cx="89.912" cy="74.106" r="1.347"/>
<circle fill="#FFFFFF" cx="116.859" cy="74.106" r="1.347"/>
<circle fill="#FFFFFF" cx="143.807" cy="74.106" r="1.347"/>
<circle fill="#FFFFFF" cx="170.753" cy="74.106" r="1.347"/>
<circle fill="#FFFFFF" cx="89.912" cy="101.054" r="1.347"/>
<circle fill="#FFFFFF" cx="116.859" cy="101.054" r="1.347"/>
<circle fill="#FFFFFF" cx="143.807" cy="101.054" r="1.347"/>
<circle fill="#FFFFFF" cx="170.753" cy="101.054" r="1.347"/>
<circle fill="#FFFFFF" cx="89.912" cy="128.001" r="1.347"/>
<circle fill="#FFFFFF" cx="116.859" cy="128.001" r="1.347"/>
<circle fill="#FFFFFF" cx="143.807" cy="128.001" r="1.347"/>
<circle fill="#FFFFFF" cx="170.753" cy="128.001" r="1.347"/>
<circle fill="#FFFFFF" cx="89.912" cy="154.947" r="1.347"/>
<circle fill="#FFFFFF" cx="116.859" cy="154.947" r="1.347"/>
<circle fill="#FFFFFF" cx="143.807" cy="154.947" r="1.347"/>
<circle fill="#FFFFFF" cx="170.753" cy="154.947" r="1.347"/>
<circle fill="#FFFFFF" cx="89.912" cy="181.895" r="1.347"/>
<circle fill="#FFFFFF" cx="116.859" cy="181.895" r="1.347"/>
<circle fill="#FFFFFF" cx="143.807" cy="181.895" r="1.347"/>
<circle fill="#FFFFFF" cx="170.753" cy="181.895" r="1.347"/>
<circle fill="#FFFFFF" cx="89.912" cy="208.842" r="1.347"/>
<circle fill="#FFFFFF" cx="116.859" cy="208.842" r="1.347"/>
<circle fill="#FFFFFF" cx="143.807" cy="208.842" r="1.347"/>
<circle fill="#FFFFFF" cx="170.753" cy="208.842" r="1.347"/>
<circle fill="#FFFFFF" cx="89.912" cy="235.789" r="1.347"/>
<circle fill="#FFFFFF" cx="116.859" cy="235.789" r="1.347"/>
<circle fill="#FFFFFF" cx="143.807" cy="235.789" r="1.347"/>
<circle fill="#FFFFFF" cx="170.753" cy="235.789" r="1.347"/>
<polygon fill="#FFFFFF" points="191.414,221.738 191.414,241.273 176.673,256 157.137,256 "/>
</svg>
