<?xml version="1.0" encoding="utf-8"?>
<!-- Generator: Adobe Illustrator 15.0.0, SVG Export Plug-In . SVG Version: 6.00 Build 0)  -->
<!DOCTYPE svg PUBLIC "-//W3C//DTD SVG 1.1//EN" "http://www.w3.org/Graphics/SVG/1.1/DTD/svg11.dtd">
<svg version="1.1" id="Calque_1" xmlns="http://www.w3.org/2000/svg" xmlns:xlink="http://www.w3.org/1999/xlink" x="0px" y="0px"
	 width="256px" height="256px" viewBox="0 0 256 256" enable-background="new 0 0 256 256" xml:space="preserve">
<path fill="#222454" d="M226.383,249.262c0,3.721-3.018,6.736-6.736,6.736H44.488c-3.72,0-6.737-3.016-6.737-6.736V6.737
	C37.751,3.016,40.768,0,44.488,0h175.159c3.72,0,6.736,3.016,6.736,6.737V249.262z"/>
<circle fill="#FFFFFF" cx="65.147" cy="20.211" r="1.347"/>
<circle fill="#FFFFFF" cx="92.094" cy="20.211" r="1.347"/>
<circle fill="#FFFFFF" cx="119.041" cy="20.211" r="1.347"/>
<circle fill="#FFFFFF" cx="145.988" cy="20.211" r="1.348"/>
<circle fill="#FFFFFF" cx="65.147" cy="47.158" r="1.347"/>
<circle fill="#FFFFFF" cx="92.094" cy="47.158" r="1.347"/>
<circle fill="#FFFFFF" cx="119.041" cy="47.158" r="1.347"/>
<circle fill="#FFFFFF" cx="145.988" cy="47.158" r="1.348"/>
<circle fill="#FFFFFF" cx="65.147" cy="74.105" r="1.347"/>
<circle fill="#FFFFFF" cx="92.094" cy="74.105" r="1.347"/>
<circle fill="#FFFFFF" cx="119.041" cy="74.105" r="1.347"/>
<circle fill="#FFFFFF" cx="145.988" cy="74.105" r="1.348"/>
<circle fill="#FFFFFF" cx="65.147" cy="101.053" r="1.347"/>
<circle fill="#FFFFFF" cx="92.094" cy="101.053" r="1.347"/>
<circle fill="#FFFFFF" cx="119.041" cy="101.053" r="1.347"/>
<circle fill="#FFFFFF" cx="145.988" cy="101.053" r="1.348"/>
<circle fill="#FFFFFF" cx="65.147" cy="128" r="1.347"/>
<circle fill="#FFFFFF" cx="92.094" cy="128" r="1.347"/>
<circle fill="#FFFFFF" cx="119.041" cy="128" r="1.347"/>
<circle fill="#FFFFFF" cx="145.988" cy="128" r="1.348"/>
<circle fill="#FFFFFF" cx="65.147" cy="154.947" r="1.347"/>
<circle fill="#FFFFFF" cx="92.094" cy="154.947" r="1.347"/>
<circle fill="#FFFFFF" cx="119.041" cy="154.947" r="1.347"/>
<circle fill="#FFFFFF" cx="145.988" cy="154.947" r="1.348"/>
<circle fill="#FFFFFF" cx="65.147" cy="181.895" r="1.347"/>
<circle fill="#FFFFFF" cx="92.094" cy="181.895" r="1.347"/>
<circle fill="#FFFFFF" cx="119.041" cy="181.895" r="1.347"/>
<circle fill="#FFFFFF" cx="145.988" cy="181.895" r="1.348"/>
<circle fill="#FFFFFF" cx="65.147" cy="208.842" r="1.347"/>
<circle fill="#FFFFFF" cx="92.094" cy="208.842" r="1.347"/>
<circle fill="#FFFFFF" cx="119.041" cy="208.842" r="1.347"/>
<circle fill="#FFFFFF" cx="145.988" cy="208.842" r="1.348"/>
<circle fill="#FFFFFF" cx="65.147" cy="235.789" r="1.347"/>
<circle fill="#FFFFFF" cx="92.094" cy="235.789" r="1.347"/>
<circle fill="#FFFFFF" cx="119.041" cy="235.789" r="1.347"/>
<circle fill="#FFFFFF" cx="145.988" cy="235.789" r="1.348"/>
<circle fill="#FFFFFF" cx="172.936" cy="20.211" r="1.348"/>
<circle fill="#FFFFFF" cx="199.883" cy="20.211" r="1.348"/>
<circle fill="#FFFFFF" cx="172.936" cy="47.158" r="1.348"/>
<circle fill="#FFFFFF" cx="199.883" cy="47.158" r="1.348"/>
<circle fill="#FFFFFF" cx="172.936" cy="74.105" r="1.348"/>
<circle fill="#FFFFFF" cx="199.883" cy="74.105" r="1.348"/>
<circle fill="#FFFFFF" cx="172.936" cy="101.053" r="1.348"/>
<circle fill="#FFFFFF" cx="199.883" cy="101.053" r="1.348"/>
<circle fill="#FFFFFF" cx="172.936" cy="128" r="1.348"/>
<circle fill="#FFFFFF" cx="199.883" cy="128" r="1.348"/>
<circle fill="#FFFFFF" cx="172.936" cy="154.947" r="1.348"/>
<circle fill="#FFFFFF" cx="199.883" cy="154.947" r="1.348"/>
<circle fill="#FFFFFF" cx="172.936" cy="181.895" r="1.348"/>
<circle fill="#FFFFFF" cx="199.883" cy="181.895" r="1.348"/>
<circle fill="#FFFFFF" cx="172.936" cy="208.842" r="1.348"/>
<circle fill="#FFFFFF" cx="199.883" cy="208.842" r="1.348"/>
<circle fill="#FFFFFF" cx="172.936" cy="235.789" r="1.348"/>
<circle fill="#FFFFFF" cx="199.883" cy="235.789" r="1.348"/>
<polygon fill="#FFFFFF" points="226.383,221.736 226.383,241.273 211.643,256 192.105,256 "/>
</svg>
