<?xml version="1.0" encoding="utf-8"?>
<!-- Generator: Adobe Illustrator 15.0.0, SVG Export Plug-In . SVG Version: 6.00 Build 0)  -->
<!DOCTYPE svg PUBLIC "-//W3C//DTD SVG 1.1//EN" "http://www.w3.org/Graphics/SVG/1.1/DTD/svg11.dtd">
<svg version="1.1" id="Calque_1" xmlns="http://www.w3.org/2000/svg" xmlns:xlink="http://www.w3.org/1999/xlink" x="0px" y="0px"
	 width="256px" height="256px" viewBox="0 0 256 256" enable-background="new 0 0 256 256" xml:space="preserve">
<g>
	<path fill="#222454" d="M10.129,217.468L10.129,217.468V72.739h236.864v144.729H10.129L10.129,217.468z M111.602,154.432
		L111.602,154.432v-41.326h-7.243v41.326H111.602L111.602,154.432z M152.764,154.432L152.764,154.432v-41.326h-7.074v41.326H152.764
		L152.764,154.432z M230.113,197.525L230.113,197.525V87.698H129.932v109.827H230.113L230.113,197.525z M135.555,191.896h88.926
		V93.324h-88.926V191.896L135.555,191.896L135.555,191.896z M127.838,197.525L127.838,197.525V87.698H27.818v109.827H127.838
		L127.838,197.525z M33.45,191.896h88.598V93.324H33.45V191.896L33.45,191.896z"/>
	<polygon fill="#222454" points="10.129,247.212 10.129,247.212 10.129,220.84 246.993,220.84 246.993,247.212 	"/>
	<polygon fill="#222454" points="10.129,38.557 10.129,38.557 10.129,8 246.993,8 246.993,38.557 	"/>
	<rect y="41.574" fill="#222454" width="255.999" height="27.665"/>
</g>
</svg>
