<?xml version="1.0" encoding="utf-8"?>
<!-- Generator: Adobe Illustrator 15.0.0, SVG Export Plug-In . SVG Version: 6.00 Build 0)  -->
<!DOCTYPE svg PUBLIC "-//W3C//DTD SVG 1.1//EN" "http://www.w3.org/Graphics/SVG/1.1/DTD/svg11.dtd">
<svg version="1.1" id="Calque_1" xmlns="http://www.w3.org/2000/svg" xmlns:xlink="http://www.w3.org/1999/xlink" x="0px" y="0px"
	 width="256px" height="256px" viewBox="0 0 256 256" enable-background="new 0 0 256 256" xml:space="preserve">
<g>
	<g>
		<path fill="#222454" d="M0,200.795V51.202h255.999v149.593H0L0,200.795z"/>
		<polygon fill="#FFFFFF" points="237.491,173.627 237.491,173.627 237.491,164.126 246.348,164.126 246.348,173.627 		"/>
		<polygon fill="#FFFFFF" points="237.491,155.598 237.491,155.598 237.491,146.094 246.348,146.094 246.348,155.598 		"/>
		<polygon fill="#FFFFFF" points="220.745,173.627 220.745,173.627 220.745,164.126 229.602,164.126 229.602,173.627 		"/>
		<polygon fill="#FFFFFF" points="220.745,155.598 220.745,155.598 220.745,146.094 229.602,146.094 229.602,155.598 		"/>
		<polygon fill="#FFFFFF" points="203.212,91.125 203.212,91.125 203.212,65.204 247.01,65.204 247.01,91.125 		"/>
		<polygon fill="#FFFFFF" points="202.559,173.627 202.559,173.627 202.559,164.126 211.413,164.126 211.413,173.627 		"/>
		<polygon fill="#FFFFFF" points="202.559,155.598 202.559,155.598 202.559,146.094 211.413,146.094 211.413,155.598 		"/>
		<rect x="188.4" y="51.202" fill="#FFFFFF" width="3.263" height="149.593"/>
		<rect x="13.668" y="65.393" fill="#FFFFFF" width="161.777" height="121.264"/>
		<g>
			<path fill="#FFFFFF" d="M225.109,135.564c-10.282,0-18.647-8.366-18.647-18.648s8.365-18.648,18.647-18.648
				c10.283,0,18.647,8.366,18.647,18.648C243.758,127.199,235.393,135.564,225.109,135.564z M225.109,101.531
				c-8.483,0-15.385,6.902-15.385,15.385s6.9,15.386,15.385,15.386c8.483,0,15.386-6.902,15.386-15.386
				S233.594,101.531,225.109,101.531z"/>
		</g>
	</g>
	<rect x="10.406" y="199.979" fill="#222454" width="27.461" height="10.332"/>
	<rect x="218.132" y="199.979" fill="#222454" width="27.461" height="10.332"/>
</g>
</svg>
