<?xml version="1.0" encoding="utf-8"?>
<!-- Generator: Adobe Illustrator 15.0.0, SVG Export Plug-In . SVG Version: 6.00 Build 0)  -->
<!DOCTYPE svg PUBLIC "-//W3C//DTD SVG 1.1//EN" "http://www.w3.org/Graphics/SVG/1.1/DTD/svg11.dtd">
<svg version="1.1" id="Calque_1" xmlns="http://www.w3.org/2000/svg" xmlns:xlink="http://www.w3.org/1999/xlink" x="0px" y="0px"
	 width="256px" height="256px" viewBox="0 0 256 256" enable-background="new 0 0 256 256" xml:space="preserve">
<g>
	<g>
		<path fill="#FFFFFF" d="M59.23,251.793V38.915l4.145-0.061c0.193-0.003,20.164-0.538,30.381-14.353
			c1.232-1.872,13.856-20.294,33.152-20.294c0.465,0,0.936,0.011,1.408,0.033c0.473-0.022,0.942-0.033,1.407-0.033
			c19.293,0,31.926,18.428,33.152,20.293c10.212,13.814,30.189,14.35,30.391,14.354l4.129,0.078l0.008,4.128v208.733H59.23z"/>
		<path fill="#222454" d="M129.725,8.414c17.818,0,29.693,18.485,29.693,18.485c11.607,15.833,33.777,16.161,33.777,16.161v204.526
			h-64.603h-0.562H63.438V43.06c0,0,22.163-0.328,33.777-16.161c0,0,11.867-18.487,29.694-18.485c0.464,0,0.936,0.013,1.408,0.039
			C128.79,8.427,129.259,8.414,129.725,8.414 M126.905,0c-21.077,0-34.786,19.383-36.588,22.075
			c-8.929,11.972-26.825,12.569-27.004,12.572l-8.29,0.123v8.29v204.526V256h8.414h64.595h0.562h64.602h8.414v-8.414V43.06v-8.29
			l-8.289-0.123c-0.146-0.004-18.051-0.557-27.004-12.571C164.521,19.396,150.801,0,129.725,0c-0.467,0-0.938,0.01-1.408,0.029
			C127.848,0.01,127.376,0,126.909,0l0,0C126.908,0,126.906,0,126.905,0L126.905,0z"/>
	</g>
	
		<rect x="118.091" y="37.791" transform="matrix(-0.7081 -0.7061 0.7061 -0.7081 133.1518 257.3058)" fill="#222454" width="3.33" height="126.684"/>
	<polygon fill="#222454" points="84.276,195.201 81.917,192.844 171.492,103.274 173.846,105.627 	"/>
	<polygon fill="#222454" points="83.172,169.741 77.287,163.852 166.861,74.278 172.747,80.167 	"/>
</g>
</svg>
