<?xml version="1.0" encoding="utf-8"?>
<!-- Generator: Adobe Illustrator 15.0.0, SVG Export Plug-In . SVG Version: 6.00 Build 0)  -->
<!DOCTYPE svg PUBLIC "-//W3C//DTD SVG 1.1//EN" "http://www.w3.org/Graphics/SVG/1.1/DTD/svg11.dtd">
<svg version="1.1" id="Calque_1" xmlns="http://www.w3.org/2000/svg" xmlns:xlink="http://www.w3.org/1999/xlink" x="0px" y="0px"
	 width="256px" height="256px" viewBox="0 0 256 256" enable-background="new 0 0 256 256" xml:space="preserve">
<polygon fill="#222454" points="238.094,78.05 231.368,59.865 234.445,13.056 204.934,7.75 0,11.066 9.285,205.719 16.607,214.247 
	14.259,128.786 38.798,144.04 38.798,240.111 47.42,250.154 55.71,246.175 55.71,139.729 199.605,114.574 197.639,167.253 
	202.943,169.242 206.259,165.264 208.229,113.067 243.505,106.9 242.63,188.714 249.036,192.123 253.68,191.128 256,84.351 "/>
<polygon fill="#FFFFFF" points="58,116 79,127.75 220.5,105.25 201.25,96.75 "/>
<polygon fill="#020202" points="84.458,124.542 80.625,125.111 65.781,117 69.813,116.344 "/>
<polygon fill="#020202" points="91.458,123.542 87.625,124.111 72.781,116 76.813,115.344 "/>
<polygon fill="#020202" points="98.458,122.542 94.625,123.111 79.781,115 83.813,114.344 "/>
<polygon fill="#020202" points="111.458,120.542 107.625,121.111 92.781,113 96.813,112.344 "/>
<polygon fill="#020202" points="118.458,119.542 114.625,120.111 99.781,112 103.813,111.344 "/>
<polygon fill="#020202" points="125.458,118.542 121.625,119.111 106.781,111 110.813,110.344 "/>
<polygon fill="#020202" points="139.459,116.542 135.625,117.111 120.781,109 124.813,108.344 "/>
<polygon fill="#020202" points="146.459,115.542 142.625,116.111 127.781,108 131.813,107.344 "/>
<polygon fill="#020202" points="153.459,114.542 149.625,115.111 134.781,107 138.813,106.344 "/>
<polygon fill="#020202" points="166.002,112.464 162.316,113.011 148.048,105.215 151.923,104.584 "/>
<polygon fill="#020202" points="172.73,111.503 169.045,112.05 154.775,104.253 158.65,103.623 "/>
<polygon fill="#020202" points="179.459,110.542 175.773,111.089 161.505,103.292 165.38,102.662 "/>
<polygon fill="#020202" points="190.375,108.891 186.883,109.409 173.367,102.024 177.038,101.426 "/>
<polygon fill="#020202" points="196.749,107.981 193.257,108.498 179.741,101.113 183.411,100.516 "/>
<polygon fill="#020202" points="203.122,107.07 199.631,107.588 186.113,100.203 189.785,99.605 "/>
<line fill="none" x1="183.411" y1="100.516" x2="196.749" y2="107.981"/>
<polygon fill="#020202" points="203.122,107.07 199.631,107.588 186.113,100.203 189.785,99.605 "/>
<polygon fill="#020202" points="214.749,104.981 211.257,105.498 197.741,98.113 201.411,97.516 "/>
</svg>
