<?xml version="1.0" encoding="utf-8"?>
<!-- Generator: Adobe Illustrator 15.0.0, SVG Export Plug-In . SVG Version: 6.00 Build 0)  -->
<!DOCTYPE svg PUBLIC "-//W3C//DTD SVG 1.1//EN" "http://www.w3.org/Graphics/SVG/1.1/DTD/svg11.dtd">
<svg version="1.1" id="Calque_1" xmlns="http://www.w3.org/2000/svg" xmlns:xlink="http://www.w3.org/1999/xlink" x="0px" y="0px"
	 width="256px" height="256px" viewBox="0 0 256 256" enable-background="new 0 0 256 256" xml:space="preserve">
<path fill="#222454" d="M194.966,57.559c0.033,0.037,0.068,0.068,0.103,0.105c-0.049,0.003-0.092,0.002-0.142,0.007
	c-1.506,4.389-5.667,7.563-10.558,7.583c-6.182,0.025-11.24-4.992-11.266-11.169c-0.023-6.181,4.994-11.237,11.172-11.262
	c0.385-0.002,0.766,0.018,1.137,0.052c0,0,0,0-0.003-0.001c0.003,0.001,0.003,0.001,0.008,0c5.644,0.554,10.099,5.327,10.122,11.121
	C195.542,55.243,195.341,56.439,194.966,57.559L194.966,57.559z M124.188,255.391L124.188,255.391l40.699-0.164l13.522-83.197
	l-109.104,0.438l14.19,83.085L124.188,255.391L124.188,255.391z M187.674,167.282l-127.673,0.509l-0.103-25.468l127.674-0.513
	L187.674,167.282L187.674,167.282L187.674,167.282z M127.552,137.338L127.552,137.338c-0.003-3.529,0.267-7.134,1.251-10.703
	c3.428-12.371,13.944-24.354,23.278-31.691l8.444-6.639c1.785-1.409,5.863-4.683,9.045-7.607c-0.277,1.146-0.519,2.332-0.717,3.542
	c-2.207,13.33,1.349,25.091,7.914,26.177c6.574,1.092,13.734-8.899,15.942-22.226c0.46-2.759,0.67-5.449,0.654-7.986
	c1.165,1.867,2.52,3.73,4.055,5.547c8.724,10.327,19.979,15.238,25.07,10.945c5.089-4.301,2.118-16.23-6.593-26.553
	c-2.188-2.586-4.539-4.837-6.904-6.685c2.631,0.405,5.475,0.589,8.424,0.505c13.506-0.376,24.378-6.11,24.191-12.767
	c-0.183-6.652-11.354-11.777-24.862-11.409c-4.282,0.12-8.308,0.784-11.794,1.834c2.461-2.218,4.873-4.954,7.035-8.101
	c7.647-11.146,9.414-23.301,3.923-27.072c-5.49-3.778-16.21,2.242-23.859,13.377c-2.192,3.193-3.901,6.471-5.091,9.606
	c-0.34-3.006-1.027-6.212-2.104-9.454C180.609,7.151,171.997-1.61,165.672,0.48c-6.326,2.089-8.015,14.265-3.775,27.094
	c1,3.031,2.252,5.829,3.65,8.317c-2.168-1.271-4.568-2.434-7.15-3.419c-12.627-4.815-24.862-3.676-27.229,2.55
	c-2.379,6.217,5.989,15.226,18.606,20.045c3.535,1.347,7.045,2.23,10.31,2.661c-2.778,1.016-5.667,2.401-8.5,4.152
	c-11.504,7.091-18.04,17.494-14.542,23.165c3.203,5.198,13.751,4.653,24.355-0.936l-22.239,15.897
	c-13.936,9.958-19.501,23.453-21.552,37.372L127.552,137.338L127.552,137.338z M112.333,137.396L112.333,137.396l-0.026-29.442
	c0-0.017-0.002-0.024-0.002-0.04c-2.4,1.991-4.914,3.762-7.445,5.225l-1.476,24.294L112.333,137.396L112.333,137.396z
	 M90.063,117.385c4.359,0.454,9.598-1.239,14.797-4.246l0.029-0.453c0.198-3.887,0.578-8.738-0.545-12.535
	c-2.385-8.074-7.927-15.416-13.384-21.641l-6.736-7.683c-4.153-4.735-8.162-10.177-12.398-15.076l30.181,28.308
	c7.489,7.022,10.29,13.876,10.298,23.854c8.396-6.946,15.33-16.509,16.164-24.53c1.561-15.036-39.975-24.265-66.963-41.828
	C65.498,60.714,67.337,115.027,90.063,117.385L90.063,117.385z"/>
</svg>
