<?xml version="1.0" encoding="utf-8"?>
<!-- Generator: Adobe Illustrator 15.0.0, SVG Export Plug-In . SVG Version: 6.00 Build 0)  -->
<!DOCTYPE svg PUBLIC "-//W3C//DTD SVG 1.1//EN" "http://www.w3.org/Graphics/SVG/1.1/DTD/svg11.dtd">
<svg version="1.1" id="Calque_1" xmlns="http://www.w3.org/2000/svg" xmlns:xlink="http://www.w3.org/1999/xlink" x="0px" y="0px"
	 width="256px" height="256px" viewBox="0 0 256 256" enable-background="new 0 0 256 256" xml:space="preserve">
<g>
	<polygon fill="#222454" points="139.297,217.773 128.992,217.773 131.375,14.553 136.914,14.553 	"/>
	<polygon fill="#222454" points="132.953,213.359 138.902,210.982 154.785,254.725 151.587,256.001 	"/>
	<polygon fill="#222454" points="137.453,83.328 132.271,79.558 155.064,50.755 157.85,52.783 	"/>
	<polygon fill="#222454" points="135.824,78.437 130.832,82.452 109,52.912 111.686,50.755 	"/>
	<polygon fill="#222454" points="136.262,35.68 131.08,31.911 153.873,3.108 156.658,5.135 	"/>
	<polygon fill="#222454" points="135.914,27.963 132.387,27.555 136.407,0 138.303,0.22 	"/>
	<polygon fill="#222454" points="135.914,73.228 132.387,72.82 136.407,45.265 138.303,45.485 	"/>
	<polygon fill="#222454" points="137.016,30.79 132.023,34.804 110.191,5.264 112.877,3.108 	"/>
	<polygon fill="#222454" points="130.941,209.355 137.348,209.249 136.637,255.777 133.193,255.833 	"/>
	<polygon fill="#222454" points="129.447,211.146 135.336,213.672 115.638,255.833 112.473,254.475 	"/>
</g>
</svg>
