<?xml version="1.0" encoding="utf-8"?>
<!-- Generator: Adobe Illustrator 15.0.0, SVG Export Plug-In . SVG Version: 6.00 Build 0)  -->
<!DOCTYPE svg PUBLIC "-//W3C//DTD SVG 1.1//EN" "http://www.w3.org/Graphics/SVG/1.1/DTD/svg11.dtd">
<svg version="1.1" id="Calque_1" xmlns="http://www.w3.org/2000/svg" xmlns:xlink="http://www.w3.org/1999/xlink" x="0px" y="0px"
	 width="256px" height="256px" viewBox="0 0 256 256" enable-background="new 0 0 256 256" xml:space="preserve">
<g>
	<polygon fill="#222454" points="234.031,212.316 234.031,212.316 234.031,83.277 247.823,83.277 247.823,212.316 	"/>
	<path fill="#222454" d="M171.889,114.042L171.889,114.042V83.767h59.457v30.275H171.889L171.889,114.042z M196.245,102.808
		L196.245,102.808c1.423,1.389,3.153,2.078,5.185,2.078c2.039,0,3.769-0.714,5.192-2.137s2.139-3.153,2.139-5.185
		c0-1.956-0.715-3.668-2.139-5.133c-1.425-1.465-3.153-2.197-5.192-2.197c-2.029,0-3.762,0.732-5.185,2.197
		c-1.423,1.465-2.14,3.177-2.14,5.133C194.105,99.678,194.823,101.426,196.245,102.808z"/>
	<path fill="#222454" d="M85.454,114.042L85.454,114.042V83.767h84.604v30.275H85.454L85.454,114.042z M123.118,102.808
		L123.118,102.808c1.422,1.389,3.152,2.078,5.189,2.078c2.031,0,3.763-0.714,5.185-2.137c1.425-1.423,2.139-3.153,2.139-5.185
		c0-1.956-0.714-3.668-2.139-5.133c-1.422-1.465-3.153-2.197-5.185-2.197c-2.037,0-3.767,0.732-5.189,2.197
		c-1.426,1.465-2.132,3.177-2.132,5.133C120.986,99.678,121.692,101.426,123.118,102.808z"/>
	<path fill="#222454" d="M24.173,114.042L24.173,114.042V83.767h59.575v30.275H24.173L24.173,114.042z M49.261,102.808
		L49.261,102.808c1.418,1.389,3.155,2.078,5.188,2.078c2.035,0,3.759-0.714,5.185-2.137c1.429-1.423,2.138-3.153,2.138-5.185
		c0-1.956-0.709-3.668-2.138-5.133c-1.426-1.465-3.15-2.197-5.185-2.197c-2.033,0-3.77,0.732-5.188,2.197
		c-1.428,1.465-2.137,3.177-2.137,5.133C47.125,99.678,47.833,101.426,49.261,102.808z"/>
	<polygon fill="#222454" points="7.813,212.316 7.813,212.316 7.813,83.277 21.605,83.277 21.605,212.316 	"/>
	<rect y="60.203" fill="#222454" width="256" height="21.976"/>
</g>
</svg>
