<?xml version="1.0" encoding="utf-8"?>
<!-- Generator: Adobe Illustrator 15.0.0, SVG Export Plug-In . SVG Version: 6.00 Build 0)  -->
<!DOCTYPE svg PUBLIC "-//W3C//DTD SVG 1.1//EN" "http://www.w3.org/Graphics/SVG/1.1/DTD/svg11.dtd">
<svg version="1.1" id="Calque_1" xmlns="http://www.w3.org/2000/svg" xmlns:xlink="http://www.w3.org/1999/xlink" x="0px" y="0px"
	 width="256px" height="256px" viewBox="0 0 256 256" enable-background="new 0 0 256 256" xml:space="preserve">
<path fill="#222454" d="M77.541,163.717c0,0.581-0.117,1.133-0.325,1.639c-0.646,1.567-2.187,2.676-3.989,2.676
	c-2.381,0-4.313-1.932-4.313-4.313v-0.007h0.016c0-1.27-0.693-2.479-1.812-3.407c-1.348-1.118-3.244-1.811-5.363-1.813v0.016h-0.013
	h-0.006v-0.016c-2.124,0.002-4.022,0.692-5.37,1.813c-1.118,0.929-1.812,2.136-1.813,3.404h0.018v0.01v0.007h-0.018
	c0.001,3.897,1.982,7.488,5.179,10.14c3.424,2.842,8.192,4.601,13.483,4.601v-0.014h0.012h0.006v0.014
	c5.296,0,10.066-1.759,13.493-4.604c0.919-0.76,1.738-1.605,2.437-2.51c1.732-2.234,2.738-4.851,2.738-7.625h-0.016v-0.009v-0.007
	h0.016c0-6.527-3.267-12.502-8.542-16.876c-5.503-4.563-13.141-7.386-21.604-7.388v0.016h-0.013h-0.006v-0.016
	c-8.467,0-16.108,2.824-21.614,7.392c-5.273,4.37-8.537,10.341-8.54,16.869h0.017v0.01v0.007h-0.017
	c0.002,9.159,4.552,17.512,11.907,23.607c7.581,6.285,18.091,10.178,29.727,10.178v-0.018h0.012h0.006v0.018
	c11.639,0,22.153-3.893,29.736-10.18c2.224-1.844,4.187-3.896,5.85-6.112c3.834-5.11,6.052-11.104,6.054-17.491h-0.017v-0.009
	v-0.007h0.017c-0.001-11.786-5.837-22.521-15.271-30.343c-9.66-8.009-23.042-12.965-37.848-12.968v0.017h-0.013h-0.006V120.4
	c-14.81,0-28.194,4.959-37.857,12.968c-3.545,2.942-6.583,6.296-8.992,9.961l-2.413,4.524c-0.151,0.287-0.328,0.547-0.53,0.781
	c-2.15,4.7-3.332,9.779-3.333,15.072h0.018v0.01v0.008H8.61c0.001,14.416,7.123,27.529,18.634,37.073
	c11.74,9.729,27.992,15.756,45.97,15.759v-0.02h0.012h105.981h5.874l59.784-125.514h-82.249c-0.294,0-0.583-0.028-0.859-0.084
	l-40.968,86.49c-1.089,2.701-2.489,5.28-4.17,7.701c-2.25,3.246-4.998,6.218-8.157,8.84c-9.04,7.495-21.499,12.136-35.229,12.136
	v0.016h-0.006h-0.012v-0.016c-13.726-0.004-26.181-4.641-35.219-12.136c-9.271-7.686-15.006-18.378-15.008-30.245h-0.017v-0.008
	v-0.01h0.017c0.003-9.237,4.452-17.549,11.641-23.51c6.962-5.771,16.549-9.348,27.106-9.348v-0.017h0.006h0.013v0.017
	c10.555,0.004,20.137,3.575,27.099,9.346c7.191,5.963,11.641,14.273,11.642,23.515h0.017v0.007v0.01h-0.017
	c-0.001,4.207-1.287,8.142-3.54,11.537c-1.285,1.936-2.881,3.698-4.737,5.235c-4.883,4.052-11.6,6.56-18.985,6.56v0.017h-0.006
	h-0.012v-0.017c-7.381-0.005-14.095-2.508-18.978-6.556c-5.111-4.242-8.277-10.168-8.278-16.778h-0.018v-0.008v-0.01h0.018
	c0.004-3.979,1.881-7.527,4.913-10.043c2.803-2.327,6.647-3.768,10.863-3.768v-0.017h0.006h0.013v0.017
	c4.211,0.004,8.051,1.439,10.855,3.768c3.033,2.516,4.913,6.063,4.915,10.046h0.016L77.541,163.717L77.541,163.717z M251.367,82.428
	c0.724-0.054,1.473,0.07,2.176,0.404c2.15,1.023,3.061,3.596,2.037,5.747l-63.835,134.022c-0.252,0.561-0.616,1.06-1.065,1.459
	l-0.012,0.013l-0.045,0.038c-0.758,0.654-1.741,1.054-2.82,1.054H73.227h-0.012v-0.019c-20.069-0.002-38.267-6.769-51.463-17.713
	C8.325,196.305,0.019,180.852,0.017,163.723H0v-0.007v-0.01h0.017c0.002-9.069,2.75-17.578,7.585-24.983l39.391-73.935
	c8.755-18.999,27.304-29.554,47.104-32.49c10.117-1.503,20.596-1.008,30.255,1.371c9.761,2.404,18.725,6.75,25.691,12.932
	c9.723,8.624,15.535,20.668,14.328,35.827H251.367L251.367,82.428z M155.559,83.92l-33.177,70.039
	c-2.377-10.568-8.547-19.984-17.286-27.23c-11.117-9.22-26.443-14.918-43.341-14.924v-0.014h-0.013h-0.006v0.014
	c-12.944,0.003-24.966,3.351-34.881,9.058l27.708-52.005c0.062-0.107,0.122-0.22,0.177-0.339l0.017-0.04l0.028-0.06
	c7.387-16.071,23.391-25.047,40.558-27.593c9.044-1.345,18.378-0.91,26.953,1.201c8.47,2.085,16.17,5.79,22.056,11.011
	C152.553,60.313,157.266,70.697,155.559,83.92z"/>
</svg>
