<?xml version="1.0" encoding="utf-8"?>
<!-- Generator: Adobe Illustrator 15.0.0, SVG Export Plug-In . SVG Version: 6.00 Build 0)  -->
<!DOCTYPE svg PUBLIC "-//W3C//DTD SVG 1.1//EN" "http://www.w3.org/Graphics/SVG/1.1/DTD/svg11.dtd">
<svg version="1.1" id="Calque_1" xmlns="http://www.w3.org/2000/svg" xmlns:xlink="http://www.w3.org/1999/xlink" x="0px" y="0px"
	 width="256px" height="256px" viewBox="0 0 256 256" enable-background="new 0 0 256 256" xml:space="preserve">
<g>
	<rect x="15.5" y="154.832" fill="#222454" width="225.87" height="90.348"/>
	<rect x="15.5" fill="#222454" width="225.87" height="141.28"/>
	<rect x="15.5" y="248.095" fill="#222454" width="225.87" height="7.905"/>
	<rect x="15.5" y="144.195" fill="#222454" width="225.87" height="7.904"/>
	<rect x="23.551" y="7.905" fill="#FFFFFF" width="62.115" height="124.98"/>
	<rect x="23.551" y="163.756" fill="#FFFFFF" width="62.115" height="14.964"/>
	<rect x="97.524" y="163.756" fill="#FFFFFF" width="62.115" height="14.964"/>
	<rect x="171.496" y="163.756" fill="#FFFFFF" width="62.113" height="14.964"/>
	<rect x="23.551" y="182.954" fill="#FFFFFF" width="62.115" height="54.491"/>
	<rect x="97.524" y="182.954" fill="#FFFFFF" width="62.115" height="54.491"/>
	<rect x="171.496" y="182.954" fill="#FFFFFF" width="62.113" height="54.491"/>
	<rect x="97.524" y="7.905" fill="#FFFFFF" width="62.115" height="124.98"/>
	<rect x="171.496" y="7.905" fill="#FFFFFF" width="62.113" height="124.98"/>
	<rect x="77.384" y="61.926" fill="#222454" width="3.388" height="16.94"/>
	<rect x="77.384" y="201.729" fill="#222454" width="3.388" height="16.94"/>
	<rect x="48.962" y="169.543" fill="#222454" width="11.293" height="3.389"/>
	<rect x="122.934" y="169.543" fill="#222454" width="11.294" height="3.389"/>
	<rect x="196.906" y="169.543" fill="#222454" width="11.293" height="3.389"/>
	<g>
		<rect x="102.23" y="201.729" fill="#222454" width="3.388" height="16.94"/>
	</g>
	<rect x="176.768" y="201.729" fill="#222454" width="3.389" height="16.94"/>
	<rect x="22.563" y="44.421" fill="#222454" width="64.373" height="4.517"/>
	<rect x="22.563" y="90.725" fill="#222454" width="64.373" height="4.518"/>
	<rect x="95.971" y="44.421" fill="#222454" width="64.372" height="4.517"/>
	<rect x="95.971" y="90.725" fill="#222454" width="64.372" height="4.518"/>
	<rect x="170.508" y="44.421" fill="#222454" width="64.372" height="4.517"/>
	<rect x="170.508" y="90.725" fill="#222454" width="64.372" height="4.518"/>
	<rect x="102.23" y="61.926" fill="#222454" width="3.388" height="16.94"/>
	<rect x="176.768" y="61.926" fill="#222454" width="3.389" height="16.94"/>
</g>
</svg>
