<?xml version="1.0" encoding="utf-8"?>
<!-- Generator: Adobe Illustrator 15.0.0, SVG Export Plug-In . SVG Version: 6.00 Build 0)  -->
<!DOCTYPE svg PUBLIC "-//W3C//DTD SVG 1.1//EN" "http://www.w3.org/Graphics/SVG/1.1/DTD/svg11.dtd">
<svg version="1.1" id="Calque_1" xmlns="http://www.w3.org/2000/svg" xmlns:xlink="http://www.w3.org/1999/xlink" x="0px" y="0px"
	 width="256px" height="256px" viewBox="0 0 256 256" enable-background="new 0 0 256 256" xml:space="preserve">
<g>
	<g>
		<path fill="#222454" d="M204.512,195c-28.392,0-51.49-23.1-51.49-51.489c0-28.391,23.1-51.486,51.49-51.486
			c28.389,0,51.487,23.096,51.487,51.486S232.9,195,204.512,195z M204.512,97.475c-25.388,0-46.039,20.65-46.039,46.036
			c0,25.39,20.651,46.039,46.039,46.039c25.389,0,46.038-20.649,46.038-46.039C250.55,118.125,229.898,97.475,204.512,97.475z"/>
	</g>
	<g>
		<path fill="#222454" d="M51.489,193.552C23.097,193.552,0,170.453,0,142.063c0-28.393,23.097-51.488,51.489-51.488
			c28.389,0,51.486,23.097,51.486,51.488C102.976,170.453,79.878,193.552,51.489,193.552z M51.489,96.024
			c-25.385,0-46.039,20.653-46.039,46.039c0,25.388,20.654,46.039,46.039,46.039c25.385,0,46.036-20.651,46.036-46.039
			C97.525,116.678,76.874,96.024,51.489,96.024z"/>
	</g>
	<g>
		<path fill="#222454" d="M208.43,153.155c-5.988,0-10.859-4.871-10.859-10.854c0-5.982,4.871-10.852,10.859-10.852
			c5.981,0,10.848,4.869,10.848,10.852C219.277,148.284,214.411,153.155,208.43,153.155z M208.43,136.9c-2.98,0-5.41,2.423-5.41,5.4
			c0,2.98,2.43,5.403,5.41,5.403c2.975,0,5.396-2.423,5.396-5.403C213.824,139.323,211.404,136.9,208.43,136.9z"/>
	</g>
	<g>
		<path fill="#222454" d="M52.04,151.238c-5.985,0-10.853-4.865-10.853-10.848c0-5.985,4.867-10.856,10.853-10.856
			c5.982,0,10.85,4.871,10.85,10.856C62.89,146.373,58.022,151.238,52.04,151.238z M52.04,134.984c-2.978,0-5.403,2.426-5.403,5.406
			c0,2.976,2.425,5.396,5.403,5.396s5.399-2.422,5.399-5.396C57.439,137.41,55.018,134.984,52.04,134.984z"/>
	</g>
	<g>
		
			<rect x="152.115" y="96.835" transform="matrix(-0.3652 -0.9309 0.9309 -0.3652 167.5919 313.4031)" fill="#222454" width="77.071" height="5.453"/>
	</g>
	<g>
		<rect x="60.165" y="138.784" fill="#222454" width="62.597" height="5.45"/>
	</g>
	<g>
		
			<rect x="73.786" y="104.019" transform="matrix(-0.5993 -0.8005 0.8005 -0.5993 86.4274 256.7494)" fill="#222454" width="67.369" height="5.451"/>
	</g>
	<g>
		<rect x="86.021" y="77.406" fill="#222454" width="98.531" height="5.45"/>
	</g>
	<g>
		<polygon fill="#222454" points="137.055,136.947 132.648,133.744 173.564,77.553 177.975,80.762 		"/>
	</g>
	<g>
		
			<rect x="69.364" y="73.652" transform="matrix(-0.8432 -0.5376 0.5376 -0.8432 76.3334 232.6213)" fill="#222454" width="5.447" height="63.056"/>
	</g>
	<g>
		<rect x="85.683" y="72.012" fill="#222454" width="5.45" height="10.089"/>
	</g>
	<g>
		<path fill="#222454" d="M72.854,68.823c0,2.104,1.706,3.799,3.805,3.799h22.029c2.092,0,3.803-1.695,3.803-3.799l0,0
			c0-2.104-1.711-3.805-3.803-3.805H76.659C74.554,65.018,72.854,66.719,72.854,68.823L72.854,68.823z"/>
	</g>
	<g>
		<path fill="#222454" d="M204.959,74.296h-5.452c0-2.891-0.84-4.887-2.575-6.098c-4.971-3.475-16.02-0.588-19.853,0.814
			l-1.874-5.12c1.688-0.617,16.707-5.854,24.852-0.159C202.292,65.295,204.959,68.398,204.959,74.296z"/>
	</g>
	<g>
		<path fill="#222454" d="M16.537,89.897l4.202,4.466c17.309-12.744,40.647-13.157,58.246-1.522l4.327-4.076
			C63.332,74.878,36.315,75.091,16.537,89.897z"/>
	</g>
	<g>
		<path fill="#222454" d="M215.777,104.767l-0.846,4.196c14.236,4.737,23.877,17.888,24.313,32.621l4.065,0.83
			C243.205,125.411,232.199,110.075,215.777,104.767z"/>
	</g>
	<g>
		<path fill="#222454" d="M130.764,150.488c-5.917,0-10.728-4.816-10.728-10.735s4.811-10.729,10.728-10.729
			c5.918,0,10.735,4.812,10.735,10.729S136.682,150.488,130.764,150.488z M130.764,134.473c-2.909,0-5.277,2.369-5.277,5.28
			c0,2.916,2.368,5.285,5.277,5.285c2.916,0,5.286-2.369,5.286-5.285C136.05,136.842,133.68,134.473,130.764,134.473z"/>
	</g>
	<g>
		
			<rect x="128.344" y="151.568" transform="matrix(-0.3675 -0.93 0.93 -0.3675 41.1315 336.5583)" fill="#222454" width="13.344" height="5.449"/>
	</g>
	<g>
		<path fill="#222454" d="M129.74,166.016c0.684,1.573,2.502,2.297,4.078,1.615l11.399-4.938c1.569-0.693,2.289-2.514,1.608-4.09
			l0,0c-0.682-1.568-2.508-2.3-4.078-1.617l-11.398,4.949C129.773,162.617,129.057,164.448,129.74,166.016L129.74,166.016z"/>
	</g>
</g>
</svg>
